%FSLAX23Y23*%
%MOIN*%
G70*
G01*
G75*
G04 Layer_Physical_Order=1*
G04 Layer_Color=255*
%ADD10R,0.035X0.031*%
%ADD11R,0.079X0.079*%
%ADD12R,0.051X0.079*%
%ADD13R,0.118X0.039*%
%ADD14R,0.118X0.059*%
%ADD15C,0.010*%
%ADD16C,0.079*%
%ADD17C,0.060*%
%ADD18C,0.039*%
%ADD19C,0.236*%
G36*
X1665Y-65D02*
X-80D01*
X-95Y-50D01*
X-90Y1130D01*
X1665D01*
Y-65D01*
D02*
G37*
%LPC*%
G36*
X1615Y1091D02*
X0D01*
X-11Y1086D01*
X-16Y1075D01*
Y0D01*
X-11Y-11D01*
X0Y-16D01*
X1615D01*
X1626Y-11D01*
X1631Y0D01*
X1631Y-0D01*
X1631Y0D01*
Y1075D01*
X1626Y1086D01*
X1615Y1091D01*
D02*
G37*
%LPD*%
G36*
X1599Y16D02*
X16D01*
Y1059D01*
X1599D01*
Y16D01*
D02*
G37*
%LPC*%
G36*
X216Y375D02*
X185D01*
Y331D01*
X216D01*
Y375D01*
D02*
G37*
G36*
X256Y429D02*
X226D01*
Y385D01*
X256D01*
Y429D01*
D02*
G37*
G36*
X160Y296D02*
X110Y286D01*
X68Y257D01*
X39Y215D01*
X29Y165D01*
X39Y115D01*
X68Y73D01*
X110Y44D01*
X160Y34D01*
X210Y44D01*
X252Y73D01*
X281Y115D01*
X291Y165D01*
X281Y215D01*
X252Y257D01*
X210Y286D01*
X160Y296D01*
D02*
G37*
G36*
X1586Y379D02*
X1448D01*
Y300D01*
X1457D01*
X1457Y296D01*
X1457D01*
X1458Y295D01*
X1410Y286D01*
X1368Y257D01*
X1339Y215D01*
X1329Y165D01*
X1339Y115D01*
X1368Y73D01*
X1410Y44D01*
X1460Y34D01*
X1510Y44D01*
X1552Y73D01*
X1581Y115D01*
X1591Y165D01*
X1581Y215D01*
X1552Y257D01*
X1510Y286D01*
X1462Y295D01*
X1462Y296D01*
X1462D01*
X1463Y300D01*
X1586D01*
Y379D01*
D02*
G37*
G36*
X160Y1041D02*
X110Y1031D01*
X68Y1002D01*
X39Y960D01*
X29Y910D01*
X39Y860D01*
X68Y818D01*
X110Y789D01*
X160Y779D01*
X210Y789D01*
X252Y818D01*
X281Y860D01*
X291Y910D01*
X281Y960D01*
X252Y1002D01*
X210Y1031D01*
X160Y1041D01*
D02*
G37*
G36*
X1455D02*
X1405Y1031D01*
X1363Y1002D01*
X1334Y960D01*
X1324Y910D01*
X1334Y860D01*
X1363Y818D01*
X1405Y789D01*
X1455Y779D01*
X1505Y789D01*
X1547Y818D01*
X1576Y860D01*
X1586Y910D01*
X1576Y960D01*
X1547Y1002D01*
X1505Y1031D01*
X1455Y1041D01*
D02*
G37*
G36*
X1270Y828D02*
X1247D01*
Y808D01*
X1270D01*
Y828D01*
D02*
G37*
G36*
X1303D02*
X1280D01*
Y803D01*
X1275D01*
Y798D01*
X1247D01*
Y777D01*
X1247Y777D01*
X1247Y773D01*
X1247D01*
Y761D01*
X974D01*
X963Y756D01*
X921Y715D01*
X907Y721D01*
X876Y709D01*
X870Y694D01*
X831D01*
X812Y713D01*
X820Y735D01*
X805Y773D01*
X767Y788D01*
X729Y773D01*
X720Y751D01*
X673D01*
X662Y746D01*
X637Y722D01*
X623Y728D01*
X592Y716D01*
X580Y685D01*
X592Y654D01*
X623Y642D01*
X654Y654D01*
X666Y685D01*
X660Y699D01*
X680Y719D01*
X720D01*
X729Y697D01*
X767Y682D01*
X789Y690D01*
X813Y667D01*
X824Y662D01*
X870D01*
X876Y647D01*
X907Y635D01*
X938Y647D01*
X950Y678D01*
X944Y692D01*
X981Y729D01*
X1247D01*
Y722D01*
X1278D01*
X1378Y622D01*
Y613D01*
X1251D01*
Y600D01*
X1083D01*
X1071Y595D01*
X931Y455D01*
X909Y463D01*
X871Y448D01*
X862Y426D01*
X662D01*
X654Y447D01*
X616Y462D01*
X578Y447D01*
X569Y425D01*
X410D01*
X232Y603D01*
X221Y608D01*
X130D01*
X118Y603D01*
X109Y595D01*
X105Y583D01*
Y429D01*
X94D01*
Y331D01*
X166D01*
Y405D01*
X170Y407D01*
X185Y393D01*
Y385D01*
X216D01*
Y429D01*
X194D01*
X192Y432D01*
Y488D01*
X225D01*
Y532D01*
X175D01*
Y542D01*
X225D01*
Y559D01*
X229Y560D01*
X392Y398D01*
D01*
X392D01*
Y398D01*
D01*
X392D01*
Y398D01*
X392D01*
Y398D01*
D01*
X392D01*
Y398D01*
X404Y393D01*
X569D01*
X578Y371D01*
X578Y371D01*
X577Y366D01*
X257D01*
X256Y367D01*
Y375D01*
X226D01*
Y331D01*
X256D01*
Y334D01*
X729D01*
X735Y319D01*
X761Y309D01*
Y350D01*
X771D01*
Y309D01*
X797Y319D01*
X803Y334D01*
X950D01*
X961Y339D01*
X1000Y377D01*
X1005Y389D01*
Y410D01*
X1251D01*
Y397D01*
X1315D01*
Y426D01*
Y456D01*
X1251D01*
Y442D01*
X989D01*
X977Y438D01*
X973Y426D01*
Y396D01*
X954Y377D01*
X950Y380D01*
X962Y410D01*
X954Y432D01*
X1089Y568D01*
X1251D01*
Y554D01*
X1340D01*
X1341Y549D01*
X1327Y535D01*
X1251D01*
Y475D01*
X1340D01*
X1341Y471D01*
X1327Y456D01*
X1325D01*
Y431D01*
X1389D01*
Y456D01*
X1397Y459D01*
X1431Y494D01*
X1436Y505D01*
Y680D01*
X1431Y691D01*
X1309Y814D01*
X1303Y817D01*
Y828D01*
D02*
G37*
G36*
X1389Y421D02*
X1325D01*
Y397D01*
X1389D01*
Y421D01*
D02*
G37*
G36*
X1586Y710D02*
X1448D01*
Y631D01*
X1586D01*
Y710D01*
D02*
G37*
%LPD*%
G36*
X1404Y673D02*
Y648D01*
X1399Y646D01*
X1303Y743D01*
Y768D01*
X1307Y770D01*
X1404Y673D01*
D02*
G37*
D10*
X1275Y747D02*
D03*
Y803D02*
D03*
D11*
X175Y537D02*
D03*
D12*
X221Y380D02*
D03*
X130D02*
D03*
D13*
X1320Y584D02*
D03*
Y505D02*
D03*
Y426D02*
D03*
Y584D02*
D03*
D14*
X1517Y670D02*
D03*
Y340D02*
D03*
D15*
X1297Y803D02*
X1420Y680D01*
X1283Y803D02*
X1297D01*
X1275Y795D02*
X1283Y803D01*
X907Y678D02*
X974Y745D01*
X1270D01*
X766Y350D02*
X950D01*
X989Y389D01*
Y426D01*
X251Y350D02*
X766D01*
X1320Y426D02*
X1364Y470D01*
X1385D01*
X1420Y505D01*
Y680D01*
X1320Y505D02*
X1364Y549D01*
X1385D01*
X1394Y558D01*
Y628D01*
X1275Y747D02*
X1394Y628D01*
X616Y409D02*
X617Y410D01*
X909D01*
X989Y426D02*
X1320D01*
X909Y410D02*
X1083Y584D01*
X1320D01*
X121Y389D02*
Y583D01*
X130Y592D01*
X221D01*
X404Y409D01*
X616D01*
X221Y380D02*
X251Y350D01*
X623Y685D02*
X673Y735D01*
X767D01*
X824Y678D01*
X907D01*
X175Y425D02*
X221Y380D01*
X175Y425D02*
Y537D01*
D16*
X909Y410D02*
D03*
X616Y409D02*
D03*
X767Y735D02*
D03*
D17*
X766Y350D02*
D03*
X907Y678D02*
D03*
X623Y685D02*
D03*
D18*
X1397Y228D02*
D03*
X1523D02*
D03*
X1460Y254D02*
D03*
X1371Y165D02*
D03*
X1397Y102D02*
D03*
X1460Y76D02*
D03*
X1523Y102D02*
D03*
X1549Y165D02*
D03*
X1544Y910D02*
D03*
X1518Y847D02*
D03*
X1455Y821D02*
D03*
X1392Y847D02*
D03*
X1366Y910D02*
D03*
X1455Y999D02*
D03*
X1518Y973D02*
D03*
X1392D02*
D03*
X97Y228D02*
D03*
X223D02*
D03*
X160Y254D02*
D03*
X71Y165D02*
D03*
X97Y102D02*
D03*
X160Y76D02*
D03*
X223Y102D02*
D03*
X249Y165D02*
D03*
Y910D02*
D03*
X223Y847D02*
D03*
X160Y821D02*
D03*
X97Y847D02*
D03*
X71Y910D02*
D03*
X160Y999D02*
D03*
X223Y973D02*
D03*
X97D02*
D03*
D19*
X1460Y165D02*
D03*
X1455Y910D02*
D03*
X160Y165D02*
D03*
Y910D02*
D03*
M02*
