%FSLAX23Y23*%
%MOIN*%
G70*
G01*
G75*
%ADD10R,0.035X0.031*%
%ADD11R,0.079X0.079*%
%ADD12R,0.051X0.079*%
%ADD13R,0.118X0.039*%
%ADD14R,0.118X0.059*%
%ADD15C,0.010*%
%ADD16C,0.079*%
%ADD17C,0.060*%
%ADD18C,0.039*%
%ADD19C,0.236*%
%ADD20C,0.004*%
%ADD21C,0.000*%
%ADD22C,0.000*%
D15*
X959Y544D02*
G03*
X959Y544I-194J0D01*
G01*
X1159Y545D02*
G03*
X1159Y545I-394J0D01*
G01*
X225Y650D02*
G03*
X121Y642I-54J23D01*
G01*
X215Y640D02*
Y675D01*
Y640D02*
X245Y655D01*
X1575Y305D02*
Y705D01*
X1325D02*
X1575D01*
X1320Y700D02*
X1325Y705D01*
X1320Y305D02*
Y700D01*
Y305D02*
X1575D01*
X1227Y700D02*
X1207D01*
X1217D01*
Y650D01*
X1207Y640D01*
X1197D01*
X1187Y650D01*
X465Y720D02*
Y670D01*
X475Y660D01*
X495D01*
X505Y670D01*
Y720D01*
X525Y660D02*
X545D01*
X535D01*
Y720D01*
X525Y710D01*
X185Y630D02*
X154D01*
X164Y640D01*
X154Y651D01*
X185D01*
Y661D02*
X164D01*
X154Y672D01*
X164Y682D01*
X185D01*
X169D01*
Y661D01*
X154Y693D02*
X185Y714D01*
X154D02*
X185Y693D01*
D20*
X224Y553D02*
X270D01*
X81D02*
X124D01*
X252Y356D02*
X270D01*
X81D02*
X97D01*
X81D02*
Y553D01*
X270Y356D02*
Y553D01*
D21*
X475Y871D02*
X475D01*
X470D02*
X470D01*
X458D02*
X468D01*
X455D02*
X456D01*
X454D02*
X454D01*
X452D02*
X453D01*
X475Y871D02*
X475D01*
X472D02*
X473D01*
X470D02*
X472D01*
X456D02*
X469D01*
X454D02*
X455D01*
X453D02*
X454D01*
X451D02*
X451D01*
X473Y871D02*
X475D01*
X472D02*
X472D01*
X456D02*
X470D01*
X453D02*
X454D01*
X474Y871D02*
X475D01*
X473D02*
X473D01*
X454D02*
X472D01*
X451D02*
X454D01*
X474Y872D02*
X475D01*
X454D02*
X472D01*
X453D02*
X453D01*
X451D02*
X452D01*
X474Y872D02*
X475D01*
X473D02*
X474D01*
X453D02*
X473D01*
X452D02*
X453D01*
X451D02*
X452D01*
X474Y872D02*
X475D01*
X452D02*
X474D01*
X479Y872D02*
X479D01*
X477D02*
X477D01*
X475D02*
X475D01*
X451D02*
X475D01*
X451D02*
X451D01*
X449D02*
X450D01*
X421D02*
X424D01*
X419D02*
X421D01*
X416D02*
X418D01*
X412D02*
X415D01*
X409D02*
X410D01*
X405D02*
X407D01*
X404D02*
X405D01*
X401D02*
X403D01*
X399D02*
X399D01*
X478Y873D02*
X478D01*
X476D02*
X477D01*
X451D02*
X475D01*
X450D02*
X451D01*
X447D02*
X449D01*
X424D02*
X425D01*
X423D02*
X423D01*
X418D02*
X419D01*
X415D02*
X415D01*
X410D02*
X411D01*
X407D02*
X409D01*
X405D02*
X406D01*
X402D02*
X404D01*
X400D02*
X401D01*
X479Y873D02*
X479D01*
X477D02*
X478D01*
X450D02*
X476D01*
X449D02*
X450D01*
X448D02*
X449D01*
X424D02*
X425D01*
X423D02*
X424D01*
X420D02*
X422D01*
X408D02*
X418D01*
X406D02*
X407D01*
X404D02*
X405D01*
X400D02*
X402D01*
X477Y873D02*
X477D01*
X450D02*
X477D01*
X449D02*
X449D01*
X422D02*
X424D01*
X406D02*
X420D01*
X402D02*
X403D01*
X400D02*
X400D01*
X478Y873D02*
X479D01*
X449D02*
X477D01*
X447D02*
X448D01*
X424D02*
X425D01*
X404D02*
X422D01*
X403D02*
X403D01*
X448Y873D02*
X478D01*
X447D02*
X447D01*
X403D02*
X424D01*
X401D02*
X401D01*
X399D02*
X399D01*
X448Y874D02*
X478D01*
X447D02*
X447D01*
X401D02*
X425D01*
X400D02*
X401D01*
X399D02*
X400D01*
X447Y874D02*
X479D01*
X400D02*
X425D01*
X399D02*
X400D01*
X479Y874D02*
X481D01*
X447D02*
X479D01*
X446D02*
X447D01*
X445D02*
X445D01*
X444D02*
X445D01*
X432D02*
X433D01*
X431D02*
X431D01*
X428D02*
X429D01*
X427D02*
X427D01*
X400D02*
X426D01*
X398D02*
X399D01*
X396D02*
X396D01*
X394D02*
X395D01*
X393D02*
X394D01*
X482Y874D02*
X483D01*
X481D02*
X482D01*
X480D02*
X481D01*
X447D02*
X479D01*
X445D02*
X446D01*
X444D02*
X445D01*
X443D02*
X443D01*
X433D02*
X433D01*
X430D02*
X431D01*
X429D02*
X430D01*
X428D02*
X428D01*
X398D02*
X427D01*
X396D02*
X398D01*
X394D02*
X395D01*
X483Y875D02*
X483D01*
X481D02*
X482D01*
X446D02*
X480D01*
X444D02*
X445D01*
X443D02*
X444D01*
X433D02*
X433D01*
X430D02*
X431D01*
X429D02*
X429D01*
X398D02*
X428D01*
X395D02*
X396D01*
X481Y875D02*
X482D01*
X481D02*
X481D01*
X446D02*
X481D01*
X444D02*
X445D01*
X433D02*
X433D01*
X431D02*
X432D01*
X397D02*
X429D01*
X395D02*
X396D01*
X394D02*
X395D01*
X481Y875D02*
X483D01*
X445D02*
X481D01*
X443D02*
X444D01*
X431D02*
X432D01*
X431D02*
X431D01*
X396D02*
X430D01*
X394D02*
X395D01*
X482Y876D02*
X483D01*
X444D02*
X481D01*
X443D02*
X444D01*
X432D02*
X433D01*
X395D02*
X431D01*
X393D02*
X394D01*
X444Y876D02*
X482D01*
X443D02*
X444D01*
X432D02*
X433D01*
X394D02*
X431D01*
X393D02*
X394D01*
X482Y876D02*
X483D01*
X444D02*
X482D01*
X443D02*
X443D01*
X432D02*
X433D01*
X394D02*
X432D01*
X485Y876D02*
X485D01*
X484D02*
X484D01*
X483D02*
X483D01*
X444D02*
X482D01*
X443D02*
X443D01*
X442D02*
X443D01*
X441D02*
X442D01*
X435D02*
X437D01*
X433D02*
X434D01*
X393D02*
X433D01*
X392D02*
X393D01*
X390D02*
X391D01*
X389D02*
X389D01*
X484Y877D02*
X485D01*
X483D02*
X484D01*
X443D02*
X483D01*
X443D02*
X443D01*
X442D02*
X442D01*
X436D02*
X437D01*
X435D02*
X435D01*
X434D02*
X435D01*
X393D02*
X433D01*
X391D02*
X392D01*
X389D02*
X390D01*
X484Y877D02*
X485D01*
X483D02*
X484D01*
X443D02*
X483D01*
X442D02*
X442D01*
X441D02*
X441D01*
X435D02*
X435D01*
X434D02*
X435D01*
X392D02*
X434D01*
X391D02*
X392D01*
X391D02*
X391D01*
X389D02*
X390D01*
X485Y877D02*
X485D01*
X484D02*
X484D01*
X442D02*
X483D01*
X441D02*
X441D01*
X435D02*
X435D01*
X392D02*
X434D01*
X390D02*
X391D01*
X389D02*
X389D01*
X484Y877D02*
X484D01*
X442D02*
X484D01*
X441D02*
X442D01*
X436D02*
X437D01*
X391D02*
X435D01*
X389D02*
X390D01*
X484Y877D02*
X485D01*
X442D02*
X484D01*
X391D02*
X435D01*
X389D02*
X390D01*
X485Y878D02*
X485D01*
X442D02*
X484D01*
X441D02*
X441D01*
X390D02*
X436D01*
X389D02*
X389D01*
X441Y878D02*
X484D01*
X390D02*
X437D01*
X486Y878D02*
X487D01*
X441D02*
X485D01*
X440D02*
X440D01*
X439D02*
X439D01*
X438D02*
X438D01*
X389D02*
X437D01*
X387D02*
X387D01*
X385D02*
X386D01*
X486Y878D02*
X486D01*
X441D02*
X485D01*
X440D02*
X440D01*
X439D02*
X439D01*
X388D02*
X437D01*
X386D02*
X387D01*
X486Y879D02*
X486D01*
X440D02*
X486D01*
X440D02*
X440D01*
X438D02*
X439D01*
X388D02*
X438D01*
X387D02*
X388D01*
X386D02*
X387D01*
X486Y879D02*
X487D01*
X440D02*
X486D01*
X439D02*
X440D01*
X388D02*
X438D01*
X387D02*
X387D01*
X385D02*
X385D01*
X487Y879D02*
X487D01*
X440D02*
X486D01*
X439D02*
X440D01*
X439D02*
X439D01*
X387D02*
X438D01*
X386D02*
X387D01*
X487Y879D02*
X487D01*
X440D02*
X486D01*
X387D02*
X439D01*
X386D02*
X386D01*
X387Y880D02*
X487D01*
X385D02*
X386D01*
X386Y880D02*
X487D01*
X385D02*
X386D01*
X489Y880D02*
X489D01*
X488D02*
X488D01*
X386D02*
X487D01*
X385D02*
X385D01*
X384D02*
X384D01*
X383D02*
X383D01*
X371D02*
X372D01*
X366D02*
X370D01*
X363D02*
X365D01*
X359D02*
X359D01*
X488Y881D02*
X488D01*
X385D02*
X488D01*
X385D02*
X385D01*
X384D02*
X384D01*
X375D02*
X377D01*
X372D02*
X373D01*
X370D02*
X371D01*
X365D02*
X366D01*
X363D02*
X364D01*
X359D02*
X361D01*
X489Y881D02*
X489D01*
X488D02*
X488D01*
X385D02*
X488D01*
X384D02*
X384D01*
X383D02*
X383D01*
X377D02*
X377D01*
X375D02*
X375D01*
X371D02*
X374D01*
X366D02*
X370D01*
X364D02*
X365D01*
X362D02*
X363D01*
X361D02*
X361D01*
X359D02*
X359D01*
X489Y881D02*
X489D01*
X384D02*
X488D01*
X383D02*
X383D01*
X374D02*
X375D01*
X364D02*
X372D01*
X361D02*
X362D01*
X359D02*
X359D01*
X488Y881D02*
X489D01*
X384D02*
X488D01*
X383D02*
X384D01*
X375D02*
X377D01*
X362D02*
X374D01*
X359D02*
X360D01*
X384Y882D02*
X488D01*
X377D02*
X377D01*
X361D02*
X375D01*
X359D02*
X359D01*
X384Y882D02*
X488D01*
X383D02*
X383D01*
X377D02*
X377D01*
X360D02*
X376D01*
X359D02*
X359D01*
X384Y882D02*
X489D01*
X359D02*
X377D01*
X510Y882D02*
X511D01*
X505D02*
X507D01*
X500D02*
X502D01*
X499D02*
X499D01*
X491D02*
X491D01*
X489D02*
X490D01*
X383D02*
X489D01*
X382D02*
X383D01*
X380D02*
X381D01*
X379D02*
X379D01*
X358D02*
X378D01*
X356D02*
X357D01*
X355D02*
X356D01*
X353D02*
X354D01*
X509Y882D02*
X510D01*
X508D02*
X509D01*
X505D02*
X506D01*
X499D02*
X500D01*
X497D02*
X498D01*
X490D02*
X491D01*
X489D02*
X490D01*
X383D02*
X489D01*
X382D02*
X382D01*
X381D02*
X381D01*
X380D02*
X380D01*
X357D02*
X379D01*
X356D02*
X356D01*
X354D02*
X355D01*
X510Y883D02*
X511D01*
X506D02*
X508D01*
X500D02*
X503D01*
X499D02*
X499D01*
X497D02*
X497D01*
X490D02*
X491D01*
X382D02*
X489D01*
X382D02*
X382D01*
X381D02*
X381D01*
X357D02*
X379D01*
X355D02*
X356D01*
X354D02*
X354D01*
X353D02*
X353D01*
X508Y883D02*
X510D01*
X503D02*
X505D01*
X498D02*
X500D01*
X491D02*
X491D01*
X490D02*
X490D01*
X382D02*
X489D01*
X381D02*
X382D01*
X381D02*
X381D01*
X356D02*
X380D01*
X355D02*
X356D01*
X353D02*
X354D01*
X510Y883D02*
X511D01*
X500D02*
X508D01*
X498D02*
X498D01*
X491D02*
X491D01*
X382D02*
X490D01*
X381D02*
X382D01*
X356D02*
X380D01*
X354D02*
X355D01*
X353D02*
X353D01*
X498Y883D02*
X509D01*
X490D02*
X491D01*
X382D02*
X490D01*
X355D02*
X381D01*
X354D02*
X354D01*
X498Y884D02*
X511D01*
X497D02*
X498D01*
X354D02*
X491D01*
X353D02*
X354D01*
X497Y884D02*
X511D01*
X491D02*
X491D01*
X354D02*
X490D01*
X517Y884D02*
X517D01*
X515D02*
X516D01*
X513D02*
X514D01*
X496D02*
X512D01*
X495D02*
X495D01*
X492D02*
X493D01*
X491D02*
X492D01*
X491D02*
X491D01*
X462D02*
X491D01*
X458D02*
X459D01*
X354D02*
X458D01*
X352D02*
X353D01*
X351D02*
X351D01*
X516Y885D02*
X517D01*
X514D02*
X515D01*
X495D02*
X513D01*
X493D02*
X494D01*
X492D02*
X493D01*
X464D02*
X491D01*
X463D02*
X463D01*
X461D02*
X462D01*
X458D02*
X459D01*
X457D02*
X458D01*
X353D02*
X456D01*
X352D02*
X352D01*
X351D02*
X351D01*
X517Y885D02*
X517D01*
X515D02*
X516D01*
X515D02*
X515D01*
X494D02*
X514D01*
X492D02*
X493D01*
X491D02*
X491D01*
X465D02*
X491D01*
X465D02*
X465D01*
X463D02*
X464D01*
X461D02*
X462D01*
X458D02*
X458D01*
X455D02*
X457D01*
X352D02*
X454D01*
X351D02*
X351D01*
X515Y885D02*
X516D01*
X494D02*
X515D01*
X492D02*
X493D01*
X467D02*
X491D01*
X465D02*
X466D01*
X465D02*
X465D01*
X461D02*
X463D01*
X457D02*
X458D01*
X455D02*
X456D01*
X454D02*
X454D01*
X352D02*
X453D01*
X351D02*
X352D01*
X516Y885D02*
X517D01*
X493D02*
X515D01*
X491D02*
X492D01*
X468D02*
X491D01*
X467D02*
X467D01*
X465D02*
X466D01*
X463D02*
X464D01*
X461D02*
X461D01*
X459D02*
X459D01*
X456D02*
X457D01*
X454D02*
X455D01*
X453D02*
X454D01*
X452D02*
X453D01*
X352D02*
X452D01*
X516Y886D02*
X517D01*
X493D02*
X516D01*
X468D02*
X491D01*
X467D02*
X468D01*
X466D02*
X467D01*
X464D02*
X465D01*
X462D02*
X463D01*
X456D02*
X456D01*
X454D02*
X454D01*
X453D02*
X453D01*
X352D02*
X451D01*
X517Y886D02*
X517D01*
X492D02*
X516D01*
X469D02*
X491D01*
X469D02*
X469D01*
X468D02*
X468D01*
X467D02*
X467D01*
X465D02*
X466D01*
X463D02*
X464D01*
X456D02*
X458D01*
X455D02*
X455D01*
X453D02*
X454D01*
X451D02*
X452D01*
X451D02*
X451D01*
X351D02*
X450D01*
X470Y886D02*
X517D01*
X469D02*
X470D01*
X468D02*
X469D01*
X467D02*
X468D01*
X466D02*
X467D01*
X464D02*
X465D01*
X461D02*
X463D01*
X457D02*
X457D01*
X456D02*
X457D01*
X455D02*
X455D01*
X454D02*
X454D01*
X452D02*
X453D01*
X451D02*
X451D01*
X450D02*
X450D01*
X351D02*
X449D01*
X521Y886D02*
X521D01*
X520D02*
X520D01*
X517D02*
X518D01*
X471D02*
X517D01*
X350D02*
X449D01*
X350D02*
X350D01*
X349D02*
X349D01*
X348D02*
X349D01*
X347D02*
X348D01*
X521Y887D02*
X521D01*
X518D02*
X519D01*
X472D02*
X518D01*
X471D02*
X471D01*
X449D02*
X449D01*
X350D02*
X448D01*
X349D02*
X350D01*
X347D02*
X347D01*
X521Y887D02*
X521D01*
X519D02*
X519D01*
X472D02*
X518D01*
X472D02*
X472D01*
X471D02*
X471D01*
X448D02*
X448D01*
X414D02*
X447D01*
X407D02*
X409D01*
X350D02*
X405D01*
X347D02*
X347D01*
X519Y887D02*
X519D01*
X472D02*
X518D01*
X472D02*
X472D01*
X471D02*
X472D01*
X448D02*
X449D01*
X447D02*
X448D01*
X417D02*
X447D01*
X415D02*
X416D01*
X412D02*
X415D01*
X408D02*
X411D01*
X405D02*
X407D01*
X403D02*
X403D01*
X350D02*
X403D01*
X348D02*
X349D01*
X347D02*
X347D01*
X520Y887D02*
X521D01*
X473D02*
X519D01*
X473D02*
X473D01*
X472D02*
X472D01*
X471D02*
X472D01*
X448D02*
X448D01*
X447D02*
X447D01*
X447D02*
X447D01*
X418D02*
X446D01*
X415D02*
X415D01*
X411D02*
X412D01*
X407D02*
X408D01*
X403D02*
X405D01*
X401D02*
X403D01*
X349D02*
X401D01*
X348D02*
X348D01*
X474Y887D02*
X520D01*
X473D02*
X474D01*
X472D02*
X472D01*
X449D02*
X449D01*
X448D02*
X449D01*
X447D02*
X448D01*
X446D02*
X447D01*
X419D02*
X446D01*
X419D02*
X419D01*
X417D02*
X418D01*
X416D02*
X417D01*
X412D02*
X415D01*
X408D02*
X411D01*
X405D02*
X405D01*
X401D02*
X402D01*
X400D02*
X400D01*
X349D02*
X400D01*
X348D02*
X348D01*
X347D02*
X347D01*
X521Y888D02*
X521D01*
X474D02*
X520D01*
X474D02*
X474D01*
X472D02*
X473D01*
X471D02*
X472D01*
X448D02*
X448D01*
X447D02*
X447D01*
X446D02*
X447D01*
X446D02*
X446D01*
X421D02*
X445D01*
X420D02*
X421D01*
X419D02*
X419D01*
X418D02*
X418D01*
X413D02*
X414D01*
X411D02*
X412D01*
X407D02*
X408D01*
X403D02*
X405D01*
X400D02*
X401D01*
X349D02*
X399D01*
X348D02*
X348D01*
X347D02*
X347D01*
X475Y888D02*
X520D01*
X474D02*
X474D01*
X473D02*
X474D01*
X472D02*
X473D01*
X471D02*
X471D01*
X448D02*
X449D01*
X447D02*
X447D01*
X446D02*
X446D01*
X445D02*
X445D01*
X421D02*
X445D01*
X421D02*
X421D01*
X419D02*
X420D01*
X418D02*
X419D01*
X417D02*
X417D01*
X415D02*
X416D01*
X412D02*
X415D01*
X410D02*
X411D01*
X409D02*
X410D01*
X405D02*
X406D01*
X405D02*
X405D01*
X401D02*
X402D01*
X401D02*
X401D01*
X399D02*
X400D01*
X398D02*
X398D01*
X348D02*
X398D01*
X348D02*
X348D01*
X522Y888D02*
X523D01*
X521D02*
X521D01*
X475D02*
X521D01*
X423D02*
X444D01*
X397D02*
X397D01*
X348D02*
X396D01*
X347D02*
X348D01*
X346D02*
X347D01*
X345D02*
X345D01*
X523Y888D02*
X523D01*
X521D02*
X522D01*
X475D02*
X521D01*
X475D02*
X475D01*
X445D02*
X445D01*
X444D02*
X444D01*
X424D02*
X444D01*
X423D02*
X424D01*
X396D02*
X397D01*
X348D02*
X396D01*
X347D02*
X347D01*
X346D02*
X347D01*
X523Y889D02*
X523D01*
X522D02*
X522D01*
X476D02*
X521D01*
X475D02*
X475D01*
X444D02*
X445D01*
X424D02*
X444D01*
X424D02*
X424D01*
X396D02*
X397D01*
X347D02*
X395D01*
X347D02*
X347D01*
X476Y889D02*
X521D01*
X475D02*
X476D01*
X445D02*
X445D01*
X444D02*
X444D01*
X444D02*
X444D01*
X425D02*
X443D01*
X423D02*
X424D01*
X395D02*
X395D01*
X394D02*
X395D01*
X347D02*
X394D01*
X345D02*
X346D01*
X522Y889D02*
X523D01*
X476D02*
X522D01*
X476D02*
X476D01*
X475D02*
X475D01*
X444D02*
X445D01*
X444D02*
X444D01*
X426D02*
X443D01*
X424D02*
X425D01*
X423D02*
X424D01*
X397D02*
X397D01*
X395D02*
X396D01*
X395D02*
X395D01*
X394D02*
X394D01*
X347D02*
X394D01*
X345D02*
X346D01*
X522Y890D02*
X523D01*
X477D02*
X522D01*
X476D02*
X476D01*
X475D02*
X475D01*
X444D02*
X445D01*
X444D02*
X444D01*
X443D02*
X443D01*
X427D02*
X442D01*
X426D02*
X427D01*
X425D02*
X426D01*
X424D02*
X424D01*
X423D02*
X423D01*
X396D02*
X397D01*
X395D02*
X395D01*
X394D02*
X395D01*
X393D02*
X394D01*
X393D02*
X393D01*
X347D02*
X393D01*
X345D02*
X346D01*
X477Y890D02*
X522D01*
X476D02*
X476D01*
X475D02*
X476D01*
X475D02*
X475D01*
X445D02*
X445D01*
X444D02*
X444D01*
X444D02*
X444D01*
X442D02*
X443D01*
X428D02*
X442D01*
X426D02*
X427D01*
X425D02*
X426D01*
X424D02*
X425D01*
X423D02*
X424D01*
X395D02*
X396D01*
X395D02*
X395D01*
X394D02*
X394D01*
X393D02*
X393D01*
X346D02*
X393D01*
X345D02*
X346D01*
X477Y890D02*
X523D01*
X477D02*
X477D01*
X476D02*
X477D01*
X475D02*
X475D01*
X444D02*
X444D01*
X443D02*
X444D01*
X443D02*
X443D01*
X442D02*
X442D01*
X428D02*
X442D01*
X428D02*
X428D01*
X427D02*
X427D01*
X426D02*
X426D01*
X425D02*
X425D01*
X424D02*
X424D01*
X423D02*
X423D01*
X396D02*
X397D01*
X395D02*
X395D01*
X394D02*
X394D01*
X393D02*
X393D01*
X392D02*
X392D01*
X346D02*
X391D01*
X345D02*
X346D01*
X524Y890D02*
X525D01*
X523D02*
X524D01*
X477D02*
X523D01*
X477D02*
X477D01*
X443D02*
X443D01*
X442D02*
X442D01*
X428D02*
X442D01*
X428D02*
X428D01*
X427D02*
X428D01*
X346D02*
X391D01*
X345D02*
X346D01*
X524Y891D02*
X525D01*
X479D02*
X523D01*
X477D02*
X477D01*
X442D02*
X443D01*
X442D02*
X442D01*
X429D02*
X441D01*
X429D02*
X429D01*
X428D02*
X428D01*
X427D02*
X428D01*
X391D02*
X391D01*
X346D02*
X390D01*
X345D02*
X345D01*
X524Y891D02*
X525D01*
X479D02*
X524D01*
X478D02*
X479D01*
X477D02*
X477D01*
X443D02*
X443D01*
X442D02*
X442D01*
X442D02*
X442D01*
X430D02*
X441D01*
X429D02*
X430D01*
X428D02*
X428D01*
X427D02*
X428D01*
X391D02*
X391D01*
X345D02*
X390D01*
X345D02*
X345D01*
X344D02*
X345D01*
X343D02*
X343D01*
X524Y891D02*
X525D01*
X479D02*
X524D01*
X479D02*
X479D01*
X477D02*
X477D01*
X443D02*
X443D01*
X442D02*
X442D01*
X441D02*
X441D01*
X430D02*
X441D01*
X430D02*
X430D01*
X428D02*
X429D01*
X427D02*
X428D01*
X391D02*
X391D01*
X345D02*
X390D01*
X344D02*
X345D01*
X343D02*
X343D01*
X525Y891D02*
X525D01*
X479D02*
X524D01*
X478D02*
X479D01*
X442D02*
X443D01*
X442D02*
X442D01*
X431D02*
X441D01*
X430D02*
X430D01*
X429D02*
X430D01*
X427D02*
X428D01*
X345D02*
X389D01*
X344D02*
X344D01*
X525Y891D02*
X525D01*
X479D02*
X524D01*
X479D02*
X479D01*
X477D02*
X478D01*
X442D02*
X443D01*
X441D02*
X442D01*
X440D02*
X440D01*
X431D02*
X440D01*
X431D02*
X431D01*
X430D02*
X430D01*
X428D02*
X428D01*
X427D02*
X427D01*
X391D02*
X391D01*
X389D02*
X390D01*
X345D02*
X388D01*
X344D02*
X344D01*
X343D02*
X343D01*
X480Y892D02*
X525D01*
X479D02*
X480D01*
X479D02*
X479D01*
X478D02*
X478D01*
X477D02*
X477D01*
X442D02*
X442D01*
X441D02*
X441D01*
X440D02*
X440D01*
X440D02*
X440D01*
X432D02*
X440D01*
X431D02*
X431D01*
X428D02*
X430D01*
X427D02*
X427D01*
X391D02*
X391D01*
X390D02*
X391D01*
X388D02*
X389D01*
X345D02*
X388D01*
X343D02*
X343D01*
X480Y892D02*
X525D01*
X480D02*
X480D01*
X479D02*
X479D01*
X479D02*
X479D01*
X477D02*
X478D01*
X443D02*
X443D01*
X442D02*
X442D01*
X441D02*
X442D01*
X440D02*
X441D01*
X440D02*
X440D01*
X432D02*
X440D01*
X431D02*
X432D01*
X430D02*
X431D01*
X428D02*
X429D01*
X427D02*
X428D01*
X390D02*
X391D01*
X389D02*
X390D01*
X388D02*
X388D01*
X344D02*
X387D01*
X343D02*
X343D01*
X527Y892D02*
X527D01*
X525D02*
X526D01*
X481D02*
X525D01*
X480D02*
X480D01*
X479D02*
X479D01*
X433D02*
X439D01*
X432D02*
X432D01*
X431D02*
X431D01*
X344D02*
X387D01*
X343D02*
X344D01*
X343D02*
X343D01*
X527Y892D02*
X527D01*
X526D02*
X526D01*
X481D02*
X525D01*
X480D02*
X481D01*
X479D02*
X480D01*
X433D02*
X439D01*
X432D02*
X432D01*
X431D02*
X431D01*
X387D02*
X387D01*
X344D02*
X386D01*
X343D02*
X343D01*
X527Y893D02*
X527D01*
X526D02*
X526D01*
X481D02*
X525D01*
X480D02*
X481D01*
X479D02*
X480D01*
X479D02*
X479D01*
X433D02*
X439D01*
X432D02*
X433D01*
X431D02*
X431D01*
X387D02*
X387D01*
X344D02*
X386D01*
X343D02*
X343D01*
X526Y893D02*
X527D01*
X481D02*
X526D01*
X481D02*
X481D01*
X480D02*
X480D01*
X479D02*
X479D01*
X438D02*
X439D01*
X434D02*
X438D01*
X433D02*
X433D01*
X432D02*
X433D01*
X431D02*
X432D01*
X386D02*
X387D01*
X343D02*
X386D01*
X343D02*
X343D01*
X526Y893D02*
X527D01*
X481D02*
X526D01*
X480D02*
X480D01*
X479D02*
X479D01*
X434D02*
X438D01*
X433D02*
X433D01*
X431D02*
X432D01*
X386D02*
X386D01*
X343D02*
X385D01*
X481Y893D02*
X526D01*
X481D02*
X481D01*
X480D02*
X480D01*
X479D02*
X479D01*
X438D02*
X439D01*
X435D02*
X438D01*
X434D02*
X434D01*
X433D02*
X434D01*
X433D02*
X433D01*
X432D02*
X432D01*
X431D02*
X431D01*
X387D02*
X387D01*
X386D02*
X386D01*
X385D02*
X386D01*
X343D02*
X385D01*
X482Y894D02*
X526D01*
X481D02*
X481D01*
X479D02*
X480D01*
X438D02*
X439D01*
X435D02*
X438D01*
X435D02*
X435D01*
X434D02*
X434D01*
X433D02*
X433D01*
X432D02*
X433D01*
X431D02*
X431D01*
X386D02*
X387D01*
X386D02*
X386D01*
X385D02*
X385D01*
X343D02*
X385D01*
X482Y894D02*
X527D01*
X481D02*
X481D01*
X480D02*
X481D01*
X479D02*
X480D01*
X479D02*
X479D01*
X438D02*
X439D01*
X438D02*
X438D01*
X435D02*
X438D01*
X435D02*
X435D01*
X434D02*
X435D01*
X433D02*
X433D01*
X431D02*
X432D01*
X387D02*
X387D01*
X386D02*
X387D01*
X385D02*
X386D01*
X384D02*
X385D01*
X343D02*
X384D01*
X527Y894D02*
X528D01*
X482D02*
X527D01*
X482D02*
X482D01*
X481D02*
X482D01*
X384D02*
X384D01*
X343D02*
X384D01*
X342D02*
X342D01*
X341D02*
X342D01*
X483Y895D02*
X527D01*
X481D02*
X482D01*
X481D02*
X481D01*
X385D02*
X385D01*
X384D02*
X384D01*
X343D02*
X384D01*
X342D02*
X342D01*
X341D02*
X341D01*
X528Y895D02*
X528D01*
X483D02*
X527D01*
X482D02*
X483D01*
X481D02*
X482D01*
X384D02*
X384D01*
X366D02*
X383D01*
X363D02*
X363D01*
X343D02*
X363D01*
X342D02*
X342D01*
X341D02*
X341D01*
X529Y895D02*
X529D01*
X528D02*
X529D01*
X483D02*
X527D01*
X482D02*
X483D01*
X481D02*
X482D01*
X384D02*
X385D01*
X383D02*
X384D01*
X369D02*
X383D01*
X367D02*
X368D01*
X364D02*
X366D01*
X362D02*
X363D01*
X342D02*
X361D01*
X342D02*
X342D01*
X341D02*
X341D01*
X528Y895D02*
X529D01*
X483D02*
X528D01*
X482D02*
X482D01*
X481D02*
X481D01*
X384D02*
X385D01*
X383D02*
X383D01*
X370D02*
X382D01*
X370D02*
X370D01*
X369D02*
X369D01*
X367D02*
X368D01*
X366D02*
X367D01*
X363D02*
X363D01*
X361D02*
X363D01*
X359D02*
X360D01*
X342D02*
X359D01*
X341D02*
X342D01*
X484Y896D02*
X528D01*
X483D02*
X483D01*
X482D02*
X482D01*
X481D02*
X481D01*
X383D02*
X384D01*
X382D02*
X383D01*
X371D02*
X382D01*
X370D02*
X371D01*
X370D02*
X370D01*
X368D02*
X369D01*
X364D02*
X365D01*
X363D02*
X363D01*
X361D02*
X361D01*
X359D02*
X360D01*
X359D02*
X359D01*
X342D02*
X358D01*
X341D02*
X342D01*
X484Y896D02*
X528D01*
X483D02*
X483D01*
X481D02*
X482D01*
X384D02*
X385D01*
X383D02*
X383D01*
X382D02*
X383D01*
X382D02*
X382D01*
X372D02*
X382D01*
X371D02*
X371D01*
X370D02*
X370D01*
X369D02*
X370D01*
X366D02*
X368D01*
X363D02*
X364D01*
X361D02*
X363D01*
X361D02*
X361D01*
X357D02*
X358D01*
X341D02*
X357D01*
X529Y896D02*
X529D01*
X484D02*
X528D01*
X483D02*
X484D01*
X482D02*
X482D01*
X481D02*
X482D01*
X481D02*
X481D01*
X384D02*
X385D01*
X383D02*
X384D01*
X382D02*
X382D01*
X373D02*
X382D01*
X371D02*
X372D01*
X370D02*
X371D01*
X368D02*
X368D01*
X366D02*
X366D01*
X360D02*
X361D01*
X359D02*
X359D01*
X357D02*
X357D01*
X342D02*
X356D01*
X341D02*
X342D01*
X531Y896D02*
X531D01*
X530D02*
X530D01*
X529D02*
X529D01*
X484D02*
X528D01*
X483D02*
X484D01*
X374D02*
X381D01*
X373D02*
X373D01*
X357D02*
X357D01*
X356D02*
X356D01*
X342D02*
X356D01*
X341D02*
X341D01*
X339D02*
X339D01*
X531Y896D02*
X531D01*
X484D02*
X529D01*
X484D02*
X484D01*
X483D02*
X483D01*
X375D02*
X381D01*
X373D02*
X374D01*
X356D02*
X356D01*
X355D02*
X355D01*
X341D02*
X355D01*
X340D02*
X341D01*
X530Y897D02*
X531D01*
X484D02*
X529D01*
X484D02*
X484D01*
X483D02*
X483D01*
X375D02*
X381D01*
X375D02*
X375D01*
X373D02*
X374D01*
X356D02*
X357D01*
X355D02*
X356D01*
X341D02*
X354D01*
X340D02*
X341D01*
X530Y897D02*
X531D01*
X529D02*
X530D01*
X501D02*
X529D01*
X485D02*
X501D01*
X484D02*
X484D01*
X484D02*
X484D01*
X483D02*
X484D01*
X380D02*
X381D01*
X376D02*
X380D01*
X375D02*
X376D01*
X374D02*
X375D01*
X356D02*
X356D01*
X354D02*
X355D01*
X341D02*
X354D01*
X340D02*
X340D01*
X529Y897D02*
X530D01*
X504D02*
X529D01*
X498D02*
X502D01*
X485D02*
X498D01*
X484D02*
X485D01*
X484D02*
X484D01*
X483D02*
X484D01*
X377D02*
X380D01*
X376D02*
X376D01*
X375D02*
X376D01*
X373D02*
X375D01*
X357D02*
X357D01*
X356D02*
X356D01*
X341D02*
X354D01*
X340D02*
X340D01*
X531Y897D02*
X531D01*
X505D02*
X529D01*
X503D02*
X504D01*
X502D02*
X503D01*
X499D02*
X500D01*
X498D02*
X498D01*
X497D02*
X498D01*
X485D02*
X496D01*
X485D02*
X485D01*
X484D02*
X484D01*
X484D02*
X484D01*
X483D02*
X483D01*
X380D02*
X380D01*
X376D02*
X380D01*
X375D02*
X375D01*
X373D02*
X373D01*
X356D02*
X357D01*
X355D02*
X356D01*
X354D02*
X355D01*
X341D02*
X353D01*
X339D02*
X340D01*
X531Y898D02*
X531D01*
X530D02*
X530D01*
X507D02*
X530D01*
X506D02*
X507D01*
X504D02*
X505D01*
X503D02*
X503D01*
X500D02*
X502D01*
X498D02*
X499D01*
X497D02*
X497D01*
X496D02*
X497D01*
X485D02*
X495D01*
X485D02*
X485D01*
X484D02*
X484D01*
X484D02*
X484D01*
X380D02*
X381D01*
X380D02*
X380D01*
X377D02*
X380D01*
X377D02*
X377D01*
X375D02*
X377D01*
X373D02*
X375D01*
X356D02*
X357D01*
X355D02*
X355D01*
X354D02*
X354D01*
X352D02*
X353D01*
X340D02*
X352D01*
X339D02*
X340D01*
X530Y898D02*
X530D01*
X508D02*
X530D01*
X507D02*
X507D01*
X506D02*
X506D01*
X503D02*
X504D01*
X502D02*
X503D01*
X497D02*
X498D01*
X496D02*
X497D01*
X495D02*
X496D01*
X486D02*
X494D01*
X485D02*
X485D01*
X484D02*
X484D01*
X483D02*
X483D01*
X380D02*
X381D01*
X380D02*
X380D01*
X378D02*
X379D01*
X377D02*
X377D01*
X377D02*
X377D01*
X376D02*
X376D01*
X375D02*
X375D01*
X373D02*
X373D01*
X357D02*
X357D01*
X355D02*
X356D01*
X354D02*
X355D01*
X354D02*
X354D01*
X353D02*
X353D01*
X352D02*
X352D01*
X340D02*
X352D01*
X339D02*
X340D01*
X530Y898D02*
X531D01*
X530D02*
X530D01*
X508D02*
X530D01*
X507D02*
X508D01*
X494D02*
X495D01*
X486D02*
X494D01*
X485D02*
X485D01*
X353D02*
X353D01*
X352D02*
X352D01*
X340D02*
X352D01*
X340D02*
X340D01*
X339D02*
X340D01*
X530Y899D02*
X530D01*
X510D02*
X530D01*
X508D02*
X509D01*
X508D02*
X508D01*
X507D02*
X507D01*
X494D02*
X495D01*
X493D02*
X493D01*
X486D02*
X493D01*
X485D02*
X486D01*
X353D02*
X353D01*
X352D02*
X352D01*
X340D02*
X351D01*
X340D02*
X340D01*
X339D02*
X339D01*
X530Y899D02*
X530D01*
X510D02*
X530D01*
X509D02*
X510D01*
X508D02*
X508D01*
X507D02*
X507D01*
X494D02*
X495D01*
X493D02*
X493D01*
X492D02*
X493D01*
X486D02*
X492D01*
X485D02*
X486D01*
X352D02*
X352D01*
X340D02*
X350D01*
X340D02*
X340D01*
X339D02*
X339D01*
X530Y899D02*
X531D01*
X511D02*
X530D01*
X510D02*
X510D01*
X509D02*
X510D01*
X509D02*
X509D01*
X508D02*
X508D01*
X507D02*
X507D01*
X494D02*
X495D01*
X492D02*
X492D01*
X486D02*
X491D01*
X351D02*
X352D01*
X340D02*
X350D01*
X340D02*
X340D01*
X339D02*
X339D01*
X530Y899D02*
X531D01*
X511D02*
X530D01*
X510D02*
X511D01*
X508D02*
X510D01*
X507D02*
X507D01*
X494D02*
X495D01*
X492D02*
X493D01*
X491D02*
X492D01*
X486D02*
X491D01*
X486D02*
X486D01*
X352D02*
X353D01*
X351D02*
X352D01*
X350D02*
X351D01*
X340D02*
X350D01*
X340D02*
X340D01*
X530Y900D02*
X531D01*
X512D02*
X530D01*
X511D02*
X512D01*
X509D02*
X510D01*
X507D02*
X508D01*
X493D02*
X494D01*
X492D02*
X492D01*
X491D02*
X491D01*
X486D02*
X490D01*
X486D02*
X486D01*
X485D02*
X486D01*
X352D02*
X353D01*
X351D02*
X351D01*
X350D02*
X350D01*
X340D02*
X350D01*
X339D02*
X340D01*
X512Y900D02*
X530D01*
X512D02*
X512D01*
X511D02*
X511D01*
X510D02*
X511D01*
X510D02*
X510D01*
X509D02*
X509D01*
X507D02*
X508D01*
X493D02*
X494D01*
X493D02*
X493D01*
X491D02*
X492D01*
X491D02*
X491D01*
X490D02*
X491D01*
X487D02*
X490D01*
X486D02*
X486D01*
X485D02*
X486D01*
X351D02*
X352D01*
X350D02*
X351D01*
X349D02*
X350D01*
X340D02*
X349D01*
X339D02*
X340D01*
X531Y900D02*
X531D01*
X512D02*
X530D01*
X511D02*
X512D01*
X511D02*
X511D01*
X510D02*
X511D01*
X509D02*
X510D01*
X508D02*
X509D01*
X507D02*
X507D01*
X495D02*
X495D01*
X493D02*
X493D01*
X491D02*
X492D01*
X491D02*
X491D01*
X490D02*
X491D01*
X486D02*
X489D01*
X486D02*
X486D01*
X485D02*
X486D01*
X353D02*
X353D01*
X352D02*
X352D01*
X351D02*
X351D01*
X350D02*
X350D01*
X349D02*
X349D01*
X340D02*
X349D01*
X339D02*
X339D01*
X531Y900D02*
X532D01*
X513D02*
X531D01*
X487D02*
X489D01*
X349D02*
X349D01*
X340D02*
X348D01*
X339D02*
X340D01*
X531Y900D02*
X532D01*
X514D02*
X531D01*
X513D02*
X513D01*
X489D02*
X489D01*
X488D02*
X488D01*
X487D02*
X488D01*
X349D02*
X349D01*
X340D02*
X348D01*
X339D02*
X340D01*
X532Y901D02*
X533D01*
X514D02*
X531D01*
X513D02*
X514D01*
X489D02*
X489D01*
X488D02*
X488D01*
X349D02*
X349D01*
X348D02*
X349D01*
X348D02*
X348D01*
X339D02*
X347D01*
X532Y901D02*
X533D01*
X514D02*
X531D01*
X487D02*
X488D01*
X349D02*
X349D01*
X348D02*
X348D01*
X347D02*
X348D01*
X340D02*
X347D01*
X532Y901D02*
X533D01*
X515D02*
X531D01*
X515D02*
X515D01*
X514D02*
X514D01*
X513D02*
X513D01*
X488D02*
X489D01*
X488D02*
X488D01*
X349D02*
X349D01*
X347D02*
X348D01*
X340D02*
X347D01*
X532Y901D02*
X533D01*
X515D02*
X531D01*
X513D02*
X514D01*
X488D02*
X489D01*
X487D02*
X487D01*
X348D02*
X349D01*
X339D02*
X347D01*
X515Y902D02*
X532D01*
X515D02*
X515D01*
X514D02*
X515D01*
X513D02*
X514D01*
X513D02*
X513D01*
X488D02*
X488D01*
X349D02*
X349D01*
X348D02*
X349D01*
X348D02*
X348D01*
X347D02*
X347D01*
X339D02*
X347D01*
X516Y902D02*
X532D01*
X515D02*
X515D01*
X514D02*
X514D01*
X513D02*
X513D01*
X489D02*
X489D01*
X487D02*
X488D01*
X348D02*
X349D01*
X347D02*
X347D01*
X339D02*
X347D01*
X533Y902D02*
X533D01*
X532D02*
X533D01*
X516D02*
X532D01*
X516D02*
X516D01*
X515D02*
X515D01*
X347D02*
X347D01*
X339D02*
X346D01*
X338D02*
X339D01*
X337D02*
X338D01*
X532Y902D02*
X533D01*
X517D02*
X532D01*
X516D02*
X516D01*
X515D02*
X516D01*
X347D02*
X347D01*
X338D02*
X346D01*
X337D02*
X338D01*
X533Y903D02*
X533D01*
X517D02*
X532D01*
X516D02*
X516D01*
X516D02*
X516D01*
X515D02*
X515D01*
X346D02*
X347D01*
X338D02*
X346D01*
X533Y903D02*
X533D01*
X517D02*
X532D01*
X516D02*
X517D01*
X516D02*
X516D01*
X515D02*
X516D01*
X347D02*
X347D01*
X346D02*
X346D01*
X339D02*
X345D01*
X338D02*
X338D01*
X337D02*
X337D01*
X533Y903D02*
X533D01*
X517D02*
X532D01*
X517D02*
X517D01*
X515D02*
X516D01*
X346D02*
X347D01*
X346D02*
X346D01*
X345D02*
X345D01*
X339D02*
X345D01*
X338D02*
X338D01*
X337D02*
X337D01*
X517Y904D02*
X533D01*
X517D02*
X517D01*
X516D02*
X517D01*
X516D02*
X516D01*
X515D02*
X515D01*
X347D02*
X347D01*
X346D02*
X347D01*
X345D02*
X345D01*
X339D02*
X345D01*
X338D02*
X338D01*
X337D02*
X337D01*
X533Y904D02*
X533D01*
X518D02*
X533D01*
X517D02*
X518D01*
X517D02*
X517D01*
X516D02*
X516D01*
X515D02*
X516D01*
X347D02*
X347D01*
X346D02*
X347D01*
X346D02*
X346D01*
X345D02*
X345D01*
X338D02*
X345D01*
X338D02*
X338D01*
X337D02*
X337D01*
X533Y904D02*
X533D01*
X518D02*
X533D01*
X518D02*
X518D01*
X517D02*
X517D01*
X516D02*
X516D01*
X516D02*
X516D01*
X515D02*
X515D01*
X347D02*
X347D01*
X346D02*
X346D01*
X338D02*
X345D01*
X338D02*
X338D01*
X533Y904D02*
X533D01*
X518D02*
X533D01*
X518D02*
X518D01*
X517D02*
X518D01*
X517D02*
X517D01*
X344D02*
X345D01*
X339D02*
X344D01*
X338D02*
X338D01*
X337D02*
X338D01*
X519Y905D02*
X533D01*
X518D02*
X518D01*
X517D02*
X518D01*
X517D02*
X517D01*
X345D02*
X345D01*
X344D02*
X344D01*
X339D02*
X344D01*
X338D02*
X338D01*
X337D02*
X338D01*
X519Y905D02*
X533D01*
X518D02*
X519D01*
X517D02*
X518D01*
X345D02*
X345D01*
X338D02*
X344D01*
X338D02*
X338D01*
X337D02*
X338D01*
X519Y905D02*
X533D01*
X518D02*
X519D01*
X518D02*
X518D01*
X517D02*
X517D01*
X344D02*
X345D01*
X338D02*
X344D01*
X337D02*
X338D01*
X520Y905D02*
X533D01*
X519D02*
X520D01*
X517D02*
X517D01*
X345D02*
X345D01*
X344D02*
X344D01*
X338D02*
X343D01*
X337D02*
X338D01*
X520Y905D02*
X533D01*
X520D02*
X520D01*
X518D02*
X519D01*
X517D02*
X517D01*
X345D02*
X345D01*
X344D02*
X345D01*
X343D02*
X344D01*
X338D02*
X343D01*
X337D02*
X338D01*
X520Y906D02*
X533D01*
X519D02*
X519D01*
X518D02*
X518D01*
X344D02*
X345D01*
X343D02*
X343D01*
X338D02*
X343D01*
X338D02*
X338D01*
X337D02*
X337D01*
X520Y906D02*
X533D01*
X520D02*
X520D01*
X519D02*
X520D01*
X518D02*
X519D01*
X517D02*
X518D01*
X517D02*
X517D01*
X345D02*
X345D01*
X344D02*
X344D01*
X343D02*
X344D01*
X343D02*
X343D01*
X338D02*
X343D01*
X337D02*
X337D01*
X534Y906D02*
X535D01*
X534D02*
X534D01*
X521D02*
X533D01*
X520D02*
X520D01*
X343D02*
X343D01*
X338D02*
X343D01*
X338D02*
X338D01*
X337D02*
X338D01*
X534Y906D02*
X535D01*
X521D02*
X533D01*
X520D02*
X520D01*
X519D02*
X519D01*
X338D02*
X343D01*
X337D02*
X337D01*
X535Y907D02*
X535D01*
X534D02*
X535D01*
X521D02*
X534D01*
X520D02*
X521D01*
X520D02*
X520D01*
X343D02*
X343D01*
X338D02*
X343D01*
X338D02*
X338D01*
X337D02*
X337D01*
X535Y907D02*
X535D01*
X534D02*
X534D01*
X521D02*
X534D01*
X521D02*
X521D01*
X519D02*
X520D01*
X343D02*
X343D01*
X338D02*
X342D01*
X338D02*
X338D01*
X337D02*
X338D01*
X535Y907D02*
X535D01*
X534D02*
X534D01*
X521D02*
X534D01*
X521D02*
X521D01*
X520D02*
X520D01*
X519D02*
X520D01*
X343D02*
X343D01*
X342D02*
X343D01*
X338D02*
X342D01*
X337D02*
X338D01*
X521Y908D02*
X534D01*
X521D02*
X521D01*
X520D02*
X521D01*
X519D02*
X520D01*
X342D02*
X343D01*
X338D02*
X342D01*
X337D02*
X338D01*
X535Y908D02*
X535D01*
X534D02*
X534D01*
X521D02*
X534D01*
X521D02*
X521D01*
X519D02*
X520D01*
X343D02*
X343D01*
X342D02*
X343D01*
X342D02*
X342D01*
X338D02*
X342D01*
X338D02*
X338D01*
X535Y908D02*
X535D01*
X534D02*
X534D01*
X522D02*
X534D01*
X521D02*
X521D01*
X520D02*
X521D01*
X520D02*
X520D01*
X519D02*
X519D01*
X342D02*
X342D01*
X338D02*
X342D01*
X535Y908D02*
X535D01*
X534D02*
X534D01*
X522D02*
X534D01*
X521D02*
X522D01*
X343D02*
X343D01*
X342D02*
X342D01*
X338D02*
X342D01*
X338D02*
X338D01*
X337D02*
X337D01*
X535Y909D02*
X535D01*
X522D02*
X534D01*
X522D02*
X522D01*
X521D02*
X521D01*
X343D02*
X343D01*
X342D02*
X342D01*
X338D02*
X341D01*
X337D02*
X337D01*
X535Y909D02*
X535D01*
X522D02*
X534D01*
X521D02*
X522D01*
X521D02*
X521D01*
X343D02*
X343D01*
X342D02*
X342D01*
X338D02*
X341D01*
X337D02*
X338D01*
X535Y909D02*
X535D01*
X522D02*
X534D01*
X521D02*
X522D01*
X342D02*
X343D01*
X341D02*
X342D01*
X337D02*
X341D01*
X535Y909D02*
X535D01*
X523D02*
X534D01*
X522D02*
X523D01*
X522D02*
X522D01*
X521D02*
X522D01*
X342D02*
X343D01*
X341D02*
X342D01*
X338D02*
X341D01*
X337D02*
X337D01*
X535Y910D02*
X535D01*
X523D02*
X534D01*
X522D02*
X522D01*
X521D02*
X521D01*
X343D02*
X343D01*
X342D02*
X342D01*
X337D02*
X341D01*
X523Y910D02*
X535D01*
X522D02*
X523D01*
X521D02*
X522D01*
X521D02*
X521D01*
X343D02*
X343D01*
X341D02*
X342D01*
X337D02*
X341D01*
X524Y910D02*
X535D01*
X523D02*
X523D01*
X522D02*
X522D01*
X521D02*
X521D01*
X342D02*
X343D01*
X341D02*
X341D01*
X337D02*
X340D01*
X535Y910D02*
X535D01*
X524D02*
X534D01*
X523D02*
X524D01*
X341D02*
X341D01*
X337D02*
X340D01*
X336D02*
X337D01*
X336D02*
X336D01*
X524Y910D02*
X535D01*
X340D02*
X341D01*
X337D02*
X340D01*
X336D02*
X336D01*
X335D02*
X335D01*
X535Y911D02*
X535D01*
X524D02*
X535D01*
X523D02*
X524D01*
X340D02*
X341D01*
X337D02*
X340D01*
X336D02*
X336D01*
X335D02*
X335D01*
X535Y911D02*
X535D01*
X524D02*
X535D01*
X523D02*
X524D01*
X337D02*
X341D01*
X336D02*
X336D01*
X335D02*
X336D01*
X535Y911D02*
X535D01*
X524D02*
X535D01*
X524D02*
X524D01*
X523D02*
X523D01*
X340D02*
X341D01*
X336D02*
X340D01*
X335D02*
X336D01*
X535Y911D02*
X535D01*
X525D02*
X535D01*
X524D02*
X524D01*
X523D02*
X524D01*
X340D02*
X341D01*
X336D02*
X340D01*
X335D02*
X335D01*
X535Y912D02*
X535D01*
X525D02*
X535D01*
X523D02*
X524D01*
X340D02*
X340D01*
X336D02*
X340D01*
X336D02*
X336D01*
X335D02*
X336D01*
X535Y912D02*
X535D01*
X525D02*
X535D01*
X524D02*
X524D01*
X524D02*
X524D01*
X523D02*
X523D01*
X340D02*
X341D01*
X340D02*
X340D01*
X336D02*
X340D01*
X335D02*
X336D01*
X525Y912D02*
X535D01*
X524D02*
X524D01*
X523D02*
X523D01*
X341D02*
X341D01*
X340D02*
X340D01*
X336D02*
X340D01*
X335D02*
X336D01*
X525Y913D02*
X535D01*
X524D02*
X524D01*
X523D02*
X523D01*
X340D02*
X340D01*
X336D02*
X340D01*
X335D02*
X336D01*
X525Y913D02*
X535D01*
X524D02*
X525D01*
X340D02*
X341D01*
X340D02*
X340D01*
X336D02*
X339D01*
X335D02*
X335D01*
X524Y913D02*
X535D01*
X523D02*
X524D01*
X340D02*
X341D01*
X340D02*
X340D01*
X340D02*
X340D01*
X336D02*
X339D01*
X525Y913D02*
X535D01*
X525D02*
X525D01*
X523D02*
X524D01*
X340D02*
X341D01*
X340D02*
X340D01*
X336D02*
X339D01*
X335D02*
X336D01*
X525Y914D02*
X535D01*
X524D02*
X524D01*
X523D02*
X523D01*
X340D02*
X341D01*
X340D02*
X340D01*
X339D02*
X340D01*
X336D02*
X339D01*
X335D02*
X336D01*
X525Y914D02*
X535D01*
X524D02*
X525D01*
X523D02*
X523D01*
X341D02*
X341D01*
X340D02*
X340D01*
X339D02*
X340D01*
X336D02*
X339D01*
X335D02*
X336D01*
X525Y914D02*
X535D01*
X525D02*
X525D01*
X523D02*
X524D01*
X341D02*
X341D01*
X340D02*
X340D01*
X339D02*
X340D01*
X336D02*
X339D01*
X335D02*
X335D01*
X526Y914D02*
X535D01*
X335D02*
X339D01*
X526Y914D02*
X535D01*
X525D02*
X525D01*
X336D02*
X339D01*
X335D02*
X336D01*
X526Y915D02*
X535D01*
X525D02*
X526D01*
X525D02*
X525D01*
X335D02*
X339D01*
X525Y915D02*
X535D01*
X525D02*
X525D01*
X339D02*
X339D01*
X335D02*
X338D01*
X526Y915D02*
X535D01*
X525D02*
X525D01*
X335D02*
X339D01*
X526Y915D02*
X535D01*
X525D02*
X525D01*
X335D02*
X339D01*
X526Y916D02*
X535D01*
X526D02*
X526D01*
X525D02*
X525D01*
X335D02*
X339D01*
X526Y916D02*
X535D01*
X526D02*
X526D01*
X525D02*
X525D01*
X339D02*
X339D01*
X335D02*
X338D01*
X527Y916D02*
X535D01*
X526D02*
X526D01*
X339D02*
X339D01*
X335D02*
X338D01*
X527Y916D02*
X535D01*
X526D02*
X526D01*
X525D02*
X525D01*
X338D02*
X339D01*
X335D02*
X338D01*
X527Y917D02*
X535D01*
X526D02*
X526D01*
X525D02*
X526D01*
X338D02*
X339D01*
X335D02*
X338D01*
X527Y917D02*
X535D01*
X526D02*
X526D01*
X525D02*
X526D01*
X525D02*
X525D01*
X335D02*
X339D01*
X527Y917D02*
X535D01*
X526D02*
X527D01*
X525D02*
X526D01*
X525D02*
X525D01*
X335D02*
X338D01*
X527Y918D02*
X535D01*
X526D02*
X527D01*
X526D02*
X526D01*
X525D02*
X525D01*
X335D02*
X338D01*
X527Y918D02*
X535D01*
X526D02*
X527D01*
X526D02*
X526D01*
X338D02*
X339D01*
X335D02*
X338D01*
X527Y918D02*
X535D01*
X526D02*
X526D01*
X525D02*
X525D01*
X338D02*
X339D01*
X335D02*
X338D01*
X527Y918D02*
X535D01*
X335D02*
X339D01*
X527Y919D02*
X535D01*
X335D02*
X338D01*
X527Y919D02*
X535D01*
X335D02*
X338D01*
X527Y919D02*
X535D01*
X338D02*
X339D01*
X335D02*
X338D01*
X527Y919D02*
X535D01*
X338D02*
X339D01*
X335D02*
X338D01*
X528Y919D02*
X535D01*
X527D02*
X527D01*
X338D02*
X339D01*
X335D02*
X338D01*
X527Y920D02*
X535D01*
X338D02*
X339D01*
X335D02*
X338D01*
X527Y920D02*
X535D01*
X338D02*
X339D01*
X338D02*
X338D01*
X335D02*
X338D01*
X528Y920D02*
X535D01*
X527D02*
X527D01*
X339D02*
X339D01*
X335D02*
X338D01*
X528Y920D02*
X535D01*
X335D02*
X338D01*
X528Y921D02*
X535D01*
X527D02*
X528D01*
X338D02*
X338D01*
X335D02*
X338D01*
X528Y921D02*
X535D01*
X338D02*
X338D01*
X335D02*
X338D01*
X528Y921D02*
X535D01*
X527D02*
X527D01*
X338D02*
X338D01*
X335D02*
X338D01*
X528Y922D02*
X535D01*
X528D02*
X528D01*
X527D02*
X527D01*
X338D02*
X338D01*
X335D02*
X338D01*
X528Y922D02*
X535D01*
X528D02*
X528D01*
X527D02*
X527D01*
X335D02*
X338D01*
X528Y922D02*
X535D01*
X527D02*
X527D01*
X339D02*
X339D01*
X335D02*
X338D01*
X528Y922D02*
X535D01*
X527D02*
X527D01*
X339D02*
X339D01*
X338D02*
X338D01*
X335D02*
X338D01*
X528Y923D02*
X535D01*
X527D02*
X527D01*
X339D02*
X339D01*
X338D02*
X338D01*
X335D02*
X338D01*
X528Y923D02*
X535D01*
X528D02*
X528D01*
X527D02*
X527D01*
X338D02*
X338D01*
X335D02*
X338D01*
X529Y923D02*
X535D01*
X528D02*
X528D01*
X527D02*
X527D01*
X338D02*
X338D01*
X335D02*
X338D01*
X528Y923D02*
X535D01*
X528D02*
X528D01*
X338D02*
X338D01*
X335D02*
X338D01*
X528Y924D02*
X535D01*
X528D02*
X528D01*
X527D02*
X527D01*
X338D02*
X338D01*
X335D02*
X338D01*
X529Y924D02*
X535D01*
X528D02*
X528D01*
X527D02*
X527D01*
X339D02*
X339D01*
X338D02*
X338D01*
X335D02*
X338D01*
X529Y924D02*
X535D01*
X528D02*
X528D01*
X527D02*
X527D01*
X339D02*
X339D01*
X338D02*
X338D01*
X335D02*
X338D01*
X528Y924D02*
X535D01*
X527D02*
X528D01*
X338D02*
X339D01*
X335D02*
X338D01*
X529Y924D02*
X535D01*
X528D02*
X529D01*
X527D02*
X528D01*
X527D02*
X527D01*
X339D02*
X339D01*
X338D02*
X338D01*
X335D02*
X338D01*
X529Y925D02*
X535D01*
X528D02*
X529D01*
X527D02*
X528D01*
X527D02*
X527D01*
X339D02*
X339D01*
X338D02*
X338D01*
X335D02*
X338D01*
X529Y925D02*
X535D01*
X528D02*
X529D01*
X527D02*
X528D01*
X339D02*
X339D01*
X335D02*
X338D01*
X529Y925D02*
X535D01*
X528D02*
X528D01*
X527D02*
X528D01*
X339D02*
X339D01*
X335D02*
X338D01*
X529Y925D02*
X535D01*
X528D02*
X528D01*
X527D02*
X528D01*
X339D02*
X339D01*
X335D02*
X338D01*
X529Y926D02*
X535D01*
X528D02*
X528D01*
X527D02*
X527D01*
X335D02*
X338D01*
X529Y926D02*
X535D01*
X528D02*
X528D01*
X527D02*
X527D01*
X335D02*
X338D01*
X535Y926D02*
X535D01*
X529D02*
X534D01*
X338D02*
X339D01*
X336D02*
X338D01*
X335D02*
X335D01*
X535Y927D02*
X535D01*
X529D02*
X534D01*
X336D02*
X339D01*
X335D02*
X335D01*
X535Y927D02*
X535D01*
X529D02*
X534D01*
X336D02*
X339D01*
X335D02*
X335D01*
X535Y927D02*
X535D01*
X529D02*
X534D01*
X336D02*
X339D01*
X529Y927D02*
X534D01*
X339D02*
X339D01*
X335D02*
X338D01*
X534Y928D02*
X535D01*
X529D02*
X534D01*
X335D02*
X338D01*
X535Y928D02*
X535D01*
X529D02*
X534D01*
X336D02*
X339D01*
X335D02*
X336D01*
X535Y928D02*
X535D01*
X529D02*
X534D01*
X335D02*
X339D01*
X529Y928D02*
X535D01*
X340D02*
X341D01*
X340D02*
X340D01*
X336D02*
X339D01*
X335D02*
X336D01*
X535Y928D02*
X535D01*
X534D02*
X535D01*
X529D02*
X534D01*
X340D02*
X340D01*
X336D02*
X340D01*
X335D02*
X336D01*
X535Y929D02*
X535D01*
X534D02*
X535D01*
X529D02*
X534D01*
X341D02*
X341D01*
X340D02*
X340D01*
X339D02*
X340D01*
X336D02*
X339D01*
X335D02*
X336D01*
X535Y929D02*
X535D01*
X534D02*
X535D01*
X529D02*
X534D01*
X341D02*
X341D01*
X340D02*
X340D01*
X339D02*
X340D01*
X336D02*
X339D01*
X336D02*
X336D01*
X335D02*
X335D01*
X535Y929D02*
X535D01*
X534D02*
X534D01*
X529D02*
X534D01*
X341D02*
X341D01*
X340D02*
X340D01*
X340D02*
X340D01*
X336D02*
X339D01*
X335D02*
X335D01*
X534Y929D02*
X534D01*
X529D02*
X534D01*
X340D02*
X341D01*
X340D02*
X340D01*
X336D02*
X339D01*
X534Y930D02*
X534D01*
X529D02*
X534D01*
X340D02*
X341D01*
X340D02*
X340D01*
X336D02*
X339D01*
X336D02*
X336D01*
X335D02*
X336D01*
X535Y930D02*
X535D01*
X534D02*
X534D01*
X529D02*
X533D01*
X340D02*
X341D01*
X340D02*
X340D01*
X340D02*
X340D01*
X336D02*
X339D01*
X336D02*
X336D01*
X335D02*
X336D01*
X535Y930D02*
X535D01*
X534D02*
X534D01*
X529D02*
X534D01*
X340D02*
X341D01*
X340D02*
X340D01*
X336D02*
X340D01*
X336D02*
X336D01*
X335D02*
X335D01*
X535Y930D02*
X535D01*
X534D02*
X534D01*
X529D02*
X534D01*
X341D02*
X341D01*
X340D02*
X340D01*
X336D02*
X340D01*
X535Y931D02*
X535D01*
X534D02*
X534D01*
X529D02*
X533D01*
X341D02*
X341D01*
X336D02*
X340D01*
X336D02*
X336D01*
X535Y931D02*
X535D01*
X534D02*
X534D01*
X529D02*
X533D01*
X341D02*
X341D01*
X340D02*
X340D01*
X336D02*
X340D01*
X336D02*
X336D01*
X335D02*
X335D01*
X535Y931D02*
X535D01*
X534D02*
X534D01*
X529D02*
X533D01*
X341D02*
X341D01*
X340D02*
X340D01*
X336D02*
X340D01*
X336D02*
X336D01*
X535Y932D02*
X535D01*
X529D02*
X534D01*
X340D02*
X341D01*
X336D02*
X340D01*
X336D02*
X336D01*
X335D02*
X336D01*
X533Y932D02*
X534D01*
X529D02*
X533D01*
X340D02*
X341D01*
X337D02*
X340D01*
X336D02*
X336D01*
X335D02*
X336D01*
X534Y932D02*
X535D01*
X529D02*
X533D01*
X341D02*
X341D01*
X337D02*
X340D01*
X336D02*
X336D01*
X335D02*
X336D01*
X533Y932D02*
X533D01*
X529D02*
X533D01*
X528D02*
X529D01*
X527D02*
X528D01*
X341D02*
X342D01*
X337D02*
X340D01*
X529Y933D02*
X533D01*
X527D02*
X528D01*
X527D02*
X527D01*
X342D02*
X343D01*
X337D02*
X341D01*
X529Y933D02*
X533D01*
X528D02*
X529D01*
X527D02*
X528D01*
X527D02*
X527D01*
X342D02*
X343D01*
X341D02*
X341D01*
X337D02*
X340D01*
X533Y933D02*
X533D01*
X529D02*
X532D01*
X528D02*
X529D01*
X528D02*
X528D01*
X337D02*
X342D01*
X529Y933D02*
X532D01*
X528D02*
X529D01*
X528D02*
X528D01*
X343D02*
X343D01*
X342D02*
X342D01*
X338D02*
X341D01*
X529Y933D02*
X533D01*
X528D02*
X528D01*
X527D02*
X527D01*
X343D02*
X343D01*
X342D02*
X342D01*
X338D02*
X341D01*
X337D02*
X337D01*
X533Y934D02*
X533D01*
X529D02*
X532D01*
X528D02*
X528D01*
X527D02*
X527D01*
X343D02*
X343D01*
X342D02*
X342D01*
X338D02*
X342D01*
X337D02*
X338D01*
X533Y934D02*
X533D01*
X529D02*
X532D01*
X528D02*
X528D01*
X527D02*
X527D01*
X342D02*
X343D01*
X337D02*
X342D01*
X532Y934D02*
X533D01*
X529D02*
X532D01*
X528D02*
X529D01*
X527D02*
X527D01*
X342D02*
X343D01*
X342D02*
X342D01*
X338D02*
X341D01*
X337D02*
X337D01*
X532Y934D02*
X533D01*
X528D02*
X532D01*
X527D02*
X527D01*
X343D02*
X343D01*
X342D02*
X342D01*
X338D02*
X342D01*
X337D02*
X338D01*
X532Y935D02*
X533D01*
X529D02*
X531D01*
X527D02*
X528D01*
X343D02*
X343D01*
X342D02*
X343D01*
X338D02*
X342D01*
X338D02*
X338D01*
X337D02*
X338D01*
X533Y935D02*
X533D01*
X532D02*
X532D01*
X529D02*
X531D01*
X528D02*
X528D01*
X343D02*
X343D01*
X338D02*
X342D01*
X533Y935D02*
X533D01*
X532D02*
X532D01*
X528D02*
X531D01*
X527D02*
X527D01*
X343D02*
X343D01*
X338D02*
X342D01*
X338D02*
X338D01*
X533Y936D02*
X533D01*
X529D02*
X532D01*
X528D02*
X528D01*
X527D02*
X527D01*
X342D02*
X343D01*
X339D02*
X342D01*
X338D02*
X338D01*
X337D02*
X338D01*
X533Y936D02*
X533D01*
X532D02*
X532D01*
X529D02*
X532D01*
X528D02*
X528D01*
X527D02*
X527D01*
X339D02*
X343D01*
X338D02*
X338D01*
X337D02*
X338D01*
X533Y936D02*
X533D01*
X532D02*
X532D01*
X529D02*
X532D01*
X528D02*
X528D01*
X527D02*
X528D01*
X343D02*
X343D01*
X338D02*
X343D01*
X338D02*
X338D01*
X337D02*
X337D01*
X533Y936D02*
X533D01*
X532D02*
X533D01*
X531D02*
X532D01*
X528D02*
X531D01*
X528D02*
X528D01*
X345D02*
X345D01*
X343D02*
X343D01*
X339D02*
X343D01*
X532Y937D02*
X533D01*
X528D02*
X531D01*
X527D02*
X527D01*
X345D02*
X345D01*
X344D02*
X345D01*
X343D02*
X343D01*
X339D02*
X343D01*
X533Y937D02*
X533D01*
X531D02*
X532D01*
X528D02*
X531D01*
X527D02*
X527D01*
X344D02*
X345D01*
X343D02*
X344D01*
X339D02*
X343D01*
X533Y937D02*
X533D01*
X532D02*
X532D01*
X528D02*
X532D01*
X527D02*
X527D01*
X345D02*
X345D01*
X344D02*
X344D01*
X340D02*
X343D01*
X339D02*
X339D01*
X533Y937D02*
X533D01*
X532D02*
X532D01*
X528D02*
X531D01*
X527D02*
X528D01*
X527D02*
X527D01*
X344D02*
X345D01*
X343D02*
X344D01*
X340D02*
X343D01*
X533Y938D02*
X533D01*
X532D02*
X532D01*
X531D02*
X531D01*
X528D02*
X531D01*
X527D02*
X527D01*
X345D02*
X345D01*
X344D02*
X344D01*
X340D02*
X343D01*
X340D02*
X340D01*
X532Y938D02*
X533D01*
X528D02*
X532D01*
X345D02*
X345D01*
X340D02*
X344D01*
X339D02*
X340D01*
X533Y938D02*
X533D01*
X532D02*
X533D01*
X528D02*
X531D01*
X527D02*
X528D01*
X344D02*
X345D01*
X340D02*
X344D01*
X528Y938D02*
X531D01*
X527D02*
X527D01*
X347D02*
X347D01*
X346D02*
X346D01*
X345D02*
X346D01*
X340D02*
X345D01*
X339D02*
X340D01*
X528Y938D02*
X531D01*
X527D02*
X527D01*
X346D02*
X347D01*
X346D02*
X346D01*
X345D02*
X345D01*
X345D02*
X345D01*
X340D02*
X345D01*
X340D02*
X340D01*
X339D02*
X339D01*
X527Y939D02*
X531D01*
X527D02*
X527D01*
X347D02*
X347D01*
X346D02*
X346D01*
X345D02*
X346D01*
X345D02*
X345D01*
X341D02*
X345D01*
X340D02*
X340D01*
X339D02*
X340D01*
X527Y939D02*
X531D01*
X527D02*
X527D01*
X347D02*
X347D01*
X346D02*
X347D01*
X345D02*
X346D01*
X341D02*
X345D01*
X340D02*
X341D01*
X340D02*
X340D01*
X339D02*
X339D01*
X527Y939D02*
X531D01*
X527D02*
X527D01*
X347D02*
X347D01*
X346D02*
X346D01*
X341D02*
X345D01*
X340D02*
X340D01*
X340D02*
X340D01*
X527Y939D02*
X531D01*
X346D02*
X347D01*
X341D02*
X345D01*
X340D02*
X340D01*
X339D02*
X340D01*
X527Y940D02*
X531D01*
X347D02*
X347D01*
X341D02*
X346D01*
X340D02*
X341D01*
X340D02*
X340D01*
X339D02*
X339D01*
X531Y940D02*
X531D01*
X527D02*
X530D01*
X347D02*
X347D01*
X346D02*
X347D01*
X342D02*
X346D01*
X341D02*
X342D01*
X341D02*
X341D01*
X340D02*
X340D01*
X531Y940D02*
X531D01*
X527D02*
X530D01*
X527D02*
X527D01*
X526D02*
X526D01*
X525D02*
X526D01*
X349D02*
X349D01*
X348D02*
X349D01*
X347D02*
X348D01*
X347D02*
X347D01*
X342D02*
X346D01*
X342D02*
X342D01*
X341D02*
X341D01*
X531Y941D02*
X531D01*
X526D02*
X530D01*
X525D02*
X525D01*
X348D02*
X348D01*
X347D02*
X347D01*
X342D02*
X346D01*
X531Y941D02*
X531D01*
X527D02*
X530D01*
X526D02*
X526D01*
X525D02*
X525D01*
X348D02*
X349D01*
X347D02*
X348D01*
X342D02*
X347D01*
X342D02*
X342D01*
X341D02*
X341D01*
X530Y941D02*
X531D01*
X526D02*
X530D01*
X525D02*
X526D01*
X349D02*
X349D01*
X348D02*
X348D01*
X347D02*
X348D01*
X343D02*
X347D01*
X342D02*
X343D01*
X342D02*
X342D01*
X341D02*
X341D01*
X526Y941D02*
X531D01*
X525D02*
X525D01*
X348D02*
X349D01*
X343D02*
X348D01*
X342D02*
X343D01*
X342D02*
X342D01*
X341D02*
X342D01*
X530Y942D02*
X531D01*
X527D02*
X530D01*
X526D02*
X526D01*
X525D02*
X525D01*
X349D02*
X349D01*
X348D02*
X348D01*
X343D02*
X347D01*
X343D02*
X343D01*
X342D02*
X342D01*
X342D02*
X342D01*
X531Y942D02*
X531D01*
X527D02*
X530D01*
X526D02*
X526D01*
X525D02*
X525D01*
X348D02*
X349D01*
X343D02*
X348D01*
X343D02*
X343D01*
X342D02*
X342D01*
X342D02*
X342D01*
X341D02*
X341D01*
X531Y942D02*
X531D01*
X530D02*
X530D01*
X526D02*
X530D01*
X526D02*
X526D01*
X525D02*
X525D01*
X349D02*
X349D01*
X343D02*
X348D01*
X343D02*
X343D01*
X342D02*
X343D01*
X342D02*
X342D01*
X530Y942D02*
X531D01*
X527D02*
X530D01*
X526D02*
X526D01*
X526D02*
X526D01*
X525D02*
X525D01*
X351D02*
X351D01*
X350D02*
X350D01*
X349D02*
X350D01*
X344D02*
X349D01*
X343D02*
X343D01*
X531Y942D02*
X531D01*
X530D02*
X530D01*
X526D02*
X530D01*
X525D02*
X526D01*
X350D02*
X351D01*
X350D02*
X350D01*
X344D02*
X349D01*
X343D02*
X344D01*
X531Y943D02*
X531D01*
X530D02*
X530D01*
X526D02*
X530D01*
X526D02*
X526D01*
X525D02*
X526D01*
X525D02*
X525D01*
X350D02*
X351D01*
X350D02*
X350D01*
X344D02*
X350D01*
X343D02*
X343D01*
X530Y943D02*
X530D01*
X530D02*
X530D01*
X526D02*
X530D01*
X526D02*
X526D01*
X525D02*
X525D01*
X350D02*
X351D01*
X345D02*
X350D01*
X344D02*
X344D01*
X343D02*
X343D01*
X530Y943D02*
X531D01*
X526D02*
X530D01*
X525D02*
X525D01*
X351D02*
X351D01*
X345D02*
X350D01*
X344D02*
X345D01*
X530Y943D02*
X531D01*
X530D02*
X530D01*
X526D02*
X529D01*
X525D02*
X526D01*
X350D02*
X351D01*
X345D02*
X350D01*
X344D02*
X344D01*
X343D02*
X343D01*
X530Y944D02*
X530D01*
X525D02*
X529D01*
X525D02*
X525D01*
X345D02*
X351D01*
X345D02*
X345D01*
X343D02*
X344D01*
X530Y944D02*
X531D01*
X526D02*
X530D01*
X525D02*
X525D01*
X346D02*
X351D01*
X345D02*
X345D01*
X345D02*
X345D01*
X344D02*
X345D01*
X343D02*
X343D01*
X526Y944D02*
X529D01*
X525D02*
X525D01*
X357D02*
X357D01*
X356D02*
X356D01*
X355D02*
X355D01*
X354D02*
X355D01*
X354D02*
X354D01*
X353D02*
X354D01*
X352D02*
X353D01*
X352D02*
X352D01*
X346D02*
X352D01*
X345D02*
X346D01*
X345D02*
X345D01*
X525Y945D02*
X529D01*
X354D02*
X356D01*
X354D02*
X354D01*
X353D02*
X353D01*
X347D02*
X352D01*
X346D02*
X346D01*
X345D02*
X345D01*
X525Y945D02*
X529D01*
X356D02*
X356D01*
X355D02*
X355D01*
X353D02*
X354D01*
X347D02*
X352D01*
X346D02*
X346D01*
X345D02*
X345D01*
X525Y945D02*
X529D01*
X356D02*
X357D01*
X355D02*
X355D01*
X354D02*
X354D01*
X347D02*
X353D01*
X346D02*
X347D01*
X345D02*
X345D01*
X529Y945D02*
X529D01*
X525D02*
X529D01*
X356D02*
X357D01*
X355D02*
X356D01*
X354D02*
X355D01*
X347D02*
X354D01*
X347D02*
X347D01*
X346D02*
X346D01*
X345D02*
X345D01*
X529Y946D02*
X529D01*
X525D02*
X529D01*
X357D02*
X357D01*
X356D02*
X356D01*
X348D02*
X354D01*
X347D02*
X347D01*
X346D02*
X347D01*
X345D02*
X346D01*
X529Y946D02*
X529D01*
X525D02*
X528D01*
X357D02*
X357D01*
X356D02*
X356D01*
X355D02*
X355D01*
X348D02*
X355D01*
X347D02*
X348D01*
X347D02*
X347D01*
X345D02*
X345D01*
X525Y946D02*
X529D01*
X357D02*
X357D01*
X356D02*
X356D01*
X349D02*
X356D01*
X348D02*
X348D01*
X347D02*
X347D01*
X346D02*
X347D01*
X345D02*
X346D01*
X529Y946D02*
X529D01*
X525D02*
X529D01*
X525D02*
X525D01*
X524D02*
X524D01*
X523D02*
X524D01*
X375D02*
X375D01*
X374D02*
X375D01*
X373D02*
X373D01*
X373D02*
X373D01*
X371D02*
X372D01*
X370D02*
X371D01*
X367D02*
X368D01*
X361D02*
X363D01*
X359D02*
X360D01*
X357D02*
X357D01*
X356D02*
X357D01*
X349D02*
X356D01*
X529Y947D02*
X529D01*
X525D02*
X528D01*
X524D02*
X525D01*
X524D02*
X524D01*
X373D02*
X374D01*
X372D02*
X373D01*
X369D02*
X370D01*
X366D02*
X367D01*
X365D02*
X365D01*
X364D02*
X364D01*
X363D02*
X363D01*
X360D02*
X361D01*
X359D02*
X359D01*
X357D02*
X358D01*
X350D02*
X357D01*
X528Y947D02*
X529D01*
X525D02*
X528D01*
X524D02*
X524D01*
X375D02*
X375D01*
X374D02*
X374D01*
X373D02*
X373D01*
X373D02*
X373D01*
X372D02*
X372D01*
X371D02*
X371D01*
X370D02*
X371D01*
X368D02*
X370D01*
X364D02*
X366D01*
X361D02*
X363D01*
X359D02*
X361D01*
X358D02*
X359D01*
X349D02*
X358D01*
X529Y947D02*
X529D01*
X528D02*
X528D01*
X525D02*
X528D01*
X524D02*
X524D01*
X523D02*
X524D01*
X375D02*
X375D01*
X374D02*
X374D01*
X373D02*
X373D01*
X371D02*
X373D01*
X370D02*
X370D01*
X366D02*
X368D01*
X363D02*
X364D01*
X361D02*
X361D01*
X359D02*
X359D01*
X350D02*
X359D01*
X350D02*
X350D01*
X529Y947D02*
X529D01*
X524D02*
X528D01*
X524D02*
X524D01*
X374D02*
X374D01*
X368D02*
X373D01*
X364D02*
X366D01*
X362D02*
X363D01*
X360D02*
X361D01*
X351D02*
X360D01*
X350D02*
X350D01*
X349D02*
X350D01*
X529Y947D02*
X529D01*
X524D02*
X527D01*
X524D02*
X524D01*
X523D02*
X523D01*
X374D02*
X375D01*
X373D02*
X374D01*
X368D02*
X373D01*
X366D02*
X368D01*
X363D02*
X363D01*
X351D02*
X362D01*
X350D02*
X351D01*
X349D02*
X350D01*
X529Y948D02*
X529D01*
X527D02*
X528D01*
X524D02*
X527D01*
X523D02*
X523D01*
X375D02*
X375D01*
X374D02*
X375D01*
X373D02*
X374D01*
X352D02*
X373D01*
X351D02*
X351D01*
X350D02*
X350D01*
X349D02*
X350D01*
X529Y948D02*
X529D01*
X528D02*
X529D01*
X524D02*
X528D01*
X523D02*
X524D01*
X375D02*
X375D01*
X374D02*
X375D01*
X352D02*
X373D01*
X352D02*
X352D01*
X351D02*
X351D01*
X350D02*
X350D01*
X349D02*
X350D01*
X524Y948D02*
X527D01*
X522D02*
X523D01*
X521D02*
X521D01*
X375D02*
X375D01*
X374D02*
X375D01*
X373D02*
X374D01*
X353D02*
X373D01*
X523Y948D02*
X527D01*
X522D02*
X522D01*
X521D02*
X521D01*
X374D02*
X375D01*
X354D02*
X374D01*
X353D02*
X353D01*
X523Y949D02*
X527D01*
X521D02*
X522D01*
X374D02*
X375D01*
X354D02*
X374D01*
X353D02*
X353D01*
X523Y949D02*
X527D01*
X522D02*
X523D01*
X521D02*
X522D01*
X521D02*
X521D01*
X375D02*
X375D01*
X374D02*
X374D01*
X355D02*
X373D01*
X354D02*
X354D01*
X523Y949D02*
X526D01*
X522D02*
X522D01*
X521D02*
X522D01*
X521D02*
X521D01*
X375D02*
X375D01*
X374D02*
X374D01*
X356D02*
X373D01*
X355D02*
X356D01*
X354D02*
X355D01*
X523Y950D02*
X527D01*
X522D02*
X522D01*
X521D02*
X522D01*
X521D02*
X521D01*
X375D02*
X375D01*
X374D02*
X375D01*
X356D02*
X373D01*
X356D02*
X356D01*
X355D02*
X355D01*
X353D02*
X354D01*
X527Y950D02*
X527D01*
X522D02*
X526D01*
X521D02*
X522D01*
X375D02*
X375D01*
X374D02*
X375D01*
X357D02*
X374D01*
X355D02*
X357D01*
X355D02*
X355D01*
X354D02*
X354D01*
X526Y950D02*
X527D01*
X522D02*
X526D01*
X521D02*
X522D01*
X375D02*
X375D01*
X359D02*
X374D01*
X358D02*
X358D01*
X357D02*
X357D01*
X356D02*
X356D01*
X355D02*
X356D01*
X354D02*
X354D01*
X353D02*
X354D01*
X526Y950D02*
X527D01*
X522D02*
X526D01*
X522D02*
X522D01*
X521D02*
X521D01*
X375D02*
X375D01*
X374D02*
X374D01*
X370D02*
X374D01*
X370D02*
X370D01*
X360D02*
X370D01*
X359D02*
X359D01*
X526Y951D02*
X527D01*
X522D02*
X526D01*
X521D02*
X522D01*
X375D02*
X375D01*
X371D02*
X374D01*
X370D02*
X370D01*
X369D02*
X369D01*
X361D02*
X368D01*
X361D02*
X361D01*
X359D02*
X360D01*
X527Y951D02*
X527D01*
X526D02*
X526D01*
X522D02*
X526D01*
X521D02*
X521D01*
X375D02*
X375D01*
X371D02*
X374D01*
X370D02*
X370D01*
X368D02*
X369D01*
X363D02*
X366D01*
X362D02*
X363D01*
X361D02*
X362D01*
X359D02*
X360D01*
X526Y951D02*
X527D01*
X522D02*
X526D01*
X370D02*
X375D01*
X369D02*
X370D01*
X366D02*
X368D01*
X363D02*
X364D01*
X362D02*
X363D01*
X360D02*
X361D01*
X359D02*
X359D01*
X526Y951D02*
X527D01*
X526D02*
X526D01*
X521D02*
X525D01*
X371D02*
X375D01*
X370D02*
X371D01*
X370D02*
X370D01*
X368D02*
X369D01*
X367D02*
X368D01*
X364D02*
X366D01*
X362D02*
X363D01*
X361D02*
X361D01*
X359D02*
X360D01*
X527Y951D02*
X527D01*
X526D02*
X526D01*
X521D02*
X526D01*
X375D02*
X375D01*
X371D02*
X374D01*
X370D02*
X370D01*
X369D02*
X370D01*
X368D02*
X368D01*
X366D02*
X367D01*
X363D02*
X364D01*
X361D02*
X362D01*
X359D02*
X361D01*
X527Y952D02*
X527D01*
X526D02*
X526D01*
X525D02*
X526D01*
X521D02*
X525D01*
X375D02*
X375D01*
X370D02*
X374D01*
X370D02*
X370D01*
X369D02*
X370D01*
X368D02*
X369D01*
X367D02*
X368D01*
X364D02*
X365D01*
X363D02*
X363D01*
X361D02*
X361D01*
X359D02*
X359D01*
X526Y952D02*
X526D01*
X525D02*
X525D01*
X521D02*
X525D01*
X371D02*
X375D01*
X370D02*
X370D01*
X369D02*
X370D01*
X368D02*
X368D01*
X365D02*
X367D01*
X365D02*
X365D01*
X363D02*
X363D01*
X361D02*
X362D01*
X360D02*
X361D01*
X359D02*
X359D01*
X521Y952D02*
X525D01*
X520D02*
X520D01*
X519D02*
X519D01*
X375D02*
X375D01*
X371D02*
X374D01*
X525Y952D02*
X525D01*
X520D02*
X525D01*
X371D02*
X375D01*
X525Y953D02*
X525D01*
X520D02*
X525D01*
X519D02*
X520D01*
X371D02*
X375D01*
X525Y953D02*
X525D01*
X520D02*
X524D01*
X519D02*
X520D01*
X371D02*
X375D01*
X525Y953D02*
X525D01*
X524D02*
X525D01*
X520D02*
X524D01*
X519D02*
X519D01*
X371D02*
X375D01*
X524Y953D02*
X524D01*
X519D02*
X524D01*
X372D02*
X375D01*
X371D02*
X371D01*
X525Y954D02*
X525D01*
X524D02*
X524D01*
X519D02*
X523D01*
X371D02*
X375D01*
X525Y954D02*
X525D01*
X524D02*
X525D01*
X523D02*
X524D01*
X519D02*
X523D01*
X371D02*
X375D01*
X518Y954D02*
X523D01*
X517D02*
X518D01*
X517D02*
X517D01*
X516D02*
X517D01*
X377D02*
X377D01*
X376D02*
X376D01*
X375D02*
X375D01*
X371D02*
X375D01*
X371D02*
X371D01*
X518Y955D02*
X523D01*
X518D02*
X518D01*
X517D02*
X517D01*
X515D02*
X516D01*
X375D02*
X377D01*
X372D02*
X375D01*
X371D02*
X372D01*
X518Y955D02*
X523D01*
X517D02*
X518D01*
X515D02*
X516D01*
X377D02*
X377D01*
X376D02*
X377D01*
X375D02*
X376D01*
X372D02*
X375D01*
X371D02*
X372D01*
X522Y955D02*
X523D01*
X518D02*
X522D01*
X517D02*
X517D01*
X516D02*
X517D01*
X376D02*
X377D01*
X372D02*
X375D01*
X372D02*
X372D01*
X371D02*
X371D01*
X522Y955D02*
X523D01*
X517D02*
X522D01*
X516D02*
X516D01*
X515D02*
X515D01*
X377D02*
X377D01*
X372D02*
X375D01*
X371D02*
X371D01*
X523Y956D02*
X523D01*
X522D02*
X522D01*
X517D02*
X522D01*
X517D02*
X517D01*
X516D02*
X516D01*
X515D02*
X515D01*
X377D02*
X377D01*
X376D02*
X376D01*
X373D02*
X376D01*
X372D02*
X372D01*
X371D02*
X372D01*
X516Y956D02*
X522D01*
X377D02*
X377D01*
X376D02*
X376D01*
X372D02*
X376D01*
X371D02*
X372D01*
X371D02*
X371D01*
X522Y956D02*
X523D01*
X522D02*
X522D01*
X516D02*
X521D01*
X516D02*
X516D01*
X377D02*
X377D01*
X373D02*
X376D01*
X372D02*
X372D01*
X371D02*
X372D01*
X516Y956D02*
X521D01*
X516D02*
X516D01*
X516D02*
X516D01*
X515D02*
X515D01*
X513D02*
X514D01*
X377D02*
X377D01*
X376D02*
X377D01*
X373D02*
X376D01*
X372D02*
X372D01*
X371D02*
X371D01*
X516Y956D02*
X521D01*
X516D02*
X516D01*
X515D02*
X516D01*
X514D02*
X514D01*
X513D02*
X513D01*
X373D02*
X377D01*
X372D02*
X372D01*
X371D02*
X371D01*
X515Y957D02*
X521D01*
X514D02*
X515D01*
X513D02*
X514D01*
X513D02*
X513D01*
X373D02*
X376D01*
X372D02*
X373D01*
X371D02*
X371D01*
X521Y957D02*
X521D01*
X516D02*
X520D01*
X515D02*
X515D01*
X514D02*
X514D01*
X513D02*
X513D01*
X372D02*
X377D01*
X371D02*
X372D01*
X521Y957D02*
X521D01*
X520D02*
X521D01*
X515D02*
X520D01*
X514D02*
X514D01*
X513D02*
X513D01*
X373D02*
X377D01*
X373D02*
X373D01*
X371D02*
X372D01*
X521Y957D02*
X521D01*
X520D02*
X521D01*
X515D02*
X520D01*
X514D02*
X515D01*
X513D02*
X514D01*
X373D02*
X377D01*
X372D02*
X372D01*
X371D02*
X371D01*
X520Y958D02*
X520D01*
X514D02*
X520D01*
X514D02*
X514D01*
X373D02*
X377D01*
X372D02*
X373D01*
X371D02*
X371D01*
X520Y958D02*
X521D01*
X520D02*
X520D01*
X514D02*
X519D01*
X513D02*
X513D01*
X373D02*
X377D01*
X371D02*
X372D01*
X513Y958D02*
X519D01*
X513D02*
X513D01*
X512D02*
X512D01*
X511D02*
X512D01*
X511D02*
X511D01*
X509D02*
X510D01*
X379D02*
X379D01*
X378D02*
X379D01*
X377D02*
X378D01*
X373D02*
X377D01*
X513Y959D02*
X519D01*
X512D02*
X512D01*
X511D02*
X511D01*
X510D02*
X511D01*
X509D02*
X509D01*
X379D02*
X379D01*
X378D02*
X378D01*
X373D02*
X377D01*
X373D02*
X373D01*
X512Y959D02*
X518D01*
X512D02*
X512D01*
X511D02*
X512D01*
X511D02*
X511D01*
X509D02*
X510D01*
X379D02*
X379D01*
X378D02*
X378D01*
X374D02*
X378D01*
X373D02*
X373D01*
X519Y959D02*
X519D01*
X518D02*
X518D01*
X512D02*
X518D01*
X512D02*
X512D01*
X510D02*
X511D01*
X379D02*
X379D01*
X374D02*
X377D01*
X373D02*
X374D01*
X518Y959D02*
X519D01*
X518D02*
X518D01*
X512D02*
X517D01*
X511D02*
X511D01*
X509D02*
X510D01*
X378D02*
X379D01*
X374D02*
X378D01*
X373D02*
X373D01*
X518Y960D02*
X518D01*
X517D02*
X518D01*
X511D02*
X517D01*
X510D02*
X511D01*
X509D02*
X510D01*
X379D02*
X379D01*
X378D02*
X379D01*
X375D02*
X378D01*
X374D02*
X374D01*
X373D02*
X373D01*
X519Y960D02*
X519D01*
X518D02*
X518D01*
X517D02*
X517D01*
X511D02*
X517D01*
X510D02*
X510D01*
X509D02*
X509D01*
X379D02*
X379D01*
X374D02*
X378D01*
X373D02*
X374D01*
X518Y960D02*
X519D01*
X518D02*
X518D01*
X510D02*
X517D01*
X509D02*
X510D01*
X375D02*
X379D01*
X374D02*
X374D01*
X373D02*
X373D01*
X517Y960D02*
X517D01*
X509D02*
X516D01*
X508D02*
X508D01*
X507D02*
X507D01*
X506D02*
X507D01*
X505D02*
X506D01*
X503D02*
X504D01*
X502D02*
X503D01*
X501D02*
X501D01*
X380D02*
X381D01*
X380D02*
X380D01*
X379D02*
X379D01*
X374D02*
X379D01*
X373D02*
X373D01*
X516Y961D02*
X517D01*
X516D02*
X516D01*
X508D02*
X516D01*
X507D02*
X508D01*
X506D02*
X506D01*
X504D02*
X505D01*
X503D02*
X503D01*
X501D02*
X502D01*
X381D02*
X381D01*
X380D02*
X380D01*
X379D02*
X380D01*
X374D02*
X379D01*
X373D02*
X373D01*
X516Y961D02*
X517D01*
X516D02*
X516D01*
X507D02*
X515D01*
X507D02*
X507D01*
X506D02*
X506D01*
X505D02*
X505D01*
X503D02*
X504D01*
X502D02*
X502D01*
X501D02*
X502D01*
X380D02*
X381D01*
X379D02*
X380D01*
X375D02*
X379D01*
X373D02*
X373D01*
X517Y961D02*
X517D01*
X516D02*
X516D01*
X515D02*
X516D01*
X515D02*
X515D01*
X507D02*
X515D01*
X506D02*
X506D01*
X501D02*
X502D01*
X380D02*
X380D01*
X379D02*
X379D01*
X375D02*
X379D01*
X373D02*
X373D01*
X516Y961D02*
X517D01*
X515D02*
X515D01*
X514D02*
X515D01*
X505D02*
X514D01*
X505D02*
X505D01*
X503D02*
X504D01*
X502D02*
X503D01*
X502D02*
X502D01*
X501D02*
X501D01*
X381D02*
X381D01*
X380D02*
X380D01*
X379D02*
X380D01*
X375D02*
X379D01*
X375D02*
X375D01*
X516Y961D02*
X517D01*
X516D02*
X516D01*
X515D02*
X515D01*
X503D02*
X514D01*
X502D02*
X503D01*
X501D02*
X502D01*
X380D02*
X381D01*
X375D02*
X380D01*
X517Y962D02*
X517D01*
X516D02*
X516D01*
X515D02*
X516D01*
X515D02*
X515D01*
X514D02*
X514D01*
X502D02*
X513D01*
X501D02*
X502D01*
X380D02*
X381D01*
X380D02*
X380D01*
X376D02*
X380D01*
X375D02*
X375D01*
X516Y962D02*
X517D01*
X515D02*
X516D01*
X515D02*
X515D01*
X513D02*
X514D01*
X502D02*
X513D01*
X501D02*
X501D01*
X380D02*
X381D01*
X376D02*
X380D01*
X375D02*
X376D01*
X374D02*
X375D01*
X512Y962D02*
X513D01*
X501D02*
X512D01*
X383D02*
X383D01*
X380D02*
X381D01*
X376D02*
X380D01*
X375D02*
X375D01*
X513Y962D02*
X513D01*
X512D02*
X512D01*
X501D02*
X512D01*
X381D02*
X382D01*
X381D02*
X381D01*
X380D02*
X380D01*
X376D02*
X380D01*
X375D02*
X376D01*
X512Y963D02*
X513D01*
X511D02*
X511D01*
X501D02*
X511D01*
X381D02*
X382D01*
X380D02*
X380D01*
X376D02*
X380D01*
X376D02*
X376D01*
X375D02*
X375D01*
X512Y963D02*
X513D01*
X511D02*
X512D01*
X501D02*
X511D01*
X382D02*
X382D01*
X380D02*
X381D01*
X376D02*
X380D01*
X512Y963D02*
X512D01*
X511D02*
X511D01*
X510D02*
X510D01*
X501D02*
X510D01*
X382D02*
X382D01*
X381D02*
X381D01*
X377D02*
X380D01*
X376D02*
X376D01*
X375D02*
X376D01*
X512Y964D02*
X513D01*
X511D02*
X512D01*
X509D02*
X511D01*
X501D02*
X509D01*
X382D02*
X383D01*
X381D02*
X381D01*
X377D02*
X381D01*
X375D02*
X376D01*
X375D02*
X375D01*
X512Y964D02*
X512D01*
X510D02*
X511D01*
X509D02*
X509D01*
X508D02*
X508D01*
X501D02*
X508D01*
X382D02*
X383D01*
X377D02*
X382D01*
X376D02*
X377D01*
X376D02*
X376D01*
X375D02*
X375D01*
X512Y964D02*
X513D01*
X511D02*
X512D01*
X511D02*
X511D01*
X510D02*
X510D01*
X507D02*
X509D01*
X501D02*
X507D01*
X382D02*
X383D01*
X377D02*
X382D01*
X377D02*
X377D01*
X375D02*
X376D01*
X501Y964D02*
X506D01*
X501D02*
X501D01*
X500D02*
X500D01*
X499D02*
X500D01*
X383D02*
X383D01*
X382D02*
X382D01*
X377D02*
X382D01*
X505Y965D02*
X506D01*
X501D02*
X504D01*
X501D02*
X501D01*
X500D02*
X500D01*
X499D02*
X500D01*
X382D02*
X383D01*
X377D02*
X382D01*
X377D02*
X377D01*
X505Y965D02*
X506D01*
X501D02*
X504D01*
X501D02*
X501D01*
X500D02*
X500D01*
X499D02*
X499D01*
X383D02*
X383D01*
X382D02*
X382D01*
X378D02*
X382D01*
X377D02*
X378D01*
X506Y965D02*
X507D01*
X501D02*
X504D01*
X500D02*
X500D01*
X499D02*
X499D01*
X382D02*
X383D01*
X377D02*
X382D01*
X377D02*
X377D01*
X507Y965D02*
X507D01*
X504D02*
X505D01*
X501D02*
X504D01*
X500D02*
X501D01*
X500D02*
X500D01*
X499D02*
X499D01*
X383D02*
X383D01*
X379D02*
X382D01*
X378D02*
X378D01*
X377D02*
X377D01*
X504Y965D02*
X505D01*
X501D02*
X504D01*
X500D02*
X501D01*
X499D02*
X500D01*
X378D02*
X382D01*
X377D02*
X378D01*
X504Y966D02*
X505D01*
X501D02*
X504D01*
X500D02*
X500D01*
X499D02*
X500D01*
X379D02*
X383D01*
X378D02*
X378D01*
X377D02*
X377D01*
X505Y966D02*
X505D01*
X504D02*
X504D01*
X501D02*
X504D01*
X500D02*
X500D01*
X499D02*
X500D01*
X379D02*
X383D01*
X378D02*
X379D01*
X377D02*
X378D01*
X377D02*
X377D01*
X505Y966D02*
X505D01*
X501D02*
X504D01*
X500D02*
X501D01*
X499D02*
X500D01*
X387D02*
X387D01*
X386D02*
X386D01*
X384D02*
X385D01*
X384D02*
X384D01*
X379D02*
X384D01*
X505Y966D02*
X505D01*
X504D02*
X504D01*
X500D02*
X504D01*
X500D02*
X500D01*
X499D02*
X499D01*
X386D02*
X387D01*
X385D02*
X386D01*
X384D02*
X384D01*
X380D02*
X384D01*
X379D02*
X379D01*
X505Y967D02*
X505D01*
X504D02*
X504D01*
X501D02*
X504D01*
X499D02*
X499D01*
X387D02*
X387D01*
X386D02*
X386D01*
X385D02*
X386D01*
X384D02*
X385D01*
X380D02*
X384D01*
X504Y967D02*
X504D01*
X500D02*
X503D01*
X500D02*
X500D01*
X387D02*
X387D01*
X386D02*
X386D01*
X385D02*
X386D01*
X385D02*
X385D01*
X384D02*
X384D01*
X380D02*
X384D01*
X379D02*
X380D01*
X504Y967D02*
X505D01*
X500D02*
X503D01*
X499D02*
X500D01*
X387D02*
X387D01*
X386D02*
X387D01*
X385D02*
X386D01*
X380D02*
X385D01*
X379D02*
X379D01*
X504Y967D02*
X505D01*
X500D02*
X504D01*
X499D02*
X500D01*
X386D02*
X387D01*
X386D02*
X386D01*
X380D02*
X385D01*
X380D02*
X380D01*
X504Y968D02*
X504D01*
X500D02*
X504D01*
X499D02*
X500D01*
X387D02*
X387D01*
X386D02*
X386D01*
X380D02*
X385D01*
X380D02*
X380D01*
X379D02*
X380D01*
X505Y968D02*
X505D01*
X504D02*
X504D01*
X504D02*
X504D01*
X501D02*
X503D01*
X500D02*
X500D01*
X386D02*
X387D01*
X386D02*
X386D01*
X381D02*
X386D01*
X380D02*
X380D01*
X379D02*
X379D01*
X505Y968D02*
X505D01*
X504D02*
X504D01*
X500D02*
X504D01*
X500D02*
X500D01*
X499D02*
X499D01*
X389D02*
X389D01*
X388D02*
X388D01*
X387D02*
X387D01*
X387D02*
X387D01*
X386D02*
X387D01*
X381D02*
X386D01*
X505Y969D02*
X505D01*
X504D02*
X504D01*
X503D02*
X504D01*
X500D02*
X503D01*
X499D02*
X499D01*
X387D02*
X388D01*
X387D02*
X387D01*
X381D02*
X386D01*
X505Y969D02*
X505D01*
X504D02*
X504D01*
X503D02*
X504D01*
X500D02*
X503D01*
X499D02*
X500D01*
X389D02*
X389D01*
X387D02*
X388D01*
X387D02*
X387D01*
X382D02*
X386D01*
X381D02*
X381D01*
X504Y969D02*
X505D01*
X504D02*
X504D01*
X503D02*
X504D01*
X500D02*
X503D01*
X499D02*
X500D01*
X388D02*
X389D01*
X387D02*
X387D01*
X382D02*
X387D01*
X381D02*
X382D01*
X504Y969D02*
X505D01*
X504D02*
X504D01*
X503D02*
X504D01*
X500D02*
X503D01*
X499D02*
X500D01*
X389D02*
X389D01*
X388D02*
X388D01*
X387D02*
X387D01*
X382D02*
X387D01*
X382D02*
X382D01*
X504Y970D02*
X505D01*
X504D02*
X504D01*
X503D02*
X504D01*
X500D02*
X503D01*
X499D02*
X500D01*
X389D02*
X389D01*
X388D02*
X389D01*
X387D02*
X388D01*
X382D02*
X387D01*
X381D02*
X381D01*
X504Y970D02*
X505D01*
X503D02*
X504D01*
X500D02*
X503D01*
X499D02*
X500D01*
X389D02*
X389D01*
X388D02*
X388D01*
X383D02*
X388D01*
X382D02*
X383D01*
X381D02*
X382D01*
X505Y970D02*
X505D01*
X503D02*
X504D01*
X500D02*
X503D01*
X499D02*
X499D01*
X388D02*
X389D01*
X383D02*
X388D01*
X382D02*
X382D01*
X381D02*
X381D01*
X500Y970D02*
X503D01*
X393D02*
X393D01*
X392D02*
X392D01*
X391D02*
X391D01*
X391D02*
X391D01*
X390D02*
X390D01*
X389D02*
X389D01*
X384D02*
X389D01*
X500Y970D02*
X503D01*
X499D02*
X499D01*
X392D02*
X393D01*
X391D02*
X391D01*
X389D02*
X390D01*
X384D02*
X389D01*
X383D02*
X384D01*
X500Y971D02*
X503D01*
X393D02*
X393D01*
X391D02*
X392D01*
X390D02*
X391D01*
X384D02*
X389D01*
X500Y971D02*
X503D01*
X393D02*
X393D01*
X392D02*
X392D01*
X391D02*
X391D01*
X384D02*
X390D01*
X384D02*
X384D01*
X383D02*
X384D01*
X503Y971D02*
X503D01*
X500D02*
X502D01*
X499D02*
X499D01*
X392D02*
X392D01*
X390D02*
X391D01*
X384D02*
X390D01*
X384D02*
X384D01*
X383D02*
X383D01*
X503Y971D02*
X503D01*
X500D02*
X502D01*
X393D02*
X393D01*
X391D02*
X392D01*
X391D02*
X391D01*
X385D02*
X391D01*
X384D02*
X385D01*
X384D02*
X384D01*
X383D02*
X384D01*
X499Y972D02*
X503D01*
X392D02*
X393D01*
X384D02*
X391D01*
X384D02*
X384D01*
X502Y972D02*
X503D01*
X499D02*
X502D01*
X393D02*
X393D01*
X392D02*
X392D01*
X386D02*
X391D01*
X385D02*
X386D01*
X385D02*
X385D01*
X384D02*
X384D01*
X383D02*
X384D01*
X503Y972D02*
X503D01*
X499D02*
X502D01*
X498D02*
X499D01*
X498D02*
X498D01*
X497D02*
X497D01*
X424D02*
X424D01*
X423D02*
X424D01*
X423D02*
X423D01*
X422D02*
X423D01*
X421D02*
X421D01*
X420D02*
X421D01*
X419D02*
X419D01*
X417D02*
X418D01*
X396D02*
X396D01*
X395D02*
X395D01*
X394D02*
X395D01*
X394D02*
X394D01*
X393D02*
X393D01*
X386D02*
X392D01*
X385D02*
X385D01*
X502Y973D02*
X503D01*
X499D02*
X502D01*
X498D02*
X498D01*
X497D02*
X497D01*
X424D02*
X425D01*
X423D02*
X423D01*
X422D02*
X422D01*
X421D02*
X421D01*
X419D02*
X420D01*
X417D02*
X417D01*
X397D02*
X397D01*
X396D02*
X396D01*
X394D02*
X394D01*
X387D02*
X393D01*
X385D02*
X386D01*
X502Y973D02*
X503D01*
X499D02*
X502D01*
X498D02*
X498D01*
X497D02*
X498D01*
X424D02*
X425D01*
X423D02*
X423D01*
X421D02*
X422D01*
X420D02*
X421D01*
X418D02*
X419D01*
X417D02*
X418D01*
X396D02*
X397D01*
X395D02*
X395D01*
X394D02*
X395D01*
X393D02*
X394D01*
X387D02*
X393D01*
X386D02*
X387D01*
X385D02*
X386D01*
X502Y973D02*
X503D01*
X499D02*
X502D01*
X498D02*
X499D01*
X498D02*
X498D01*
X497D02*
X497D01*
X423D02*
X424D01*
X421D02*
X423D01*
X419D02*
X420D01*
X419D02*
X419D01*
X417D02*
X417D01*
X395D02*
X396D01*
X394D02*
X395D01*
X387D02*
X394D01*
X387D02*
X387D01*
X386D02*
X386D01*
X502Y973D02*
X503D01*
X498D02*
X502D01*
X498D02*
X498D01*
X497D02*
X497D01*
X424D02*
X424D01*
X420D02*
X423D01*
X418D02*
X419D01*
X417D02*
X418D01*
X396D02*
X397D01*
X395D02*
X395D01*
X387D02*
X394D01*
X387D02*
X387D01*
X386D02*
X386D01*
X385D02*
X385D01*
X502Y974D02*
X503D01*
X499D02*
X502D01*
X498D02*
X498D01*
X497D02*
X498D01*
X425D02*
X425D01*
X424D02*
X424D01*
X419D02*
X423D01*
X418D02*
X419D01*
X417D02*
X417D01*
X396D02*
X396D01*
X388D02*
X395D01*
X387D02*
X387D01*
X386D02*
X387D01*
X385D02*
X386D01*
X502Y974D02*
X503D01*
X498D02*
X502D01*
X498D02*
X498D01*
X497D02*
X498D01*
X424D02*
X424D01*
X419D02*
X424D01*
X418D02*
X418D01*
X396D02*
X397D01*
X388D02*
X396D01*
X387D02*
X388D01*
X387D02*
X387D01*
X387D02*
X387D01*
X386D02*
X386D01*
X385D02*
X385D01*
X503Y974D02*
X503D01*
X502D02*
X502D01*
X498D02*
X502D01*
X498D02*
X498D01*
X497D02*
X498D01*
X424D02*
X424D01*
X418D02*
X424D01*
X417D02*
X417D01*
X397D02*
X397D01*
X389D02*
X396D01*
X389D02*
X389D01*
X388D02*
X388D01*
X387D02*
X387D01*
X386D02*
X387D01*
X385D02*
X386D01*
X503Y974D02*
X503D01*
X502D02*
X502D01*
X498D02*
X502D01*
X497D02*
X497D01*
X424D02*
X424D01*
X424D02*
X424D01*
X417D02*
X424D01*
X414D02*
X415D01*
X413D02*
X414D01*
X411D02*
X412D01*
X409D02*
X410D01*
X407D02*
X407D01*
X404D02*
X405D01*
X403D02*
X403D01*
X400D02*
X401D01*
X399D02*
X400D01*
X398D02*
X398D01*
X389D02*
X398D01*
X502Y975D02*
X502D01*
X502D02*
X502D01*
X498D02*
X502D01*
X498D02*
X498D01*
X497D02*
X498D01*
X424D02*
X425D01*
X424D02*
X424D01*
X416D02*
X424D01*
X415D02*
X416D01*
X412D02*
X413D01*
X410D02*
X411D01*
X408D02*
X409D01*
X405D02*
X406D01*
X405D02*
X405D01*
X402D02*
X403D01*
X401D02*
X401D01*
X400D02*
X400D01*
X398D02*
X399D01*
X390D02*
X398D01*
X389D02*
X389D01*
X502Y975D02*
X503D01*
X498D02*
X502D01*
X497D02*
X498D01*
X424D02*
X424D01*
X413D02*
X424D01*
X412D02*
X412D01*
X411D02*
X411D01*
X406D02*
X408D01*
X403D02*
X404D01*
X400D02*
X401D01*
X391D02*
X400D01*
X390D02*
X390D01*
X502Y975D02*
X503D01*
X502D02*
X502D01*
X498D02*
X501D01*
X497D02*
X498D01*
X425D02*
X425D01*
X424D02*
X424D01*
X414D02*
X424D01*
X412D02*
X412D01*
X407D02*
X411D01*
X405D02*
X406D01*
X402D02*
X403D01*
X401D02*
X401D01*
X391D02*
X400D01*
X389D02*
X390D01*
X502Y975D02*
X503D01*
X502D02*
X502D01*
X502D02*
X502D01*
X498D02*
X501D01*
X497D02*
X497D01*
X424D02*
X425D01*
X412D02*
X424D01*
X411D02*
X412D01*
X410D02*
X410D01*
X406D02*
X407D01*
X404D02*
X405D01*
X403D02*
X403D01*
X391D02*
X402D01*
X391D02*
X391D01*
X390D02*
X390D01*
X389D02*
X389D01*
X502Y975D02*
X502D01*
X498D02*
X502D01*
X498D02*
X498D01*
X497D02*
X497D01*
X424D02*
X424D01*
X410D02*
X424D01*
X408D02*
X410D01*
X406D02*
X407D01*
X404D02*
X405D01*
X392D02*
X404D01*
X391D02*
X391D01*
X390D02*
X391D01*
X389D02*
X390D01*
X502Y976D02*
X502D01*
X498D02*
X501D01*
X497D02*
X497D01*
X424D02*
X425D01*
X424D02*
X424D01*
X393D02*
X424D01*
X391D02*
X392D01*
X391D02*
X391D01*
X389D02*
X390D01*
X503Y976D02*
X503D01*
X502D02*
X502D01*
X502D02*
X502D01*
X497D02*
X501D01*
X424D02*
X425D01*
X393D02*
X424D01*
X393D02*
X393D01*
X391D02*
X392D01*
X391D02*
X391D01*
X389D02*
X391D01*
X498Y976D02*
X501D01*
X497D02*
X498D01*
X496D02*
X497D01*
X495D02*
X495D01*
X421D02*
X424D01*
X393D02*
X420D01*
X498Y976D02*
X501D01*
X497D02*
X497D01*
X495D02*
X496D01*
X420D02*
X424D01*
X394D02*
X419D01*
X394D02*
X394D01*
X393D02*
X393D01*
X497Y977D02*
X501D01*
X495D02*
X496D01*
X424D02*
X425D01*
X421D02*
X424D01*
X420D02*
X420D01*
X419D02*
X419D01*
X395D02*
X419D01*
X395D02*
X395D01*
X393D02*
X394D01*
X497Y977D02*
X501D01*
X496D02*
X497D01*
X495D02*
X495D01*
X421D02*
X425D01*
X419D02*
X421D01*
X419D02*
X419D01*
X396D02*
X418D01*
X395D02*
X396D01*
X394D02*
X395D01*
X393D02*
X394D01*
X497Y977D02*
X501D01*
X496D02*
X496D01*
X495D02*
X495D01*
X425D02*
X425D01*
X421D02*
X424D01*
X397D02*
X419D01*
X396D02*
X397D01*
X395D02*
X396D01*
X393D02*
X394D01*
X501Y978D02*
X501D01*
X497D02*
X500D01*
X496D02*
X496D01*
X495D02*
X495D01*
X421D02*
X425D01*
X420D02*
X421D01*
X419D02*
X419D01*
X398D02*
X417D01*
X397D02*
X398D01*
X396D02*
X396D01*
X395D02*
X395D01*
X394D02*
X394D01*
X496Y978D02*
X501D01*
X496D02*
X496D01*
X495D02*
X495D01*
X421D02*
X425D01*
X421D02*
X421D01*
X419D02*
X420D01*
X418D02*
X419D01*
X417D02*
X417D01*
X415D02*
X416D01*
X399D02*
X415D01*
X396D02*
X397D01*
X395D02*
X396D01*
X394D02*
X395D01*
X393D02*
X394D01*
X501Y978D02*
X501D01*
X496D02*
X500D01*
X495D02*
X496D01*
X421D02*
X425D01*
X420D02*
X421D01*
X419D02*
X419D01*
X417D02*
X418D01*
X416D02*
X417D01*
X415D02*
X415D01*
X414D02*
X415D01*
X400D02*
X414D01*
X397D02*
X400D01*
X396D02*
X396D01*
X395D02*
X396D01*
X395D02*
X395D01*
X394D02*
X394D01*
X500Y978D02*
X501D01*
X497D02*
X500D01*
X496D02*
X496D01*
X495D02*
X495D01*
X427D02*
X427D01*
X426D02*
X426D01*
X426D02*
X426D01*
X422D02*
X425D01*
X421D02*
X421D01*
X413D02*
X413D01*
X402D02*
X412D01*
X401D02*
X401D01*
X501Y979D02*
X501D01*
X500D02*
X500D01*
X496D02*
X500D01*
X495D02*
X496D01*
X426D02*
X427D01*
X426D02*
X426D01*
X421D02*
X426D01*
X411D02*
X413D01*
X404D02*
X410D01*
X403D02*
X404D01*
X402D02*
X403D01*
X401D02*
X401D01*
X501Y979D02*
X501D01*
X500D02*
X500D01*
X496D02*
X500D01*
X495D02*
X496D01*
X495D02*
X495D01*
X426D02*
X427D01*
X426D02*
X426D01*
X426D02*
X426D01*
X422D02*
X425D01*
X421D02*
X422D01*
X421D02*
X421D01*
X410D02*
X411D01*
X409D02*
X410D01*
X407D02*
X407D01*
X405D02*
X405D01*
X403D02*
X404D01*
X401D02*
X403D01*
X500Y979D02*
X501D01*
X500D02*
X500D01*
X496D02*
X500D01*
X496D02*
X496D01*
X427D02*
X427D01*
X426D02*
X426D01*
X422D02*
X426D01*
X421D02*
X421D01*
X413D02*
X413D01*
X411D02*
X412D01*
X410D02*
X410D01*
X407D02*
X409D01*
X405D02*
X407D01*
X404D02*
X404D01*
X402D02*
X403D01*
X401D02*
X402D01*
X501Y979D02*
X501D01*
X500D02*
X501D01*
X496D02*
X500D01*
X496D02*
X496D01*
X495D02*
X495D01*
X427D02*
X427D01*
X426D02*
X426D01*
X422D02*
X426D01*
X421D02*
X422D01*
X412D02*
X412D01*
X410D02*
X411D01*
X409D02*
X409D01*
X407D02*
X407D01*
X403D02*
X404D01*
X401D02*
X402D01*
X501Y979D02*
X501D01*
X496D02*
X500D01*
X495D02*
X496D01*
X495D02*
X495D01*
X426D02*
X426D01*
X422D02*
X426D01*
X421D02*
X422D01*
X410D02*
X412D01*
X408D02*
X410D01*
X404D02*
X406D01*
X402D02*
X403D01*
X501Y980D02*
X501D01*
X500D02*
X500D01*
X496D02*
X500D01*
X495D02*
X495D01*
X426D02*
X426D01*
X423D02*
X426D01*
X422D02*
X422D01*
X421D02*
X421D01*
X412D02*
X413D01*
X411D02*
X412D01*
X410D02*
X410D01*
X406D02*
X407D01*
X403D02*
X404D01*
X401D02*
X401D01*
X500Y980D02*
X501D01*
X500D02*
X500D01*
X495D02*
X499D01*
X495D02*
X495D01*
X426D02*
X427D01*
X423D02*
X426D01*
X422D02*
X423D01*
X421D02*
X422D01*
X410D02*
X411D01*
X407D02*
X410D01*
X405D02*
X407D01*
X404D02*
X405D01*
X402D02*
X403D01*
X496Y980D02*
X499D01*
X495D02*
X495D01*
X495D02*
X495D01*
X493D02*
X494D01*
X493D02*
X493D01*
X426D02*
X427D01*
X423D02*
X426D01*
X422D02*
X422D01*
X421D02*
X421D01*
X495Y980D02*
X499D01*
X495D02*
X495D01*
X494D02*
X495D01*
X493D02*
X494D01*
X427D02*
X427D01*
X423D02*
X426D01*
X422D02*
X422D01*
X421D02*
X421D01*
X495Y981D02*
X499D01*
X494D02*
X494D01*
X493D02*
X493D01*
X426D02*
X427D01*
X423D02*
X426D01*
X422D02*
X423D01*
X421D02*
X421D01*
X499Y981D02*
X499D01*
X495D02*
X498D01*
X495D02*
X495D01*
X493D02*
X493D01*
X427D02*
X427D01*
X422D02*
X426D01*
X421D02*
X422D01*
X495Y981D02*
X499D01*
X494D02*
X495D01*
X494D02*
X494D01*
X493D02*
X493D01*
X423D02*
X427D01*
X423D02*
X423D01*
X421D02*
X422D01*
X499Y982D02*
X499D01*
X495D02*
X498D01*
X494D02*
X495D01*
X493D02*
X493D01*
X423D02*
X427D01*
X422D02*
X422D01*
X421D02*
X421D01*
X498Y982D02*
X498D01*
X495D02*
X498D01*
X494D02*
X494D01*
X493D02*
X493D01*
X422D02*
X427D01*
X421D02*
X421D01*
X499Y982D02*
X499D01*
X495D02*
X498D01*
X494D02*
X494D01*
X493D02*
X494D01*
X424D02*
X427D01*
X423D02*
X424D01*
X422D02*
X423D01*
X421D02*
X422D01*
X498Y982D02*
X499D01*
X494D02*
X498D01*
X493D02*
X494D01*
X493D02*
X493D01*
X428D02*
X429D01*
X428D02*
X428D01*
X424D02*
X427D01*
X423D02*
X424D01*
X499Y983D02*
X499D01*
X494D02*
X498D01*
X494D02*
X494D01*
X493D02*
X493D01*
X429D02*
X429D01*
X428D02*
X428D01*
X424D02*
X428D01*
X423D02*
X423D01*
X499Y983D02*
X499D01*
X498D02*
X498D01*
X494D02*
X498D01*
X493D02*
X493D01*
X429D02*
X429D01*
X428D02*
X428D01*
X424D02*
X428D01*
X424D02*
X424D01*
X423D02*
X423D01*
X498Y983D02*
X499D01*
X494D02*
X498D01*
X493D02*
X493D01*
X428D02*
X429D01*
X424D02*
X428D01*
X423D02*
X424D01*
X498Y983D02*
X499D01*
X498D02*
X498D01*
X494D02*
X497D01*
X493D02*
X493D01*
X429D02*
X429D01*
X428D02*
X428D01*
X424D02*
X428D01*
X424D02*
X424D01*
X423D02*
X424D01*
X498Y984D02*
X499D01*
X498D02*
X498D01*
X493D02*
X497D01*
X428D02*
X429D01*
X424D02*
X428D01*
X424D02*
X424D01*
X498Y984D02*
X499D01*
X498D02*
X498D01*
X493D02*
X497D01*
X493D02*
X493D01*
X429D02*
X429D01*
X425D02*
X428D01*
X424D02*
X424D01*
X424D02*
X424D01*
X423D02*
X423D01*
X498Y984D02*
X499D01*
X498D02*
X498D01*
X497D02*
X498D01*
X493D02*
X497D01*
X425D02*
X428D01*
X424D02*
X425D01*
X424D02*
X424D01*
X423D02*
X424D01*
X497Y984D02*
X497D01*
X493D02*
X496D01*
X493D02*
X493D01*
X491D02*
X492D01*
X491D02*
X491D01*
X431D02*
X431D01*
X430D02*
X431D01*
X430D02*
X430D01*
X425D02*
X429D01*
X497Y984D02*
X497D01*
X493D02*
X496D01*
X492D02*
X492D01*
X491D02*
X491D01*
X431D02*
X431D01*
X430D02*
X430D01*
X429D02*
X430D01*
X425D02*
X429D01*
X496Y985D02*
X497D01*
X493D02*
X496D01*
X492D02*
X493D01*
X491D02*
X491D01*
X431D02*
X431D01*
X430D02*
X431D01*
X430D02*
X430D01*
X426D02*
X429D01*
X496Y985D02*
X497D01*
X492D02*
X496D01*
X492D02*
X492D01*
X491D02*
X491D01*
X431D02*
X431D01*
X430D02*
X430D01*
X426D02*
X430D01*
X425D02*
X426D01*
X496Y985D02*
X496D01*
X492D02*
X496D01*
X431D02*
X431D01*
X425D02*
X430D01*
X497Y985D02*
X497D01*
X496D02*
X496D01*
X492D02*
X496D01*
X491D02*
X492D01*
X431D02*
X431D01*
X430D02*
X431D01*
X430D02*
X430D01*
X426D02*
X430D01*
X425D02*
X425D01*
X496Y986D02*
X497D01*
X492D02*
X496D01*
X491D02*
X491D01*
X431D02*
X431D01*
X430D02*
X431D01*
X426D02*
X430D01*
X425D02*
X426D01*
X496Y986D02*
X497D01*
X491D02*
X496D01*
X431D02*
X431D01*
X426D02*
X431D01*
X425D02*
X426D01*
X496Y986D02*
X497D01*
X496D02*
X496D01*
X491D02*
X495D01*
X489D02*
X490D01*
X489D02*
X489D01*
X433D02*
X433D01*
X432D02*
X433D01*
X432D02*
X432D01*
X431D02*
X431D01*
X426D02*
X431D01*
X425D02*
X425D01*
X496Y987D02*
X497D01*
X496D02*
X496D01*
X491D02*
X495D01*
X491D02*
X491D01*
X490D02*
X491D01*
X490D02*
X490D01*
X489D02*
X489D01*
X432D02*
X432D01*
X431D02*
X431D01*
X431D02*
X431D01*
X426D02*
X431D01*
X426D02*
X426D01*
X425D02*
X426D01*
X496Y987D02*
X497D01*
X495D02*
X496D01*
X491D02*
X495D01*
X491D02*
X491D01*
X489D02*
X489D01*
X433D02*
X433D01*
X431D02*
X432D01*
X431D02*
X431D01*
X426D02*
X431D01*
X425D02*
X426D01*
X496Y987D02*
X497D01*
X495D02*
X496D01*
X491D02*
X495D01*
X490D02*
X490D01*
X489D02*
X489D01*
X433D02*
X433D01*
X432D02*
X433D01*
X432D02*
X432D01*
X427D02*
X431D01*
X426D02*
X427D01*
X426D02*
X426D01*
X425D02*
X425D01*
X496Y987D02*
X496D01*
X495D02*
X495D01*
X491D02*
X495D01*
X490D02*
X491D01*
X489D02*
X489D01*
X432D02*
X432D01*
X431D02*
X431D01*
X427D02*
X431D01*
X427D02*
X427D01*
X426D02*
X426D01*
X497Y988D02*
X497D01*
X495D02*
X496D01*
X495D02*
X495D01*
X491D02*
X495D01*
X489D02*
X490D01*
X489D02*
X489D01*
X433D02*
X433D01*
X431D02*
X432D01*
X428D02*
X431D01*
X427D02*
X427D01*
X426D02*
X427D01*
X425D02*
X426D01*
X497Y988D02*
X497D01*
X495D02*
X496D01*
X494D02*
X495D01*
X490D02*
X494D01*
X489D02*
X490D01*
X489D02*
X489D01*
X433D02*
X433D01*
X432D02*
X433D01*
X428D02*
X432D01*
X426D02*
X427D01*
X426D02*
X426D01*
X425D02*
X425D01*
X496Y988D02*
X497D01*
X495D02*
X495D01*
X490D02*
X494D01*
X489D02*
X489D01*
X433D02*
X433D01*
X427D02*
X432D01*
X427D02*
X427D01*
X426D02*
X426D01*
X425D02*
X426D01*
X495Y988D02*
X495D01*
X494D02*
X494D01*
X490D02*
X494D01*
X489D02*
X489D01*
X489D02*
X489D01*
X488D02*
X488D01*
X487D02*
X488D01*
X435D02*
X435D01*
X434D02*
X435D01*
X433D02*
X434D01*
X433D02*
X433D01*
X428D02*
X433D01*
X428D02*
X428D01*
X494Y988D02*
X495D01*
X489D02*
X494D01*
X489D02*
X489D01*
X488D02*
X489D01*
X488D02*
X488D01*
X487D02*
X487D01*
X435D02*
X435D01*
X434D02*
X434D01*
X433D02*
X433D01*
X432D02*
X433D01*
X428D02*
X432D01*
X427D02*
X427D01*
X495Y989D02*
X495D01*
X494D02*
X495D01*
X488D02*
X493D01*
X488D02*
X488D01*
X488D02*
X488D01*
X487D02*
X487D01*
X434D02*
X435D01*
X433D02*
X434D01*
X433D02*
X433D01*
X428D02*
X432D01*
X428D02*
X428D01*
X427D02*
X427D01*
X494Y989D02*
X494D01*
X493D02*
X494D01*
X489D02*
X493D01*
X488D02*
X488D01*
X487D02*
X488D01*
X435D02*
X435D01*
X434D02*
X434D01*
X433D02*
X433D01*
X429D02*
X433D01*
X428D02*
X428D01*
X428D02*
X428D01*
X495Y989D02*
X495D01*
X493D02*
X493D01*
X488D02*
X493D01*
X488D02*
X488D01*
X487D02*
X487D01*
X435D02*
X435D01*
X434D02*
X434D01*
X433D02*
X433D01*
X428D02*
X433D01*
X428D02*
X428D01*
X427D02*
X428D01*
X494Y989D02*
X495D01*
X494D02*
X494D01*
X493D02*
X493D01*
X488D02*
X493D01*
X487D02*
X488D01*
X434D02*
X435D01*
X433D02*
X434D01*
X429D02*
X433D01*
X428D02*
X428D01*
X428D02*
X428D01*
X427D02*
X427D01*
X495Y990D02*
X495D01*
X494D02*
X495D01*
X493D02*
X494D01*
X493D02*
X493D01*
X488D02*
X493D01*
X488D02*
X488D01*
X487D02*
X487D01*
X434D02*
X435D01*
X433D02*
X434D01*
X428D02*
X433D01*
X428D02*
X428D01*
X428D02*
X428D01*
X427D02*
X427D01*
X495Y990D02*
X495D01*
X494D02*
X494D01*
X493D02*
X493D01*
X488D02*
X493D01*
X487D02*
X488D01*
X435D02*
X435D01*
X434D02*
X434D01*
X429D02*
X434D01*
X428D02*
X428D01*
X427D02*
X428D01*
X488Y990D02*
X493D01*
X487D02*
X487D01*
X486D02*
X487D01*
X485D02*
X486D01*
X436D02*
X437D01*
X435D02*
X436D01*
X435D02*
X435D01*
X434D02*
X435D01*
X430D02*
X434D01*
X429D02*
X430D01*
X493Y990D02*
X493D01*
X488D02*
X493D01*
X487D02*
X487D01*
X486D02*
X486D01*
X437D02*
X437D01*
X436D02*
X436D01*
X435D02*
X435D01*
X435D02*
X435D01*
X430D02*
X434D01*
X430D02*
X430D01*
X429D02*
X429D01*
X493Y991D02*
X493D01*
X492D02*
X492D01*
X487D02*
X491D01*
X486D02*
X487D01*
X485D02*
X486D01*
X435D02*
X436D01*
X430D02*
X435D01*
X429D02*
X429D01*
X493Y991D02*
X493D01*
X492D02*
X493D01*
X491D02*
X492D01*
X487D02*
X491D01*
X485D02*
X485D01*
X437D02*
X437D01*
X435D02*
X435D01*
X430D02*
X435D01*
X429D02*
X430D01*
X493Y991D02*
X493D01*
X492D02*
X492D01*
X491D02*
X491D01*
X486D02*
X491D01*
X486D02*
X486D01*
X436D02*
X437D01*
X435D02*
X435D01*
X431D02*
X435D01*
X430D02*
X430D01*
X430D02*
X430D01*
X493Y992D02*
X493D01*
X492D02*
X492D01*
X491D02*
X491D01*
X486D02*
X491D01*
X486D02*
X486D01*
X485D02*
X486D01*
X437D02*
X437D01*
X436D02*
X436D01*
X431D02*
X435D01*
X431D02*
X431D01*
X430D02*
X430D01*
X429D02*
X429D01*
X492Y992D02*
X493D01*
X491D02*
X492D01*
X491D02*
X491D01*
X486D02*
X491D01*
X486D02*
X486D01*
X437D02*
X437D01*
X436D02*
X436D01*
X431D02*
X435D01*
X430D02*
X431D01*
X429D02*
X430D01*
X493Y992D02*
X493D01*
X491D02*
X492D01*
X491D02*
X491D01*
X486D02*
X490D01*
X485D02*
X486D01*
X437D02*
X437D01*
X436D02*
X437D01*
X431D02*
X436D01*
X430D02*
X431D01*
X490Y992D02*
X491D01*
X486D02*
X490D01*
X485D02*
X485D01*
X484D02*
X485D01*
X484D02*
X484D01*
X438D02*
X439D01*
X438D02*
X438D01*
X437D02*
X438D01*
X437D02*
X437D01*
X431D02*
X436D01*
X431D02*
X431D01*
X490Y993D02*
X490D01*
X485D02*
X490D01*
X484D02*
X484D01*
X484D02*
X484D01*
X483D02*
X484D01*
X438D02*
X438D01*
X437D02*
X438D01*
X437D02*
X437D01*
X432D02*
X437D01*
X431D02*
X432D01*
X490Y993D02*
X491D01*
X485D02*
X490D01*
X484D02*
X484D01*
X483D02*
X483D01*
X439D02*
X439D01*
X438D02*
X438D01*
X438D02*
X438D01*
X437D02*
X437D01*
X432D02*
X437D01*
X432D02*
X432D01*
X431D02*
X431D01*
X491Y993D02*
X491D01*
X490D02*
X491D01*
X484D02*
X489D01*
X483D02*
X484D01*
X439D02*
X439D01*
X438D02*
X438D01*
X438D02*
X438D01*
X433D02*
X437D01*
X432D02*
X432D01*
X431D02*
X431D01*
X491Y993D02*
X491D01*
X490D02*
X490D01*
X489D02*
X489D01*
X484D02*
X489D01*
X483D02*
X484D01*
X438D02*
X438D01*
X438D02*
X438D01*
X433D02*
X437D01*
X432D02*
X432D01*
X431D02*
X431D01*
X491Y993D02*
X491D01*
X489D02*
X491D01*
X484D02*
X489D01*
X439D02*
X439D01*
X433D02*
X438D01*
X433D02*
X433D01*
X431D02*
X431D01*
X490Y994D02*
X491D01*
X489D02*
X490D01*
X488D02*
X489D01*
X484D02*
X488D01*
X483D02*
X484D01*
X438D02*
X439D01*
X433D02*
X438D01*
X433D02*
X433D01*
X432D02*
X433D01*
X431D02*
X432D01*
X491Y994D02*
X491D01*
X490D02*
X490D01*
X488D02*
X489D01*
X483D02*
X488D01*
X433D02*
X438D01*
X433D02*
X433D01*
X432D02*
X432D01*
X431D02*
X431D01*
X489Y994D02*
X489D01*
X488D02*
X488D01*
X483D02*
X488D01*
X482D02*
X483D01*
X482D02*
X482D01*
X481D02*
X481D01*
X480D02*
X481D01*
X479D02*
X480D01*
X442D02*
X443D01*
X442D02*
X442D01*
X441D02*
X441D01*
X440D02*
X441D01*
X440D02*
X440D01*
X439D02*
X439D01*
X433D02*
X439D01*
X488Y994D02*
X489D01*
X488D02*
X488D01*
X483D02*
X488D01*
X481D02*
X482D01*
X481D02*
X481D01*
X480D02*
X480D01*
X479D02*
X479D01*
X442D02*
X442D01*
X440D02*
X441D01*
X439D02*
X440D01*
X434D02*
X439D01*
X434D02*
X434D01*
X433D02*
X433D01*
X488Y995D02*
X489D01*
X482D02*
X488D01*
X481D02*
X481D01*
X480D02*
X481D01*
X479D02*
X480D01*
X442D02*
X443D01*
X441D02*
X442D01*
X440D02*
X441D01*
X435D02*
X440D01*
X434D02*
X434D01*
X433D02*
X434D01*
X433D02*
X433D01*
X488Y995D02*
X489D01*
X482D02*
X487D01*
X481D02*
X482D01*
X480D02*
X480D01*
X479D02*
X479D01*
X443D02*
X443D01*
X442D02*
X442D01*
X441D02*
X442D01*
X440D02*
X441D01*
X434D02*
X440D01*
X434D02*
X434D01*
X433D02*
X433D01*
X488Y995D02*
X489D01*
X488D02*
X488D01*
X487D02*
X487D01*
X481D02*
X487D01*
X480D02*
X481D01*
X479D02*
X480D01*
X479D02*
X479D01*
X443D02*
X443D01*
X442D02*
X442D01*
X441D02*
X441D01*
X435D02*
X441D01*
X433D02*
X434D01*
X488Y996D02*
X489D01*
X487D02*
X488D01*
X487D02*
X487D01*
X481D02*
X486D01*
X479D02*
X480D01*
X442D02*
X443D01*
X442D02*
X442D01*
X435D02*
X441D01*
X434D02*
X435D01*
X433D02*
X433D01*
X488Y996D02*
X488D01*
X487D02*
X487D01*
X486D02*
X487D01*
X481D02*
X486D01*
X480D02*
X480D01*
X479D02*
X479D01*
X442D02*
X443D01*
X442D02*
X442D01*
X436D02*
X441D01*
X435D02*
X435D01*
X434D02*
X435D01*
X433D02*
X434D01*
X489Y996D02*
X489D01*
X488D02*
X488D01*
X487D02*
X488D01*
X486D02*
X486D01*
X480D02*
X486D01*
X479D02*
X480D01*
X443D02*
X443D01*
X442D02*
X442D01*
X436D02*
X442D01*
X435D02*
X435D01*
X435D02*
X435D01*
X434D02*
X434D01*
X433D02*
X433D01*
X487Y996D02*
X487D01*
X486D02*
X486D01*
X480D02*
X486D01*
X479D02*
X479D01*
X479D02*
X479D01*
X477D02*
X478D01*
X476D02*
X477D01*
X475D02*
X475D01*
X446D02*
X447D01*
X444D02*
X444D01*
X443D02*
X444D01*
X442D02*
X443D01*
X436D02*
X442D01*
X435D02*
X435D01*
X487Y997D02*
X487D01*
X486D02*
X486D01*
X479D02*
X485D01*
X478D02*
X478D01*
X477D02*
X477D01*
X475D02*
X476D01*
X447D02*
X447D01*
X445D02*
X446D01*
X444D02*
X445D01*
X444D02*
X444D01*
X437D02*
X442D01*
X435D02*
X436D01*
X486Y997D02*
X486D01*
X479D02*
X485D01*
X478D02*
X479D01*
X477D02*
X478D01*
X476D02*
X477D01*
X475D02*
X475D01*
X447D02*
X447D01*
X446D02*
X446D01*
X445D02*
X445D01*
X444D02*
X444D01*
X437D02*
X444D01*
X436D02*
X437D01*
X435D02*
X435D01*
X485Y997D02*
X486D01*
X479D02*
X484D01*
X478D02*
X478D01*
X477D02*
X478D01*
X476D02*
X476D01*
X446D02*
X447D01*
X445D02*
X445D01*
X444D02*
X445D01*
X438D02*
X444D01*
X437D02*
X437D01*
X435D02*
X436D01*
X486Y997D02*
X487D01*
X485D02*
X486D01*
X484D02*
X485D01*
X478D02*
X484D01*
X477D02*
X477D01*
X446D02*
X447D01*
X445D02*
X446D01*
X438D02*
X444D01*
X437D02*
X438D01*
X436D02*
X436D01*
X435D02*
X435D01*
X486Y998D02*
X487D01*
X484D02*
X485D01*
X484D02*
X484D01*
X477D02*
X484D01*
X477D02*
X477D01*
X476D02*
X477D01*
X475D02*
X476D01*
X447D02*
X447D01*
X445D02*
X446D01*
X438D02*
X445D01*
X438D02*
X438D01*
X436D02*
X437D01*
X435D02*
X436D01*
X485Y998D02*
X486D01*
X484D02*
X484D01*
X477D02*
X484D01*
X475D02*
X476D01*
X447D02*
X447D01*
X446D02*
X446D01*
X445D02*
X445D01*
X439D02*
X445D01*
X438D02*
X438D01*
X437D02*
X438D01*
X435D02*
X436D01*
X487Y998D02*
X487D01*
X485D02*
X485D01*
X484D02*
X485D01*
X484D02*
X484D01*
X483D02*
X483D01*
X476D02*
X483D01*
X476D02*
X476D01*
X475D02*
X475D01*
X447D02*
X447D01*
X446D02*
X446D01*
X438D02*
X445D01*
X438D02*
X438D01*
X437D02*
X437D01*
X436D02*
X437D01*
X435D02*
X435D01*
X482Y998D02*
X483D01*
X476D02*
X482D01*
X475D02*
X475D01*
X474D02*
X475D01*
X473D02*
X474D01*
X473D02*
X473D01*
X472D02*
X472D01*
X471D02*
X472D01*
X470D02*
X471D01*
X451D02*
X451D01*
X448D02*
X449D01*
X447D02*
X448D01*
X446D02*
X447D01*
X439D02*
X446D01*
X482Y998D02*
X482D01*
X475D02*
X482D01*
X475D02*
X475D01*
X474D02*
X474D01*
X473D02*
X473D01*
X472D02*
X472D01*
X471D02*
X471D01*
X469D02*
X470D01*
X449D02*
X450D01*
X448D02*
X448D01*
X447D02*
X447D01*
X440D02*
X447D01*
X439D02*
X439D01*
X482Y999D02*
X483D01*
X482D02*
X482D01*
X475D02*
X481D01*
X474D02*
X474D01*
X473D02*
X473D01*
X472D02*
X472D01*
X471D02*
X472D01*
X471D02*
X471D01*
X469D02*
X470D01*
X450D02*
X451D01*
X449D02*
X449D01*
X448D02*
X449D01*
X440D02*
X447D01*
X439D02*
X439D01*
X482Y999D02*
X482D01*
X474D02*
X481D01*
X473D02*
X474D01*
X472D02*
X473D01*
X470D02*
X472D01*
X451D02*
X451D01*
X449D02*
X450D01*
X449D02*
X449D01*
X440D02*
X448D01*
X440D02*
X440D01*
X483Y999D02*
X483D01*
X481D02*
X482D01*
X473D02*
X481D01*
X472D02*
X472D01*
X470D02*
X470D01*
X469D02*
X469D01*
X451D02*
X451D01*
X450D02*
X450D01*
X441D02*
X449D01*
X439D02*
X439D01*
X482Y999D02*
X483D01*
X481D02*
X481D01*
X481D02*
X481D01*
X472D02*
X480D01*
X471D02*
X472D01*
X470D02*
X470D01*
X469D02*
X469D01*
X450D02*
X451D01*
X442D02*
X449D01*
X441D02*
X442D01*
X440D02*
X441D01*
X439D02*
X440D01*
X482Y1000D02*
X483D01*
X482D02*
X482D01*
X481D02*
X481D01*
X480D02*
X480D01*
X472D02*
X479D01*
X470D02*
X471D01*
X470D02*
X470D01*
X469D02*
X469D01*
X451D02*
X451D01*
X442D02*
X450D01*
X442D02*
X442D01*
X441D02*
X441D01*
X440D02*
X440D01*
X440D02*
X440D01*
X439D02*
X439D01*
X482Y1000D02*
X483D01*
X481D02*
X482D01*
X480D02*
X481D01*
X479D02*
X480D01*
X470D02*
X479D01*
X470D02*
X470D01*
X469D02*
X469D01*
X442D02*
X451D01*
X442D02*
X442D01*
X441D02*
X442D01*
X440D02*
X441D01*
X440D02*
X440D01*
X439D02*
X440D01*
X470Y1000D02*
X479D01*
X469D02*
X469D01*
X467D02*
X468D01*
X465D02*
X465D01*
X464D02*
X465D01*
X461D02*
X461D01*
X458D02*
X458D01*
X456D02*
X457D01*
X454D02*
X455D01*
X443D02*
X453D01*
X478Y1000D02*
X479D01*
X468D02*
X478D01*
X466D02*
X467D01*
X463D02*
X464D01*
X457D02*
X459D01*
X455D02*
X456D01*
X444D02*
X454D01*
X443D02*
X443D01*
X479Y1001D02*
X479D01*
X478D02*
X478D01*
X467D02*
X477D01*
X467D02*
X467D01*
X465D02*
X466D01*
X465D02*
X465D01*
X463D02*
X464D01*
X460D02*
X461D01*
X459D02*
X460D01*
X457D02*
X457D01*
X456D02*
X457D01*
X444D02*
X455D01*
X444D02*
X444D01*
X443D02*
X443D01*
X478Y1001D02*
X479D01*
X477D02*
X477D01*
X465D02*
X477D01*
X463D02*
X464D01*
X460D02*
X461D01*
X458D02*
X459D01*
X444D02*
X457D01*
X443D02*
X443D01*
X479Y1001D02*
X479D01*
X477D02*
X478D01*
X477D02*
X477D01*
X463D02*
X476D01*
X461D02*
X461D01*
X459D02*
X460D01*
X445D02*
X459D01*
X445D02*
X445D01*
X443D02*
X444D01*
X478Y1002D02*
X479D01*
X477D02*
X478D01*
X477D02*
X477D01*
X476D02*
X476D01*
X446D02*
X475D01*
X445D02*
X446D01*
X445D02*
X445D01*
X444D02*
X444D01*
X443D02*
X443D01*
X478Y1002D02*
X479D01*
X477D02*
X477D01*
X477D02*
X477D01*
X447D02*
X475D01*
X446D02*
X446D01*
X445D02*
X445D01*
X444D02*
X445D01*
X443D02*
X444D01*
X479Y1002D02*
X479D01*
X477D02*
X478D01*
X477D02*
X477D01*
X475D02*
X476D01*
X447D02*
X475D01*
X447D02*
X447D01*
X444D02*
X444D01*
X443D02*
X443D01*
X475Y1002D02*
X475D01*
X474D02*
X474D01*
X448D02*
X474D01*
X447D02*
X448D01*
X475Y1003D02*
X475D01*
X474D02*
X474D01*
X473D02*
X473D01*
X449D02*
X473D01*
X448D02*
X448D01*
X447D02*
X447D01*
X475Y1003D02*
X475D01*
X474D02*
X474D01*
X473D02*
X473D01*
X450D02*
X472D01*
X448D02*
X449D01*
X447D02*
X447D01*
X474Y1003D02*
X475D01*
X473D02*
X474D01*
X471D02*
X473D01*
X450D02*
X471D01*
X448D02*
X449D01*
X447D02*
X448D01*
X474Y1003D02*
X475D01*
X473D02*
X474D01*
X473D02*
X473D01*
X472D02*
X472D01*
X471D02*
X472D01*
X452D02*
X470D01*
X451D02*
X451D01*
X449D02*
X449D01*
X448D02*
X448D01*
X447D02*
X447D01*
X475Y1003D02*
X475D01*
X474D02*
X474D01*
X473D02*
X473D01*
X472D02*
X472D01*
X470D02*
X471D01*
X453D02*
X469D01*
X452D02*
X452D01*
X451D02*
X451D01*
X450D02*
X451D01*
X449D02*
X449D01*
X447D02*
X447D01*
X475Y1004D02*
X475D01*
X473D02*
X474D01*
X472D02*
X473D01*
X471D02*
X472D01*
X471D02*
X471D01*
X469D02*
X470D01*
X468D02*
X469D01*
X454D02*
X468D01*
X452D02*
X454D01*
X451D02*
X452D01*
X449D02*
X450D01*
X447D02*
X448D01*
X474Y1004D02*
X475D01*
X470D02*
X470D01*
X469D02*
X469D01*
X467D02*
X468D01*
X456D02*
X466D01*
X456D02*
X456D01*
X454D02*
X455D01*
X454D02*
X454D01*
X451D02*
X452D01*
X450D02*
X451D01*
X448D02*
X449D01*
X447D02*
X447D01*
D22*
X1281Y85D02*
Y235D01*
X1281Y85D02*
Y235D01*
X1281Y85D02*
Y235D01*
X1281Y85D02*
Y235D01*
X1280Y85D02*
Y235D01*
X1280Y85D02*
Y235D01*
X1280Y85D02*
Y235D01*
X1279Y85D02*
Y235D01*
X1279Y85D02*
Y235D01*
X1279Y85D02*
Y235D01*
X1278Y85D02*
Y235D01*
X1278Y85D02*
Y235D01*
X1278Y85D02*
Y235D01*
X1278Y85D02*
Y235D01*
X1277Y85D02*
Y235D01*
X1277Y85D02*
Y235D01*
X1277Y85D02*
Y235D01*
X1276Y85D02*
Y235D01*
X1276Y85D02*
Y235D01*
X1276Y85D02*
Y235D01*
X1275Y85D02*
Y235D01*
X1275Y85D02*
Y235D01*
X1275Y85D02*
Y235D01*
X1275Y85D02*
Y235D01*
X1274Y85D02*
Y235D01*
X1274Y85D02*
Y235D01*
X1274Y85D02*
Y235D01*
X1273Y85D02*
Y235D01*
X1273Y85D02*
Y235D01*
X1273Y85D02*
Y235D01*
X1272Y85D02*
Y235D01*
X1272Y85D02*
Y235D01*
X1272Y85D02*
Y235D01*
X1271Y85D02*
Y235D01*
X1271Y85D02*
Y235D01*
X1271Y85D02*
Y235D01*
X1271Y85D02*
Y235D01*
X1270Y85D02*
Y235D01*
X1270Y85D02*
Y235D01*
X1270Y85D02*
Y235D01*
X1269Y85D02*
Y235D01*
X1269Y85D02*
Y235D01*
X1269Y85D02*
Y235D01*
X1268Y85D02*
Y235D01*
X1268Y85D02*
Y235D01*
X1268Y85D02*
Y235D01*
X1268Y85D02*
Y235D01*
X1267Y85D02*
Y235D01*
X1267Y85D02*
Y235D01*
X1267Y85D02*
Y235D01*
X1266Y85D02*
Y235D01*
X1266Y85D02*
Y235D01*
X1266Y85D02*
Y235D01*
X1265Y85D02*
Y235D01*
X1265Y85D02*
Y235D01*
X1265Y85D02*
Y235D01*
X1265Y222D02*
Y235D01*
Y133D02*
Y221D01*
Y98D02*
Y131D01*
Y85D02*
Y96D01*
X1264Y222D02*
Y235D01*
Y133D02*
Y221D01*
Y98D02*
Y131D01*
Y85D02*
Y96D01*
X1264Y221D02*
Y235D01*
Y133D02*
Y175D01*
Y85D02*
Y96D01*
X1264Y221D02*
Y235D01*
Y133D02*
Y175D01*
Y85D02*
Y96D01*
X1263Y223D02*
Y235D01*
Y133D02*
Y175D01*
Y85D02*
Y96D01*
X1263Y223D02*
Y235D01*
Y133D02*
Y175D01*
Y85D02*
Y96D01*
X1263Y222D02*
Y235D01*
Y220D02*
Y221D01*
Y132D02*
Y175D01*
Y85D02*
Y97D01*
X1263Y222D02*
Y235D01*
Y220D02*
Y221D01*
Y132D02*
Y175D01*
Y85D02*
Y97D01*
X1262Y221D02*
Y235D01*
Y220D02*
Y221D01*
Y133D02*
Y175D01*
Y85D02*
Y96D01*
X1262Y219D02*
Y235D01*
Y128D02*
Y181D01*
Y85D02*
Y98D01*
X1262Y219D02*
Y235D01*
Y128D02*
Y181D01*
Y85D02*
Y98D01*
X1261Y215D02*
Y235D01*
Y125D02*
Y182D01*
Y85D02*
Y101D01*
X1261Y215D02*
Y235D01*
Y125D02*
Y182D01*
Y85D02*
Y101D01*
X1261Y214D02*
Y235D01*
Y123D02*
Y184D01*
Y85D02*
Y102D01*
X1260Y214D02*
Y235D01*
Y123D02*
Y184D01*
Y85D02*
Y102D01*
X1260Y214D02*
Y235D01*
Y122D02*
Y184D01*
Y85D02*
Y104D01*
X1260Y214D02*
Y235D01*
Y122D02*
Y184D01*
Y85D02*
Y104D01*
X1260Y213D02*
Y235D01*
Y122D02*
Y185D01*
Y85D02*
Y104D01*
X1259Y213D02*
Y235D01*
Y122D02*
Y185D01*
Y85D02*
Y104D01*
X1259Y213D02*
Y235D01*
Y121D02*
Y187D01*
Y85D02*
Y106D01*
X1259Y213D02*
Y235D01*
Y121D02*
Y187D01*
Y85D02*
Y106D01*
X1258Y211D02*
Y235D01*
Y120D02*
Y186D01*
Y85D02*
Y106D01*
X1258Y211D02*
Y235D01*
Y120D02*
Y186D01*
Y85D02*
Y106D01*
X1258Y210D02*
Y235D01*
Y120D02*
Y187D01*
Y85D02*
Y106D01*
X1257Y210D02*
Y235D01*
Y120D02*
Y188D01*
Y85D02*
Y108D01*
X1257Y210D02*
Y235D01*
Y120D02*
Y188D01*
Y85D02*
Y108D01*
X1257Y209D02*
Y235D01*
Y119D02*
Y187D01*
Y85D02*
Y108D01*
X1257Y209D02*
Y235D01*
Y119D02*
Y187D01*
Y85D02*
Y108D01*
X1256Y209D02*
Y235D01*
Y119D02*
Y187D01*
Y85D02*
Y109D01*
X1256Y209D02*
Y235D01*
Y119D02*
Y187D01*
Y85D02*
Y109D01*
X1256Y209D02*
Y235D01*
Y120D02*
Y187D01*
Y85D02*
Y108D01*
X1255Y209D02*
Y235D01*
Y120D02*
Y187D01*
Y85D02*
Y108D01*
X1255Y209D02*
Y235D01*
Y119D02*
Y187D01*
Y85D02*
Y109D01*
X1255Y209D02*
Y235D01*
Y119D02*
Y187D01*
Y85D02*
Y109D01*
X1254Y207D02*
Y235D01*
Y118D02*
Y187D01*
Y85D02*
Y109D01*
X1254Y207D02*
Y235D01*
Y118D02*
Y187D01*
Y85D02*
Y109D01*
X1254Y208D02*
Y235D01*
Y119D02*
Y188D01*
Y85D02*
Y109D01*
X1253Y208D02*
Y235D01*
Y119D02*
Y188D01*
Y85D02*
Y109D01*
X1253Y207D02*
Y235D01*
Y120D02*
Y187D01*
Y85D02*
Y110D01*
X1253Y206D02*
Y235D01*
Y119D02*
Y189D01*
Y85D02*
Y110D01*
X1253Y206D02*
Y235D01*
Y119D02*
Y189D01*
Y85D02*
Y110D01*
X1252Y205D02*
Y235D01*
Y120D02*
Y187D01*
Y85D02*
Y111D01*
X1252Y205D02*
Y235D01*
Y120D02*
Y187D01*
Y85D02*
Y111D01*
X1252Y206D02*
Y235D01*
Y119D02*
Y188D01*
Y85D02*
Y110D01*
X1251Y206D02*
Y235D01*
Y119D02*
Y188D01*
Y85D02*
Y110D01*
X1251Y205D02*
Y235D01*
Y119D02*
Y187D01*
Y85D02*
Y111D01*
X1251Y205D02*
Y235D01*
Y119D02*
Y187D01*
Y85D02*
Y111D01*
X1250Y206D02*
Y235D01*
Y120D02*
Y187D01*
Y85D02*
Y112D01*
X1250Y206D02*
Y235D01*
Y120D02*
Y187D01*
Y85D02*
Y112D01*
X1250Y206D02*
Y235D01*
Y120D02*
Y187D01*
Y85D02*
Y111D01*
X1250Y206D02*
Y235D01*
Y120D02*
Y187D01*
Y85D02*
Y111D01*
X1249Y205D02*
Y235D01*
Y120D02*
Y187D01*
Y85D02*
Y113D01*
X1249Y205D02*
Y235D01*
Y120D02*
Y187D01*
Y85D02*
Y113D01*
X1249Y205D02*
Y235D01*
Y119D02*
Y186D01*
Y85D02*
Y113D01*
X1248Y205D02*
Y235D01*
Y120D02*
Y187D01*
Y85D02*
Y112D01*
X1248Y205D02*
Y235D01*
Y120D02*
Y187D01*
Y85D02*
Y112D01*
X1248Y204D02*
Y235D01*
Y120D02*
Y186D01*
Y85D02*
Y113D01*
X1247Y204D02*
Y235D01*
Y120D02*
Y186D01*
Y85D02*
Y113D01*
X1247Y202D02*
Y235D01*
Y122D02*
Y185D01*
Y85D02*
Y113D01*
X1247Y202D02*
Y235D01*
Y122D02*
Y185D01*
Y85D02*
Y113D01*
X1247Y204D02*
Y235D01*
Y121D02*
Y187D01*
Y85D02*
Y113D01*
X1246Y204D02*
Y235D01*
Y121D02*
Y187D01*
Y85D02*
Y113D01*
X1246Y204D02*
Y235D01*
Y121D02*
Y186D01*
Y85D02*
Y114D01*
X1246Y204D02*
Y235D01*
Y121D02*
Y186D01*
Y85D02*
Y114D01*
X1245Y204D02*
Y235D01*
Y122D02*
Y185D01*
Y85D02*
Y114D01*
X1245Y204D02*
Y235D01*
Y122D02*
Y185D01*
Y85D02*
Y114D01*
X1245Y203D02*
Y235D01*
Y122D02*
Y186D01*
Y85D02*
Y115D01*
X1245Y203D02*
Y235D01*
Y122D02*
Y184D01*
Y85D02*
Y114D01*
X1244Y203D02*
Y235D01*
Y122D02*
Y184D01*
Y85D02*
Y114D01*
X1244Y202D02*
Y235D01*
Y123D02*
Y184D01*
Y85D02*
Y115D01*
X1244Y202D02*
Y235D01*
Y123D02*
Y184D01*
Y85D02*
Y115D01*
X1243Y202D02*
Y235D01*
Y123D02*
Y184D01*
Y85D02*
Y114D01*
X1243Y202D02*
Y235D01*
Y123D02*
Y184D01*
Y85D02*
Y114D01*
X1243Y201D02*
Y235D01*
Y122D02*
Y184D01*
Y85D02*
Y114D01*
X1242Y201D02*
Y235D01*
Y122D02*
Y184D01*
Y85D02*
Y114D01*
X1242Y202D02*
Y235D01*
Y123D02*
Y184D01*
Y85D02*
Y115D01*
X1242Y202D02*
Y235D01*
Y123D02*
Y184D01*
Y85D02*
Y115D01*
X1242Y202D02*
Y235D01*
Y123D02*
Y184D01*
Y85D02*
Y115D01*
X1241Y202D02*
Y235D01*
Y123D02*
Y184D01*
Y85D02*
Y115D01*
X1241Y201D02*
Y235D01*
Y124D02*
Y184D01*
Y85D02*
Y117D01*
X1241Y201D02*
Y235D01*
Y124D02*
Y184D01*
Y85D02*
Y117D01*
X1240Y201D02*
Y235D01*
Y123D02*
Y183D01*
Y85D02*
Y115D01*
X1240Y200D02*
Y235D01*
Y124D02*
Y183D01*
Y85D02*
Y116D01*
X1240Y200D02*
Y235D01*
Y124D02*
Y183D01*
Y85D02*
Y116D01*
X1239Y201D02*
Y235D01*
Y123D02*
Y184D01*
Y85D02*
Y116D01*
X1239Y201D02*
Y235D01*
Y123D02*
Y184D01*
Y85D02*
Y116D01*
X1239Y200D02*
Y235D01*
Y124D02*
Y182D01*
Y85D02*
Y118D01*
X1238Y200D02*
Y235D01*
Y124D02*
Y182D01*
Y85D02*
Y118D01*
X1238Y200D02*
Y235D01*
Y124D02*
Y183D01*
Y85D02*
Y116D01*
X1238Y200D02*
Y235D01*
Y124D02*
Y183D01*
Y85D02*
Y116D01*
X1238Y198D02*
Y235D01*
Y125D02*
Y182D01*
Y85D02*
Y116D01*
X1237Y198D02*
Y235D01*
Y125D02*
Y182D01*
Y85D02*
Y116D01*
X1237Y200D02*
Y235D01*
Y125D02*
Y182D01*
Y85D02*
Y117D01*
X1237Y200D02*
Y235D01*
Y125D02*
Y182D01*
Y85D02*
Y117D01*
X1236Y198D02*
Y235D01*
Y125D02*
Y182D01*
Y85D02*
Y118D01*
X1236Y198D02*
Y235D01*
Y125D02*
Y182D01*
Y85D02*
Y118D01*
X1236Y199D02*
Y235D01*
Y126D02*
Y182D01*
Y85D02*
Y118D01*
X1235Y199D02*
Y235D01*
Y126D02*
Y182D01*
Y85D02*
Y120D01*
X1235Y199D02*
Y235D01*
Y126D02*
Y182D01*
Y85D02*
Y120D01*
X1235Y198D02*
Y235D01*
Y127D02*
Y181D01*
Y85D02*
Y118D01*
X1235Y198D02*
Y235D01*
Y127D02*
Y181D01*
Y85D02*
Y118D01*
X1234Y198D02*
Y235D01*
Y126D02*
Y180D01*
Y85D02*
Y118D01*
X1234Y198D02*
Y235D01*
Y126D02*
Y180D01*
Y85D02*
Y118D01*
X1234Y198D02*
Y235D01*
Y127D02*
Y180D01*
Y85D02*
Y118D01*
X1233Y198D02*
Y235D01*
Y127D02*
Y180D01*
Y85D02*
Y118D01*
X1233Y198D02*
Y235D01*
Y126D02*
Y180D01*
Y85D02*
Y119D01*
X1233Y198D02*
Y235D01*
Y126D02*
Y180D01*
Y85D02*
Y119D01*
X1232Y198D02*
Y235D01*
Y127D02*
Y180D01*
Y85D02*
Y119D01*
X1232Y198D02*
Y235D01*
Y127D02*
Y180D01*
Y85D02*
Y119D01*
X1232Y198D02*
Y235D01*
Y127D02*
Y180D01*
Y85D02*
Y122D01*
X1232Y198D02*
Y235D01*
Y127D02*
Y180D01*
Y85D02*
Y122D01*
X1231Y197D02*
Y235D01*
Y128D02*
Y179D01*
Y85D02*
Y119D01*
X1231Y194D02*
Y235D01*
Y128D02*
Y179D01*
Y85D02*
Y119D01*
X1231Y194D02*
Y235D01*
Y128D02*
Y179D01*
Y85D02*
Y119D01*
X1230Y197D02*
Y235D01*
Y128D02*
Y179D01*
Y85D02*
Y120D01*
X1230Y197D02*
Y235D01*
Y128D02*
Y179D01*
Y85D02*
Y120D01*
X1230Y197D02*
Y235D01*
Y129D02*
Y179D01*
Y85D02*
Y121D01*
X1230Y197D02*
Y235D01*
Y129D02*
Y179D01*
Y85D02*
Y121D01*
X1229Y197D02*
Y235D01*
Y128D02*
Y178D01*
Y85D02*
Y120D01*
X1229Y197D02*
Y235D01*
Y128D02*
Y178D01*
Y85D02*
Y120D01*
X1229Y196D02*
Y235D01*
Y129D02*
Y178D01*
Y85D02*
Y121D01*
X1228Y196D02*
Y235D01*
Y129D02*
Y178D01*
Y85D02*
Y121D01*
X1228Y196D02*
Y235D01*
Y178D02*
Y179D01*
Y128D02*
Y178D01*
Y85D02*
Y121D01*
X1228Y196D02*
Y235D01*
Y178D02*
Y179D01*
Y128D02*
Y178D01*
Y85D02*
Y121D01*
X1227Y193D02*
Y235D01*
Y129D02*
Y178D01*
Y85D02*
Y121D01*
X1227Y196D02*
Y235D01*
Y130D02*
Y179D01*
Y85D02*
Y122D01*
X1227Y196D02*
Y235D01*
Y130D02*
Y179D01*
Y85D02*
Y122D01*
X1227Y196D02*
Y235D01*
Y129D02*
Y178D01*
Y85D02*
Y122D01*
X1226Y196D02*
Y235D01*
Y129D02*
Y178D01*
Y85D02*
Y122D01*
X1226Y194D02*
Y235D01*
Y130D02*
Y178D01*
Y85D02*
Y124D01*
X1226Y194D02*
Y235D01*
Y130D02*
Y178D01*
Y85D02*
Y124D01*
X1225Y195D02*
Y235D01*
Y85D02*
Y122D01*
X1225Y195D02*
Y235D01*
Y85D02*
Y122D01*
X1225Y194D02*
Y235D01*
Y85D02*
Y124D01*
X1224Y194D02*
Y235D01*
Y85D02*
Y124D01*
X1224Y194D02*
Y235D01*
Y85D02*
Y123D01*
X1224Y194D02*
Y235D01*
Y85D02*
Y123D01*
X1224Y194D02*
Y235D01*
Y85D02*
Y124D01*
X1223Y194D02*
Y235D01*
Y85D02*
Y124D01*
X1223Y193D02*
Y235D01*
Y85D02*
Y124D01*
X1223Y194D02*
Y235D01*
Y85D02*
Y123D01*
X1222Y194D02*
Y235D01*
Y85D02*
Y123D01*
X1222Y193D02*
Y235D01*
Y85D02*
Y125D01*
X1222Y193D02*
Y235D01*
Y85D02*
Y125D01*
X1221Y193D02*
Y235D01*
Y85D02*
Y124D01*
X1221Y193D02*
Y235D01*
Y85D02*
Y124D01*
X1221Y192D02*
Y235D01*
Y85D02*
Y125D01*
X1220Y192D02*
Y235D01*
Y85D02*
Y125D01*
X1220Y193D02*
Y235D01*
Y85D02*
Y124D01*
X1220Y193D02*
Y235D01*
Y85D02*
Y124D01*
X1220Y193D02*
Y235D01*
Y85D02*
Y125D01*
X1219Y193D02*
Y235D01*
Y85D02*
Y125D01*
X1219Y192D02*
Y235D01*
Y85D02*
Y125D01*
X1219Y192D02*
Y235D01*
Y85D02*
Y125D01*
X1218Y192D02*
Y235D01*
Y85D02*
Y126D01*
X1218Y192D02*
Y235D01*
Y85D02*
Y125D01*
X1218Y192D02*
Y235D01*
Y85D02*
Y125D01*
X1217Y192D02*
Y235D01*
Y85D02*
Y125D01*
X1217Y192D02*
Y235D01*
Y85D02*
Y125D01*
X1217Y191D02*
Y235D01*
Y134D02*
Y174D01*
Y85D02*
Y126D01*
X1217Y191D02*
Y235D01*
Y134D02*
Y174D01*
Y85D02*
Y126D01*
X1216Y191D02*
Y235D01*
Y134D02*
Y173D01*
Y85D02*
Y127D01*
X1216Y191D02*
Y235D01*
Y134D02*
Y173D01*
Y85D02*
Y127D01*
X1216Y191D02*
Y235D01*
Y134D02*
Y173D01*
Y85D02*
Y126D01*
X1215Y191D02*
Y235D01*
Y134D02*
Y173D01*
Y85D02*
Y126D01*
X1215Y191D02*
Y235D01*
Y134D02*
Y173D01*
Y85D02*
Y127D01*
X1215Y191D02*
Y235D01*
Y134D02*
Y173D01*
Y85D02*
Y127D01*
X1214Y191D02*
Y235D01*
Y135D02*
Y173D01*
Y85D02*
Y127D01*
X1214Y191D02*
Y235D01*
Y135D02*
Y173D01*
Y85D02*
Y127D01*
X1214Y190D02*
Y235D01*
Y135D02*
Y173D01*
Y85D02*
Y127D01*
X1214Y189D02*
Y235D01*
Y136D02*
Y172D01*
Y85D02*
Y128D01*
X1213Y189D02*
Y235D01*
Y136D02*
Y172D01*
Y85D02*
Y128D01*
X1213Y189D02*
Y235D01*
Y135D02*
Y171D01*
Y85D02*
Y128D01*
X1213Y189D02*
Y235D01*
Y135D02*
Y171D01*
Y85D02*
Y128D01*
X1212Y189D02*
Y235D01*
Y136D02*
Y172D01*
Y85D02*
Y128D01*
X1212Y189D02*
Y235D01*
Y136D02*
Y172D01*
Y85D02*
Y128D01*
X1212Y189D02*
Y235D01*
Y135D02*
Y171D01*
Y85D02*
Y128D01*
X1212Y189D02*
Y235D01*
Y135D02*
Y171D01*
Y85D02*
Y128D01*
X1211Y188D02*
Y235D01*
Y136D02*
Y171D01*
Y85D02*
Y128D01*
X1211Y188D02*
Y235D01*
Y136D02*
Y171D01*
Y85D02*
Y128D01*
X1211Y189D02*
Y235D01*
Y137D02*
Y172D01*
Y85D02*
Y130D01*
X1210Y189D02*
Y235D01*
Y137D02*
Y172D01*
Y85D02*
Y130D01*
X1210Y189D02*
Y235D01*
Y137D02*
Y171D01*
Y85D02*
Y129D01*
X1210Y188D02*
Y235D01*
Y136D02*
Y170D01*
Y85D02*
Y130D01*
X1209Y188D02*
Y235D01*
Y136D02*
Y170D01*
Y85D02*
Y130D01*
X1209Y189D02*
Y235D01*
Y137D02*
Y171D01*
Y85D02*
Y129D01*
X1209Y189D02*
Y235D01*
Y137D02*
Y171D01*
Y85D02*
Y129D01*
X1209Y188D02*
Y235D01*
Y138D02*
Y170D01*
Y85D02*
Y131D01*
X1208Y188D02*
Y235D01*
Y138D02*
Y170D01*
Y85D02*
Y131D01*
X1208Y188D02*
Y235D01*
Y137D02*
Y170D01*
Y85D02*
Y129D01*
X1208Y188D02*
Y235D01*
Y137D02*
Y170D01*
Y85D02*
Y129D01*
X1207Y187D02*
Y235D01*
Y137D02*
Y169D01*
Y85D02*
Y130D01*
X1207Y187D02*
Y235D01*
Y137D02*
Y169D01*
Y85D02*
Y130D01*
X1207Y187D02*
Y235D01*
Y138D02*
Y169D01*
Y85D02*
Y131D01*
X1206Y187D02*
Y235D01*
Y138D02*
Y169D01*
Y85D02*
Y131D01*
X1206Y187D02*
Y235D01*
Y137D02*
Y169D01*
Y85D02*
Y132D01*
X1206Y187D02*
Y235D01*
Y137D02*
Y169D01*
Y85D02*
Y132D01*
X1206Y186D02*
Y235D01*
Y139D02*
Y169D01*
Y85D02*
Y131D01*
X1205Y187D02*
Y235D01*
Y137D02*
Y169D01*
Y85D02*
Y131D01*
X1205Y187D02*
Y235D01*
Y137D02*
Y169D01*
Y85D02*
Y131D01*
X1205Y185D02*
Y235D01*
Y139D02*
Y168D01*
Y85D02*
Y132D01*
X1204Y185D02*
Y235D01*
Y139D02*
Y168D01*
Y85D02*
Y132D01*
X1204Y185D02*
Y235D01*
Y140D02*
Y168D01*
Y85D02*
Y131D01*
X1204Y185D02*
Y235D01*
Y140D02*
Y168D01*
Y85D02*
Y131D01*
X1203Y186D02*
Y235D01*
Y140D02*
Y168D01*
Y85D02*
Y132D01*
X1203Y186D02*
Y235D01*
Y140D02*
Y168D01*
Y85D02*
Y132D01*
X1203Y185D02*
Y235D01*
Y140D02*
Y168D01*
Y85D02*
Y133D01*
X1202Y185D02*
Y235D01*
Y140D02*
Y168D01*
Y85D02*
Y133D01*
X1202Y185D02*
Y235D01*
Y140D02*
Y167D01*
Y85D02*
Y132D01*
X1202Y185D02*
Y235D01*
Y140D02*
Y167D01*
Y85D02*
Y132D01*
X1202Y185D02*
Y235D01*
Y140D02*
Y167D01*
Y85D02*
Y133D01*
X1201Y185D02*
Y235D01*
Y140D02*
Y167D01*
Y85D02*
Y133D01*
X1201Y184D02*
Y235D01*
Y141D02*
Y168D01*
Y85D02*
Y132D01*
X1201Y184D02*
Y235D01*
Y140D02*
Y167D01*
Y85D02*
Y133D01*
X1200Y184D02*
Y235D01*
Y140D02*
Y167D01*
Y85D02*
Y133D01*
X1200Y184D02*
Y235D01*
Y141D02*
Y167D01*
Y85D02*
Y133D01*
X1200Y184D02*
Y235D01*
Y141D02*
Y167D01*
Y85D02*
Y133D01*
X1199Y184D02*
Y235D01*
Y141D02*
Y166D01*
Y85D02*
Y133D01*
X1199Y184D02*
Y235D01*
Y141D02*
Y166D01*
Y85D02*
Y133D01*
X1199Y183D02*
Y235D01*
Y140D02*
Y167D01*
Y85D02*
Y134D01*
X1199Y183D02*
Y235D01*
Y140D02*
Y167D01*
Y85D02*
Y134D01*
X1198Y184D02*
Y235D01*
Y142D02*
Y166D01*
Y85D02*
Y134D01*
X1198Y184D02*
Y235D01*
Y142D02*
Y166D01*
Y85D02*
Y134D01*
X1198Y183D02*
Y235D01*
Y142D02*
Y167D01*
Y85D02*
Y135D01*
X1197Y183D02*
Y235D01*
Y142D02*
Y167D01*
Y85D02*
Y135D01*
X1197Y182D02*
Y235D01*
Y143D02*
Y165D01*
Y85D02*
Y134D01*
X1197Y183D02*
Y235D01*
Y143D02*
Y165D01*
Y85D02*
Y135D01*
X1196Y183D02*
Y235D01*
Y143D02*
Y165D01*
Y85D02*
Y135D01*
X1196Y182D02*
Y235D01*
Y143D02*
Y165D01*
Y85D02*
Y134D01*
X1196Y182D02*
Y235D01*
Y143D02*
Y165D01*
Y85D02*
Y134D01*
X1196Y183D02*
Y235D01*
Y144D02*
Y164D01*
Y85D02*
Y135D01*
X1195Y183D02*
Y235D01*
Y144D02*
Y164D01*
Y85D02*
Y135D01*
X1195Y182D02*
Y235D01*
Y143D02*
Y165D01*
Y85D02*
Y136D01*
X1195Y182D02*
Y235D01*
Y143D02*
Y165D01*
Y85D02*
Y136D01*
X1194Y180D02*
Y235D01*
Y144D02*
Y165D01*
Y85D02*
Y136D01*
X1194Y180D02*
Y235D01*
Y144D02*
Y165D01*
Y85D02*
Y136D01*
X1194Y182D02*
Y235D01*
Y144D02*
Y164D01*
Y85D02*
Y136D01*
X1194Y182D02*
Y235D01*
Y144D02*
Y164D01*
Y85D02*
Y136D01*
X1193Y182D02*
Y235D01*
Y145D02*
Y164D01*
Y85D02*
Y136D01*
X1193Y182D02*
Y235D01*
Y145D02*
Y164D01*
Y85D02*
Y136D01*
X1193Y181D02*
Y235D01*
Y144D02*
Y163D01*
Y85D02*
Y137D01*
X1192Y180D02*
Y235D01*
Y144D02*
Y163D01*
Y85D02*
Y136D01*
X1192Y180D02*
Y235D01*
Y144D02*
Y163D01*
Y85D02*
Y136D01*
X1192Y181D02*
Y235D01*
Y145D02*
Y163D01*
Y85D02*
Y137D01*
X1191Y181D02*
Y235D01*
Y145D02*
Y163D01*
Y85D02*
Y137D01*
X1191Y179D02*
Y235D01*
Y145D02*
Y162D01*
Y85D02*
Y137D01*
X1191Y179D02*
Y235D01*
Y145D02*
Y162D01*
Y85D02*
Y137D01*
X1191Y179D02*
Y235D01*
Y145D02*
Y163D01*
Y85D02*
Y137D01*
X1190Y179D02*
Y235D01*
Y145D02*
Y163D01*
Y85D02*
Y137D01*
X1190Y180D02*
Y235D01*
Y145D02*
Y162D01*
Y85D02*
Y139D01*
X1190Y180D02*
Y235D01*
Y145D02*
Y162D01*
Y85D02*
Y139D01*
X1189Y179D02*
Y235D01*
Y146D02*
Y162D01*
Y85D02*
Y137D01*
X1189Y179D02*
Y235D01*
Y146D02*
Y162D01*
Y85D02*
Y137D01*
X1189Y180D02*
Y235D01*
Y145D02*
Y162D01*
Y85D02*
Y138D01*
X1188Y180D02*
Y235D01*
Y145D02*
Y162D01*
Y85D02*
Y138D01*
X1188Y179D02*
Y235D01*
Y146D02*
Y162D01*
Y85D02*
Y138D01*
X1188Y179D02*
Y235D01*
Y146D02*
Y162D01*
Y85D02*
Y140D01*
X1188Y179D02*
Y235D01*
Y146D02*
Y162D01*
Y85D02*
Y140D01*
X1187Y179D02*
Y235D01*
Y147D02*
Y162D01*
Y85D02*
Y138D01*
X1187Y179D02*
Y235D01*
Y147D02*
Y162D01*
Y85D02*
Y138D01*
X1187Y178D02*
Y235D01*
Y146D02*
Y161D01*
Y85D02*
Y140D01*
X1186Y178D02*
Y235D01*
Y146D02*
Y161D01*
Y85D02*
Y140D01*
X1186Y178D02*
Y235D01*
Y147D02*
Y160D01*
Y85D02*
Y140D01*
X1186Y178D02*
Y235D01*
Y147D02*
Y160D01*
Y85D02*
Y140D01*
X1185Y178D02*
Y235D01*
Y147D02*
Y160D01*
Y85D02*
Y140D01*
X1185Y178D02*
Y235D01*
Y147D02*
Y160D01*
Y85D02*
Y140D01*
X1185Y178D02*
Y235D01*
Y148D02*
Y161D01*
Y85D02*
Y140D01*
X1184Y178D02*
Y235D01*
Y148D02*
Y161D01*
Y85D02*
Y140D01*
X1184Y178D02*
Y235D01*
Y148D02*
Y160D01*
Y85D02*
Y140D01*
X1184Y178D02*
Y235D01*
Y148D02*
Y160D01*
Y85D02*
Y140D01*
X1184Y176D02*
Y235D01*
Y149D02*
Y160D01*
Y85D02*
Y140D01*
X1183Y177D02*
Y235D01*
Y148D02*
Y159D01*
Y85D02*
Y140D01*
X1183Y177D02*
Y235D01*
Y148D02*
Y159D01*
Y85D02*
Y140D01*
X1183Y176D02*
Y235D01*
Y149D02*
Y160D01*
Y85D02*
Y140D01*
X1182Y176D02*
Y235D01*
Y149D02*
Y160D01*
Y85D02*
Y140D01*
X1182Y176D02*
Y235D01*
Y149D02*
Y159D01*
Y85D02*
Y141D01*
X1182Y176D02*
Y235D01*
Y149D02*
Y159D01*
Y85D02*
Y141D01*
X1181Y176D02*
Y235D01*
Y149D02*
Y159D01*
Y85D02*
Y141D01*
X1181Y176D02*
Y235D01*
Y149D02*
Y159D01*
Y85D02*
Y141D01*
X1181Y176D02*
Y235D01*
Y149D02*
Y159D01*
Y85D02*
Y142D01*
X1181Y176D02*
Y235D01*
Y149D02*
Y159D01*
Y85D02*
Y142D01*
X1180Y175D02*
Y235D01*
Y149D02*
Y158D01*
Y85D02*
Y141D01*
X1180Y175D02*
Y235D01*
Y149D02*
Y158D01*
Y85D02*
Y141D01*
X1180Y176D02*
Y235D01*
Y149D02*
Y158D01*
Y85D02*
Y142D01*
X1179Y176D02*
Y235D01*
Y150D02*
Y159D01*
Y85D02*
Y142D01*
X1179Y176D02*
Y235D01*
Y150D02*
Y159D01*
Y85D02*
Y142D01*
X1179Y175D02*
Y235D01*
Y149D02*
Y158D01*
Y85D02*
Y142D01*
X1179Y175D02*
Y235D01*
Y149D02*
Y158D01*
Y85D02*
Y142D01*
X1178Y175D02*
Y235D01*
Y151D02*
Y158D01*
Y85D02*
Y144D01*
X1178Y175D02*
Y235D01*
Y151D02*
Y158D01*
Y85D02*
Y144D01*
X1178Y175D02*
Y235D01*
Y149D02*
Y158D01*
Y85D02*
Y143D01*
X1177Y175D02*
Y235D01*
Y149D02*
Y158D01*
Y85D02*
Y143D01*
X1177Y175D02*
Y235D01*
Y151D02*
Y157D01*
Y85D02*
Y145D01*
X1177Y175D02*
Y235D01*
Y151D02*
Y157D01*
Y85D02*
Y145D01*
X1176Y174D02*
Y235D01*
Y150D02*
Y156D01*
Y85D02*
Y145D01*
X1176Y174D02*
Y235D01*
Y150D02*
Y156D01*
Y85D02*
Y145D01*
X1176Y174D02*
Y235D01*
Y150D02*
Y157D01*
Y85D02*
Y144D01*
X1176Y174D02*
Y235D01*
Y150D02*
Y157D01*
Y85D02*
Y144D01*
X1175Y174D02*
Y235D01*
Y152D02*
Y156D01*
Y85D02*
Y145D01*
X1175Y174D02*
Y235D01*
Y151D02*
Y156D01*
Y85D02*
Y144D01*
X1175Y174D02*
Y235D01*
Y151D02*
Y156D01*
Y85D02*
Y144D01*
X1174Y171D02*
Y235D01*
Y153D02*
Y157D01*
Y85D02*
Y145D01*
X1174Y171D02*
Y235D01*
Y153D02*
Y157D01*
Y85D02*
Y145D01*
X1174Y174D02*
Y235D01*
Y151D02*
Y155D01*
Y85D02*
Y145D01*
X1173Y174D02*
Y235D01*
Y151D02*
Y155D01*
Y85D02*
Y145D01*
X1173Y173D02*
Y235D01*
Y153D02*
Y156D01*
Y85D02*
Y145D01*
X1173Y173D02*
Y235D01*
Y153D02*
Y156D01*
Y85D02*
Y145D01*
X1173Y173D02*
Y235D01*
Y153D02*
Y155D01*
Y85D02*
Y145D01*
X1172Y173D02*
Y235D01*
Y153D02*
Y155D01*
Y85D02*
Y145D01*
X1172Y173D02*
Y235D01*
Y153D02*
Y156D01*
Y85D02*
Y145D01*
X1172Y173D02*
Y235D01*
Y153D02*
Y156D01*
Y85D02*
Y145D01*
X1171Y172D02*
Y235D01*
Y153D02*
Y156D01*
Y85D02*
Y145D01*
X1171Y172D02*
Y235D01*
Y153D02*
Y156D01*
Y85D02*
Y145D01*
X1171Y173D02*
Y235D01*
Y85D02*
Y146D01*
X1170Y171D02*
Y235D01*
Y85D02*
Y146D01*
X1170Y171D02*
Y235D01*
Y85D02*
Y146D01*
X1170Y172D02*
Y235D01*
Y85D02*
Y146D01*
X1169Y172D02*
Y235D01*
Y85D02*
Y146D01*
X1169Y171D02*
Y235D01*
Y85D02*
Y146D01*
X1169Y171D02*
Y235D01*
Y85D02*
Y146D01*
X1169Y171D02*
Y235D01*
Y85D02*
Y147D01*
X1168Y171D02*
Y235D01*
Y85D02*
Y147D01*
X1168Y170D02*
Y235D01*
Y85D02*
Y147D01*
X1168Y170D02*
Y235D01*
Y85D02*
Y147D01*
X1167Y170D02*
Y235D01*
Y85D02*
Y147D01*
X1167Y170D02*
Y235D01*
Y85D02*
Y147D01*
X1167Y171D02*
Y235D01*
Y85D02*
Y149D01*
X1166Y171D02*
Y235D01*
Y85D02*
Y149D01*
X1166Y170D02*
Y235D01*
Y85D02*
Y148D01*
X1166Y170D02*
Y235D01*
Y85D02*
Y149D01*
X1166Y170D02*
Y235D01*
Y85D02*
Y149D01*
X1165Y169D02*
Y235D01*
Y85D02*
Y148D01*
X1165Y169D02*
Y235D01*
Y85D02*
Y148D01*
X1165Y169D02*
Y235D01*
Y85D02*
Y149D01*
X1164Y169D02*
Y235D01*
Y85D02*
Y149D01*
X1164Y170D02*
Y235D01*
Y85D02*
Y149D01*
X1164Y170D02*
Y235D01*
Y85D02*
Y149D01*
X1163Y169D02*
Y235D01*
Y85D02*
Y149D01*
X1163Y169D02*
Y235D01*
Y85D02*
Y149D01*
X1163Y169D02*
Y235D01*
Y85D02*
Y149D01*
X1163Y169D02*
Y235D01*
Y85D02*
Y149D01*
X1162Y169D02*
Y235D01*
Y85D02*
Y149D01*
X1162Y169D02*
Y235D01*
Y85D02*
Y151D01*
X1162Y169D02*
Y235D01*
Y85D02*
Y151D01*
X1161Y168D02*
Y235D01*
Y85D02*
Y149D01*
X1161Y168D02*
Y235D01*
Y85D02*
Y149D01*
X1161Y168D02*
Y235D01*
Y85D02*
Y150D01*
X1161Y168D02*
Y235D01*
Y85D02*
Y150D01*
X1160Y168D02*
Y235D01*
Y85D02*
Y150D01*
X1160Y168D02*
Y235D01*
Y85D02*
Y150D01*
X1160Y167D02*
Y235D01*
Y85D02*
Y150D01*
X1159Y167D02*
Y235D01*
Y85D02*
Y150D01*
X1159Y168D02*
Y235D01*
Y85D02*
Y151D01*
X1159Y168D02*
Y235D01*
Y85D02*
Y151D01*
X1158Y166D02*
Y235D01*
Y85D02*
Y151D01*
X1158Y166D02*
Y235D01*
Y85D02*
Y151D01*
X1158Y167D02*
Y235D01*
Y85D02*
Y153D01*
X1158Y167D02*
Y235D01*
Y85D02*
Y151D01*
X1157Y167D02*
Y235D01*
Y85D02*
Y151D01*
X1157Y167D02*
Y235D01*
Y85D02*
Y152D01*
X1157Y167D02*
Y235D01*
Y85D02*
Y152D01*
X1156Y166D02*
Y235D01*
Y85D02*
Y153D01*
X1156Y166D02*
Y235D01*
Y85D02*
Y153D01*
X1156Y165D02*
Y235D01*
Y85D02*
Y152D01*
X1155Y165D02*
Y235D01*
Y85D02*
Y152D01*
X1155Y166D02*
Y235D01*
Y85D02*
Y153D01*
X1155Y166D02*
Y235D01*
Y85D02*
Y153D01*
X1155Y165D02*
Y235D01*
Y85D02*
Y153D01*
X1154Y165D02*
Y235D01*
Y85D02*
Y153D01*
X1154Y165D02*
Y235D01*
Y85D02*
Y153D01*
X1154Y165D02*
Y235D01*
Y85D02*
Y153D01*
X1153Y165D02*
Y235D01*
Y85D02*
Y153D01*
X1153Y165D02*
Y235D01*
Y85D02*
Y153D01*
X1153Y165D02*
Y235D01*
Y85D02*
Y153D01*
X1152Y165D02*
Y235D01*
Y85D02*
Y155D01*
X1152Y165D02*
Y235D01*
Y85D02*
Y155D01*
X1152Y164D02*
Y235D01*
Y85D02*
Y153D01*
X1151Y164D02*
Y235D01*
Y85D02*
Y153D01*
X1151Y163D02*
Y235D01*
Y85D02*
Y155D01*
X1151Y163D02*
Y235D01*
Y85D02*
Y155D01*
X1151Y163D02*
Y235D01*
Y85D02*
Y154D01*
X1150Y163D02*
Y235D01*
Y85D02*
Y154D01*
X1150Y164D02*
Y235D01*
Y85D02*
Y155D01*
X1150Y164D02*
Y235D01*
Y85D02*
Y155D01*
X1149Y162D02*
Y235D01*
Y85D02*
Y155D01*
X1149Y162D02*
Y235D01*
Y85D02*
Y155D01*
X1149Y163D02*
Y235D01*
Y85D02*
Y155D01*
X1148Y162D02*
Y235D01*
Y85D02*
Y156D01*
X1148Y162D02*
Y235D01*
Y85D02*
Y156D01*
X1148Y163D02*
Y235D01*
Y85D02*
Y158D01*
X1148Y163D02*
Y235D01*
Y85D02*
Y158D01*
X1147Y162D02*
Y235D01*
Y85D02*
Y156D01*
X1147Y162D02*
Y235D01*
Y85D02*
Y156D01*
X1147Y162D02*
Y235D01*
Y85D02*
Y156D01*
X1146Y162D02*
Y235D01*
Y85D02*
Y156D01*
X1146Y162D02*
Y235D01*
Y85D02*
Y157D01*
X1146Y162D02*
Y235D01*
Y85D02*
Y157D01*
X1145Y161D02*
Y235D01*
Y85D02*
Y158D01*
X1145Y161D02*
Y235D01*
Y85D02*
Y158D01*
X1145Y162D02*
Y235D01*
Y85D02*
Y157D01*
X1145Y162D02*
Y235D01*
Y85D02*
Y158D01*
X1144Y162D02*
Y235D01*
Y85D02*
Y158D01*
X1144Y162D02*
Y235D01*
Y85D02*
Y160D01*
X1144Y162D02*
Y235D01*
Y85D02*
Y160D01*
X1143Y161D02*
Y235D01*
Y85D02*
Y159D01*
X1143Y161D02*
Y235D01*
Y85D02*
Y159D01*
X1143Y85D02*
Y235D01*
X1143Y85D02*
Y235D01*
X1142Y85D02*
Y235D01*
X1142Y85D02*
Y235D01*
X1142Y85D02*
Y235D01*
X1141Y85D02*
Y235D01*
X1141Y85D02*
Y235D01*
X1141Y85D02*
Y235D01*
X1140Y85D02*
Y235D01*
X1140Y85D02*
Y235D01*
X1140Y85D02*
Y235D01*
X1140Y85D02*
Y235D01*
X1139Y85D02*
Y235D01*
X1139Y85D02*
Y235D01*
X1139Y85D02*
Y235D01*
X1138Y85D02*
Y235D01*
X1138Y85D02*
Y235D01*
X1138Y85D02*
Y235D01*
X1137Y85D02*
Y235D01*
X1137Y85D02*
Y235D01*
X1137Y85D02*
Y235D01*
X1137Y85D02*
Y235D01*
X1136Y85D02*
Y235D01*
X1136Y85D02*
Y235D01*
X1136Y85D02*
Y235D01*
X1135Y85D02*
Y235D01*
X1135Y85D02*
Y235D01*
X1135Y85D02*
Y235D01*
X1134Y85D02*
Y235D01*
X1134Y85D02*
Y235D01*
X1134Y85D02*
Y235D01*
X1133Y85D02*
Y235D01*
X1133Y85D02*
Y235D01*
X1133Y85D02*
Y235D01*
X1133Y85D02*
Y235D01*
X1132Y85D02*
Y235D01*
X1132Y85D02*
Y235D01*
X1132Y85D02*
Y235D01*
X1131Y85D02*
Y235D01*
X1131Y85D02*
Y235D01*
X1131Y85D02*
Y235D01*
X1130Y85D02*
Y235D01*
X1130Y85D02*
Y235D01*
X1130Y85D02*
Y235D01*
X1130Y85D02*
Y235D01*
M02*
