%FSLAX23Y23*%
%MOIN*%
G70*
G01*
G75*
G04 Layer_Color=32896*
%ADD10R,0.035X0.031*%
%ADD11R,0.079X0.079*%
%ADD12R,0.051X0.079*%
%ADD13R,0.118X0.039*%
%ADD14R,0.118X0.059*%
%ADD15C,0.010*%
%ADD16C,0.079*%
%ADD17C,0.060*%
%ADD18C,0.039*%
%ADD19C,0.236*%
%ADD20C,0.004*%
%ADD21C,0.000*%
%ADD22C,0.000*%
%ADD23C,0.059*%
%ADD24C,0.020*%
%ADD25R,0.043X0.039*%
%ADD26R,0.087X0.087*%
%ADD27R,0.059X0.087*%
%ADD28R,0.126X0.047*%
%ADD29R,0.126X0.067*%
%ADD30C,0.087*%
%ADD31C,0.068*%
%ADD32C,0.020*%
%ADD33C,0.030*%
%ADD34C,0.004*%
%ADD35C,0.000*%
%ADD36R,0.015X0.040*%
%ADD37R,0.015X0.035*%
D32*
X1170Y515D02*
G03*
X1170Y515I-40J0D01*
G01*
X1230Y565D02*
G03*
X1034Y560I-100J46D01*
G01*
X1034Y560D02*
X1085Y525D01*
X1170D02*
X1230Y565D01*
X1090Y435D02*
X1170D01*
X1090Y400D02*
X1170D01*
D33*
X1105Y625D02*
G03*
X1105Y625I-15J0D01*
G01*
X1185D02*
G03*
X1185Y625I-15J0D01*
G01*
D34*
X1125Y535D02*
G03*
X1125Y535I-2J0D01*
G01*
X1135D02*
G03*
X1135Y535I-2J0D01*
G01*
X1145Y530D02*
G03*
X1145Y530I-2J0D01*
G01*
X1150Y520D02*
G03*
X1150Y520I-2J0D01*
G01*
Y510D02*
G03*
X1150Y510I-2J0D01*
G01*
X1145Y500D02*
G03*
X1145Y500I-2J0D01*
G01*
X1135Y495D02*
G03*
X1135Y495I-2J0D01*
G01*
X1125D02*
G03*
X1125Y495I-2J0D01*
G01*
X1115Y500D02*
G03*
X1115Y500I-2J0D01*
G01*
X1110Y510D02*
G03*
X1110Y510I-2J0D01*
G01*
Y520D02*
G03*
X1110Y520I-2J0D01*
G01*
X1115Y530D02*
G03*
X1115Y530I-2J0D01*
G01*
D35*
X328Y750D02*
X334D01*
X328Y750D02*
X334D01*
X329Y750D02*
X334D01*
X328Y749D02*
X334D01*
X328Y749D02*
X334D01*
X328Y749D02*
X334D01*
X328Y748D02*
X334D01*
X328Y748D02*
X333D01*
X333D02*
X334D01*
X328Y748D02*
X337D01*
X328Y747D02*
X337D01*
X328Y747D02*
X336D01*
X336D02*
X337D01*
X328Y747D02*
X337D01*
X328Y746D02*
X337D01*
X328Y746D02*
X337D01*
X328Y745D02*
X337D01*
X328Y745D02*
X337D01*
X328Y745D02*
X337D01*
X328Y744D02*
X337D01*
X328Y744D02*
X337D01*
X328Y744D02*
X337D01*
X328Y743D02*
X337D01*
X328Y743D02*
X329D01*
X330D02*
X337D01*
X328Y743D02*
X337D01*
X328Y742D02*
X337D01*
X328Y742D02*
X339D01*
X339D02*
X339D01*
X328Y742D02*
X339D01*
X328Y741D02*
X329D01*
X329D02*
X339D01*
X328Y741D02*
X339D01*
X329Y741D02*
X339D01*
X328Y740D02*
X339D01*
X329Y740D02*
X339D01*
X329Y739D02*
X339D01*
X328Y739D02*
X342D01*
X328Y739D02*
X342D01*
X328Y738D02*
X342D01*
X328Y738D02*
X342D01*
X328Y738D02*
X342D01*
X328Y737D02*
X342D01*
X328Y737D02*
X342D01*
X328Y737D02*
X342D01*
X328Y736D02*
X342D01*
X328Y736D02*
X342D01*
X328Y736D02*
X342D01*
X328Y735D02*
X342D01*
X328Y735D02*
X342D01*
X328Y735D02*
X342D01*
X328Y734D02*
X342D01*
X328Y734D02*
X342D01*
X328Y734D02*
X345D01*
X328Y733D02*
X345D01*
X328Y733D02*
X345D01*
X328Y733D02*
X345D01*
X329Y732D02*
X345D01*
X328Y732D02*
X345D01*
X328Y731D02*
X345D01*
X328Y731D02*
X345D01*
X328Y731D02*
X348D01*
X328Y730D02*
X345D01*
X345D02*
X348D01*
X328Y730D02*
X346D01*
X346D02*
X348D01*
X328Y730D02*
X348D01*
X328Y729D02*
X348D01*
X328Y729D02*
X348D01*
X328Y729D02*
X348D01*
X328Y728D02*
X348D01*
X328Y728D02*
X348D01*
X328Y728D02*
X348D01*
X328Y727D02*
X348D01*
X328Y727D02*
X348D01*
X328Y727D02*
X348D01*
X328Y726D02*
X348D01*
X328Y726D02*
X348D01*
X328Y725D02*
X348D01*
X325Y725D02*
X326D01*
X327D02*
X351D01*
X325Y725D02*
X326D01*
X327D02*
X351D01*
X325Y724D02*
X326D01*
X327D02*
X351D01*
X325Y724D02*
X326D01*
X327D02*
X351D01*
X325Y724D02*
X326D01*
X327D02*
X351D01*
X325Y723D02*
X351D01*
X325Y723D02*
X326D01*
X327D02*
X351D01*
X325Y723D02*
X326D01*
X327D02*
X351D01*
X325Y722D02*
X326D01*
X327D02*
X352D01*
X353D02*
X353D01*
X325Y722D02*
X326D01*
X327D02*
X353D01*
X325Y722D02*
X326D01*
X327D02*
X352D01*
X352D02*
X353D01*
X325Y721D02*
X326D01*
X327D02*
X351D01*
X351D02*
X352D01*
X352D02*
X353D01*
X325Y721D02*
X326D01*
X327D02*
X352D01*
X352D02*
X353D01*
X325Y721D02*
X326D01*
X327D02*
X353D01*
X325Y720D02*
X326D01*
X327D02*
X353D01*
X325Y720D02*
X326D01*
X327D02*
X352D01*
X352D02*
X353D01*
X325Y720D02*
X326D01*
X327D02*
X353D01*
X325Y719D02*
X326D01*
X327D02*
X353D01*
X325Y719D02*
X326D01*
X327D02*
X353D01*
X325Y719D02*
X326D01*
X327D02*
X353D01*
X325Y718D02*
X326D01*
X327D02*
X353D01*
X325Y718D02*
X326D01*
X327D02*
X353D01*
X325Y717D02*
X326D01*
X327D02*
X353D01*
X325Y717D02*
X326D01*
X327D02*
X353D01*
X325Y717D02*
X326D01*
X327D02*
X356D01*
X325Y716D02*
X326D01*
X327D02*
X356D01*
X325Y716D02*
X326D01*
X327D02*
X354D01*
X355D02*
X356D01*
X325Y716D02*
X326D01*
X327D02*
X356D01*
X356D02*
X356D01*
X325Y715D02*
X326D01*
X327D02*
X356D01*
X325Y715D02*
X326D01*
X327D02*
X356D01*
X325Y715D02*
X326D01*
X327D02*
X356D01*
X325Y714D02*
X326D01*
X327D02*
X356D01*
X325Y714D02*
X326D01*
X327D02*
X356D01*
X325Y714D02*
X326D01*
X327D02*
X356D01*
X325Y713D02*
X326D01*
X327D02*
X355D01*
X356D02*
X356D01*
X325Y713D02*
X326D01*
X327D02*
X356D01*
X325Y713D02*
X326D01*
X327D02*
X356D01*
X325Y712D02*
X326D01*
X327D02*
X356D01*
X325Y712D02*
X326D01*
X327D02*
X356D01*
X325Y711D02*
X326D01*
X327D02*
X356D01*
X325Y711D02*
X326D01*
X327D02*
X359D01*
X325Y711D02*
X326D01*
X327D02*
X359D01*
X325Y710D02*
X326D01*
X327D02*
X359D01*
X325Y710D02*
X326D01*
X327D02*
X359D01*
X325Y710D02*
X326D01*
X327D02*
X359D01*
X325Y709D02*
X326D01*
X327D02*
X359D01*
X325Y709D02*
X326D01*
X327D02*
X359D01*
X325Y709D02*
X326D01*
X327D02*
X359D01*
X325Y708D02*
X326D01*
X327D02*
X362D01*
X325Y708D02*
X326D01*
X327D02*
X359D01*
X360D02*
X362D01*
X325Y708D02*
X326D01*
X327D02*
X360D01*
X360D02*
X362D01*
X325Y707D02*
X326D01*
X327D02*
X362D01*
X325Y707D02*
X326D01*
X327D02*
X361D01*
X361D02*
X362D01*
X325Y707D02*
X326D01*
X327D02*
X362D01*
X325Y706D02*
X326D01*
X327D02*
X362D01*
X325Y706D02*
X326D01*
X327D02*
X362D01*
X325Y706D02*
X326D01*
X327D02*
X362D01*
X325Y705D02*
X326D01*
X327D02*
X362D01*
X325Y705D02*
X326D01*
X327D02*
X362D01*
X325Y705D02*
X326D01*
X327D02*
X362D01*
X325Y704D02*
X326D01*
X327D02*
X362D01*
X325Y704D02*
X326D01*
X327D02*
X362D01*
X325Y703D02*
X326D01*
X327D02*
X362D01*
X325Y703D02*
X326D01*
X327D02*
X362D01*
X325Y703D02*
X326D01*
X327D02*
X365D01*
X325Y702D02*
X326D01*
X327D02*
X365D01*
X325Y702D02*
X326D01*
X327D02*
X365D01*
X325Y702D02*
X326D01*
X327D02*
X365D01*
X325Y701D02*
X326D01*
X327D02*
X365D01*
X325Y701D02*
X326D01*
X327D02*
X364D01*
X364D02*
X365D01*
X325Y701D02*
X326D01*
X327D02*
X365D01*
X325Y700D02*
X326D01*
X327D02*
X364D01*
X325Y700D02*
X367D01*
X325Y700D02*
X367D01*
X325Y699D02*
X367D01*
X325Y699D02*
X366D01*
X366D02*
X367D01*
X325Y699D02*
X326D01*
X326D02*
X367D01*
X325Y698D02*
X326D01*
X326D02*
X367D01*
X325Y698D02*
X326D01*
X327D02*
X367D01*
X325Y697D02*
X367D01*
X328Y697D02*
X367D01*
X328Y697D02*
X367D01*
X328Y696D02*
X367D01*
X328Y696D02*
X367D01*
X328Y696D02*
X367D01*
X328Y695D02*
X367D01*
X328Y695D02*
X367D01*
X328Y695D02*
X367D01*
X328Y694D02*
X370D01*
X328Y694D02*
X370D01*
X328Y694D02*
X368D01*
X368D02*
X370D01*
X328Y693D02*
X370D01*
X328Y693D02*
X370D01*
X328Y693D02*
X370D01*
X328Y692D02*
X370D01*
X328Y692D02*
X370D01*
X328Y692D02*
X370D01*
X328Y691D02*
X370D01*
X370D02*
X370D01*
X328Y691D02*
X370D01*
X328Y691D02*
X370D01*
X328Y690D02*
X370D01*
X328Y690D02*
X370D01*
X328Y689D02*
X370D01*
X328Y689D02*
X370D01*
X275Y689D02*
X278D01*
X328D02*
X373D01*
X275Y688D02*
X275D01*
X276D02*
X278D01*
X328D02*
X373D01*
X275Y688D02*
X278D01*
X328D02*
X373D01*
X275Y688D02*
X278D01*
X329D02*
X373D01*
X275Y687D02*
X278D01*
X328D02*
X373D01*
X275Y687D02*
X278D01*
X328D02*
X373D01*
X275Y687D02*
X278D01*
X328D02*
X373D01*
X275Y686D02*
X278D01*
X328D02*
X373D01*
X275Y686D02*
X279D01*
X280D02*
X283D01*
X328D02*
X373D01*
X275Y686D02*
X283D01*
X328D02*
X373D01*
X275Y685D02*
X283D01*
X328D02*
X373D01*
X275Y685D02*
X283D01*
X328D02*
X373D01*
X275Y685D02*
X283D01*
X328D02*
X373D01*
X275Y684D02*
X283D01*
X328D02*
X373D01*
X275Y684D02*
X283D01*
X328D02*
X373D01*
X275Y683D02*
X283D01*
X328D02*
X373D01*
X275Y683D02*
X292D01*
X328D02*
X373D01*
X275Y683D02*
X292D01*
X328D02*
X373D01*
X275Y682D02*
X292D01*
X328D02*
X373D01*
X275Y682D02*
X290D01*
X290D02*
X292D01*
X328D02*
X373D01*
X275Y682D02*
X292D01*
X328D02*
X373D01*
X275Y681D02*
X289D01*
X290D02*
X292D01*
X328D02*
X373D01*
X275Y681D02*
X292D01*
X328D02*
X373D01*
X275Y681D02*
X292D01*
X328D02*
X373D01*
X275Y680D02*
X295D01*
X328D02*
X376D01*
X275Y680D02*
X295D01*
X328D02*
X376D01*
X275Y680D02*
X295D01*
X328D02*
X376D01*
X275Y679D02*
X295D01*
X328D02*
X376D01*
X275Y679D02*
X295D01*
X328D02*
X329D01*
X329D02*
X375D01*
X375D02*
X376D01*
X275Y679D02*
X295D01*
X328D02*
X329D01*
X329D02*
X376D01*
X275Y678D02*
X295D01*
X328D02*
X374D01*
X375D02*
X375D01*
X375D02*
X376D01*
X275Y678D02*
X295D01*
X328D02*
X376D01*
X275Y678D02*
X296D01*
X296D02*
X297D01*
X328D02*
X376D01*
X275Y677D02*
X297D01*
X328D02*
X376D01*
X275Y677D02*
X297D01*
X328D02*
X329D01*
X329D02*
X376D01*
X275Y677D02*
X297D01*
X328D02*
X329D01*
X329D02*
X376D01*
X275Y676D02*
X297D01*
X328D02*
X376D01*
X275Y676D02*
X297D01*
X328D02*
X376D01*
X275Y675D02*
X297D01*
X328D02*
X376D01*
X275Y675D02*
X297D01*
X328D02*
X376D01*
X275Y675D02*
X300D01*
X328D02*
X376D01*
X275Y674D02*
X298D01*
X298D02*
X300D01*
X328D02*
X376D01*
X275Y674D02*
X300D01*
X328D02*
X376D01*
X275Y674D02*
X300D01*
X328D02*
X376D01*
X275Y673D02*
X300D01*
X328D02*
X376D01*
X275Y673D02*
X300D01*
X328D02*
X376D01*
X275Y673D02*
X300D01*
X328D02*
X376D01*
X275Y672D02*
X300D01*
X328D02*
X376D01*
X275Y672D02*
X303D01*
X328D02*
X379D01*
X275Y672D02*
X303D01*
X328D02*
X379D01*
X275Y671D02*
X303D01*
X328D02*
X379D01*
X275Y671D02*
X303D01*
X328D02*
X379D01*
X275Y671D02*
X303D01*
X328D02*
X379D01*
X275Y670D02*
X303D01*
X328D02*
X379D01*
X275Y670D02*
X303D01*
X328D02*
X379D01*
X275Y669D02*
X303D01*
X328D02*
X379D01*
X275Y669D02*
X303D01*
X328D02*
X379D01*
X275Y669D02*
X303D01*
X328D02*
X379D01*
X275Y668D02*
X303D01*
X303D02*
X304D01*
X328D02*
X379D01*
X275Y668D02*
X303D01*
X304D02*
X304D01*
X328D02*
X379D01*
X275Y668D02*
X303D01*
X328D02*
X379D01*
X275Y667D02*
X303D01*
X304D02*
X305D01*
X328D02*
X379D01*
X275Y667D02*
X304D01*
X305D02*
X305D01*
X328D02*
X379D01*
X275Y667D02*
X304D01*
X328D02*
X379D01*
X275Y666D02*
X306D01*
X328D02*
X381D01*
X404D02*
X409D01*
X275Y666D02*
X305D01*
X305D02*
X306D01*
X328D02*
X381D01*
X404D02*
X409D01*
X275Y666D02*
X306D01*
X328D02*
X381D01*
X404D02*
X409D01*
X275Y665D02*
X306D01*
X328D02*
X379D01*
X380D02*
X381D01*
X404D02*
X409D01*
X275Y665D02*
X306D01*
X328D02*
X381D01*
X404D02*
X409D01*
X275Y665D02*
X306D01*
X328D02*
X381D01*
X404D02*
X409D01*
X275Y664D02*
X306D01*
X328D02*
X381D01*
X404D02*
X409D01*
X275Y664D02*
X306D01*
X328D02*
X381D01*
X404D02*
X409D01*
X278Y664D02*
X305D01*
X328D02*
X381D01*
X404D02*
X412D01*
X278Y663D02*
X306D01*
X328D02*
X380D01*
X380D02*
X381D01*
X404D02*
X412D01*
X278Y663D02*
X306D01*
X328D02*
X381D01*
X404D02*
X412D01*
X278Y663D02*
X306D01*
X328D02*
X381D01*
X404D02*
X412D01*
X278Y662D02*
X306D01*
X328D02*
X381D01*
X404D02*
X412D01*
X278Y662D02*
X306D01*
X328D02*
X381D01*
X404D02*
X412D01*
X278Y661D02*
X306D01*
X328D02*
X381D01*
X404D02*
X412D01*
X278Y661D02*
X306D01*
X328D02*
X381D01*
X404D02*
X412D01*
X278Y661D02*
X307D01*
X308D02*
X309D01*
X328D02*
X381D01*
X404D02*
X415D01*
X278Y660D02*
X309D01*
X328D02*
X381D01*
X404D02*
X415D01*
X278Y660D02*
X309D01*
X328D02*
X381D01*
X404D02*
X415D01*
X278Y660D02*
X308D01*
X308D02*
X309D01*
X328D02*
X381D01*
X404D02*
X415D01*
X278Y659D02*
X309D01*
X328D02*
X381D01*
X404D02*
X415D01*
X278Y659D02*
X309D01*
X328D02*
X381D01*
X404D02*
X415D01*
X278Y659D02*
X309D01*
X328D02*
X381D01*
X404D02*
X415D01*
X278Y658D02*
X309D01*
X328D02*
X381D01*
X404D02*
X415D01*
X278Y658D02*
X309D01*
X328D02*
X384D01*
X404D02*
X418D01*
X278Y658D02*
X307D01*
X308D02*
X309D01*
X328D02*
X384D01*
X404D02*
X418D01*
X278Y657D02*
X309D01*
X328D02*
X384D01*
X404D02*
X418D01*
X278Y657D02*
X309D01*
X328D02*
X384D01*
X404D02*
X418D01*
X278Y657D02*
X309D01*
X328D02*
X384D01*
X384D02*
X384D01*
X404D02*
X418D01*
X278Y656D02*
X308D01*
X328D02*
X384D01*
X404D02*
X418D01*
X278Y656D02*
X307D01*
X308D02*
X309D01*
X328D02*
X383D01*
X383D02*
X384D01*
X384D02*
X384D01*
X404D02*
X418D01*
X278Y655D02*
X309D01*
X328D02*
X384D01*
X404D02*
X418D01*
X278Y655D02*
X309D01*
X325D02*
X326D01*
X326D02*
X384D01*
X404D02*
X421D01*
X278Y655D02*
X309D01*
X326D02*
X384D01*
X404D02*
X419D01*
X419D02*
X421D01*
X278Y654D02*
X309D01*
X326D02*
X327D01*
X327D02*
X384D01*
X404D02*
X421D01*
X278Y654D02*
X309D01*
X325D02*
X326D01*
X327D02*
X328D01*
X328D02*
X384D01*
X404D02*
X418D01*
X418D02*
X421D01*
X278Y654D02*
X309D01*
X325D02*
X326D01*
X327D02*
X384D01*
X404D02*
X421D01*
X278Y653D02*
X309D01*
X325D02*
X384D01*
X404D02*
X421D01*
X278Y653D02*
X309D01*
X325D02*
X384D01*
X404D02*
X421D01*
X278Y653D02*
X309D01*
X325D02*
X326D01*
X327D02*
X384D01*
X404D02*
X421D01*
X278Y652D02*
X309D01*
X309D02*
X311D01*
X325D02*
X384D01*
X404D02*
X423D01*
X278Y652D02*
X310D01*
X310D02*
X311D01*
X325D02*
X384D01*
X404D02*
X422D01*
X423D02*
X423D01*
X278Y652D02*
X311D01*
X325D02*
X384D01*
X404D02*
X421D01*
X422D02*
X423D01*
X423D02*
X423D01*
X278Y651D02*
X311D01*
X325D02*
X384D01*
X404D02*
X421D01*
X422D02*
X423D01*
X278Y651D02*
X311D01*
X325D02*
X384D01*
X404D02*
X421D01*
X421D02*
X422D01*
X422D02*
X423D01*
X278Y651D02*
X311D01*
X325D02*
X384D01*
X404D02*
X422D01*
X423D02*
X423D01*
X278Y650D02*
X311D01*
X325D02*
X326D01*
X327D02*
X384D01*
X404D02*
X423D01*
X278Y650D02*
X311D01*
X325D02*
X384D01*
X404D02*
X422D01*
X422D02*
X423D01*
X281Y650D02*
X311D01*
X325D02*
X326D01*
X326D02*
X387D01*
X404D02*
X423D01*
X281Y649D02*
X311D01*
X325D02*
X326D01*
X326D02*
X387D01*
X404D02*
X423D01*
X281Y649D02*
X311D01*
X325D02*
X387D01*
X404D02*
X423D01*
X281Y649D02*
X311D01*
X325D02*
X387D01*
X404D02*
X423D01*
X281Y648D02*
X311D01*
X325D02*
X387D01*
X404D02*
X423D01*
X281Y648D02*
X311D01*
X325D02*
X387D01*
X404D02*
X423D01*
X281Y647D02*
X311D01*
X325D02*
X387D01*
X404D02*
X423D01*
X281Y647D02*
X311D01*
X325D02*
X387D01*
X404D02*
X423D01*
X281Y647D02*
X311D01*
X325D02*
X387D01*
X404D02*
X426D01*
X281Y646D02*
X311D01*
X325D02*
X326D01*
X327D02*
X387D01*
X404D02*
X426D01*
X281Y646D02*
X311D01*
X326D02*
X387D01*
X404D02*
X426D01*
X281Y646D02*
X311D01*
X325D02*
X387D01*
X404D02*
X426D01*
X281Y645D02*
X311D01*
X325D02*
X387D01*
X404D02*
X426D01*
X281Y645D02*
X311D01*
X325D02*
X387D01*
X404D02*
X426D01*
X281Y645D02*
X311D01*
X325D02*
X387D01*
X404D02*
X426D01*
X281Y644D02*
X311D01*
X325D02*
X387D01*
X404D02*
X426D01*
X281Y644D02*
X281D01*
X281D02*
X311D01*
X325D02*
X390D01*
X404D02*
X429D01*
X281Y644D02*
X311D01*
X325D02*
X326D01*
X326D02*
X390D01*
X404D02*
X428D01*
X428D02*
X429D01*
X281Y643D02*
X311D01*
X324D02*
X325D01*
X325D02*
X390D01*
X404D02*
X427D01*
X427D02*
X428D01*
X429D02*
X429D01*
X281Y643D02*
X311D01*
X324D02*
X325D01*
X325D02*
X390D01*
X404D02*
X427D01*
X428D02*
X429D01*
X281Y643D02*
X311D01*
X325D02*
X390D01*
X404D02*
X426D01*
X427D02*
X427D01*
X428D02*
X429D01*
X281Y642D02*
X311D01*
X323D02*
X324D01*
X325D02*
X390D01*
X404D02*
X428D01*
X428D02*
X429D01*
X281Y642D02*
X311D01*
X323D02*
X324D01*
X325D02*
X390D01*
X404D02*
X429D01*
X281Y641D02*
X311D01*
X325D02*
X390D01*
X404D02*
X427D01*
X428D02*
X429D01*
X281Y641D02*
X314D01*
X323D02*
X388D01*
X388D02*
X390D01*
X404D02*
X429D01*
X281Y641D02*
X314D01*
X323D02*
X390D01*
X404D02*
X429D01*
X281Y640D02*
X314D01*
X323D02*
X390D01*
X404D02*
X429D01*
X281Y640D02*
X314D01*
X323D02*
X390D01*
X404D02*
X429D01*
X281Y640D02*
X281D01*
X282D02*
X314D01*
X323D02*
X390D01*
X404D02*
X427D01*
X428D02*
X429D01*
X281Y639D02*
X314D01*
X323D02*
X390D01*
X404D02*
X429D01*
X281Y639D02*
X314D01*
X323D02*
X390D01*
X404D02*
X429D01*
X281Y639D02*
X314D01*
X323D02*
X390D01*
X404D02*
X429D01*
X281Y638D02*
X314D01*
X323D02*
X390D01*
X401D02*
X429D01*
X281Y638D02*
X314D01*
X323D02*
X390D01*
X401D02*
X429D01*
X281Y638D02*
X314D01*
X323D02*
X390D01*
X401D02*
X429D01*
X281Y637D02*
X314D01*
X323D02*
X390D01*
X401D02*
X429D01*
X281Y637D02*
X314D01*
X323D02*
X390D01*
X401D02*
X429D01*
X281Y637D02*
X314D01*
X323D02*
X390D01*
X401D02*
X429D01*
X281Y636D02*
X314D01*
X323D02*
X390D01*
X401D02*
X429D01*
X281Y636D02*
X314D01*
X323D02*
X390D01*
X401D02*
X429D01*
X281Y636D02*
X314D01*
X320D02*
X393D01*
X401D02*
X402D01*
X402D02*
X430D01*
X430D02*
X432D01*
X281Y635D02*
X282D01*
X282D02*
X313D01*
X314D02*
X314D01*
X320D02*
X390D01*
X391D02*
X391D01*
X391D02*
X392D01*
X392D02*
X393D01*
X401D02*
X431D01*
X281Y635D02*
X314D01*
X320D02*
X393D01*
X401D02*
X432D01*
X281Y635D02*
X314D01*
X320D02*
X391D01*
X391D02*
X393D01*
X401D02*
X431D01*
X281Y634D02*
X314D01*
X320D02*
X392D01*
X392D02*
X393D01*
X401D02*
X432D01*
X281Y634D02*
X314D01*
X320D02*
X393D01*
X401D02*
X432D01*
X281Y633D02*
X314D01*
X320D02*
X321D01*
X321D02*
X393D01*
X401D02*
X432D01*
X281Y633D02*
X314D01*
X320D02*
X321D01*
X322D02*
X393D01*
X401D02*
X432D01*
X281Y633D02*
X314D01*
X320D02*
X393D01*
X401D02*
X432D01*
X281Y632D02*
X314D01*
X320D02*
X393D01*
X401D02*
X432D01*
X281Y632D02*
X314D01*
X320D02*
X393D01*
X401D02*
X432D01*
X281Y632D02*
X314D01*
X320D02*
X393D01*
X401D02*
X401D01*
X402D02*
X432D01*
X281Y631D02*
X314D01*
X320D02*
X393D01*
X401D02*
X402D01*
X402D02*
X432D01*
X281Y631D02*
X314D01*
X320D02*
X391D01*
X391D02*
X393D01*
X401D02*
X432D01*
X281Y631D02*
X314D01*
X320D02*
X393D01*
X401D02*
X432D01*
X281Y630D02*
X314D01*
X320D02*
X393D01*
X401D02*
X432D01*
X281Y630D02*
X317D01*
X317D02*
X393D01*
X401D02*
X432D01*
X281Y630D02*
X316D01*
X316D02*
X393D01*
X401D02*
X432D01*
X281Y629D02*
X318D01*
X318D02*
X393D01*
X401D02*
X432D01*
X281Y629D02*
X393D01*
X401D02*
X432D01*
X281Y629D02*
X393D01*
X401D02*
X432D01*
X281Y628D02*
X393D01*
X401D02*
X432D01*
X281Y628D02*
X393D01*
X401D02*
X432D01*
X281Y627D02*
X393D01*
X401D02*
X432D01*
X281Y627D02*
X393D01*
X398D02*
X435D01*
X281Y627D02*
X392D01*
X398D02*
X435D01*
X281Y626D02*
X315D01*
X316D02*
X317D01*
X317D02*
X393D01*
X398D02*
X435D01*
X281Y626D02*
X315D01*
X316D02*
X393D01*
X398D02*
X435D01*
X281Y626D02*
X315D01*
X316D02*
X393D01*
X398D02*
X435D01*
X281Y625D02*
X393D01*
X398D02*
X434D01*
X281Y625D02*
X316D01*
X317D02*
X393D01*
X398D02*
X435D01*
X281Y625D02*
X393D01*
X398D02*
X435D01*
X281Y624D02*
X395D01*
X398D02*
X399D01*
X399D02*
X435D01*
X281Y624D02*
X394D01*
X394D02*
X395D01*
X398D02*
X435D01*
X281Y624D02*
X393D01*
X393D02*
X395D01*
X398D02*
X435D01*
X281Y623D02*
X395D01*
X398D02*
X435D01*
X281Y623D02*
X395D01*
X398D02*
X435D01*
X281Y623D02*
X395D01*
X398D02*
X435D01*
X281Y622D02*
X395D01*
X398D02*
X435D01*
X281Y622D02*
X395D01*
X398D02*
X435D01*
X281Y622D02*
X395D01*
X398D02*
X435D01*
X281Y621D02*
X393D01*
X394D02*
X395D01*
X398D02*
X435D01*
X281Y621D02*
X395D01*
X398D02*
X435D01*
X281Y621D02*
X395D01*
X398D02*
X399D01*
X399D02*
X435D01*
X281Y620D02*
X395D01*
X398D02*
X399D01*
X399D02*
X435D01*
X281Y620D02*
X395D01*
X398D02*
X435D01*
X281Y619D02*
X394D01*
X394D02*
X395D01*
X398D02*
X435D01*
X281Y619D02*
X395D01*
X398D02*
X435D01*
X281Y619D02*
X395D01*
X398D02*
X437D01*
X281Y618D02*
X395D01*
X398D02*
X399D01*
X399D02*
X437D01*
X281Y618D02*
X395D01*
X399D02*
X437D01*
X281Y618D02*
X395D01*
X398D02*
X437D01*
X281Y617D02*
X395D01*
X398D02*
X437D01*
X281Y617D02*
X395D01*
X398D02*
X437D01*
X281Y617D02*
X395D01*
X398D02*
X437D01*
X281Y616D02*
X395D01*
X398D02*
X437D01*
X233Y616D02*
X244D01*
X278D02*
X279D01*
X279D02*
X437D01*
X233Y616D02*
X243D01*
X243D02*
X244D01*
X278D02*
X279D01*
X280D02*
X396D01*
X396D02*
X437D01*
X233Y615D02*
X244D01*
X278D02*
X437D01*
X233Y615D02*
X244D01*
X278D02*
X437D01*
X233Y615D02*
X244D01*
X278D02*
X437D01*
X233Y614D02*
X244D01*
X278D02*
X437D01*
X233Y614D02*
X244D01*
X278D02*
X437D01*
X233Y613D02*
X244D01*
X278D02*
X437D01*
X233Y613D02*
X247D01*
X278D02*
X437D01*
X460D02*
X464D01*
X465D02*
X465D01*
X233Y613D02*
X247D01*
X278D02*
X437D01*
X460D02*
X463D01*
X463D02*
X465D01*
X233Y612D02*
X247D01*
X278D02*
X437D01*
X460D02*
X461D01*
X461D02*
X465D01*
X233Y612D02*
X247D01*
X278D02*
X437D01*
X460D02*
X465D01*
X233Y612D02*
X247D01*
X278D02*
X437D01*
X460D02*
X465D01*
X233Y611D02*
X247D01*
X278D02*
X437D01*
X460D02*
X465D01*
X233Y611D02*
X247D01*
X278D02*
X437D01*
X460D02*
X465D01*
X233Y611D02*
X247D01*
X278D02*
X437D01*
X460D02*
X465D01*
X233Y610D02*
X250D01*
X278D02*
X440D01*
X460D02*
X468D01*
X233Y610D02*
X250D01*
X278D02*
X440D01*
X460D02*
X468D01*
X233Y610D02*
X250D01*
X278D02*
X440D01*
X460D02*
X468D01*
X233Y609D02*
X250D01*
X278D02*
X440D01*
X460D02*
X468D01*
X233Y609D02*
X250D01*
X278D02*
X440D01*
X460D02*
X468D01*
X233Y609D02*
X250D01*
X278D02*
X278D01*
X278D02*
X440D01*
X460D02*
X468D01*
X233Y608D02*
X250D01*
X278D02*
X440D01*
X460D02*
X468D01*
X233Y608D02*
X250D01*
X278D02*
X278D01*
X278D02*
X440D01*
X460D02*
X468D01*
X233Y608D02*
X253D01*
X278D02*
X440D01*
X460D02*
X471D01*
X233Y607D02*
X253D01*
X278D02*
X439D01*
X439D02*
X440D01*
X460D02*
X471D01*
X233Y607D02*
X253D01*
X278D02*
X440D01*
X460D02*
X461D01*
X462D02*
X471D01*
X233Y607D02*
X253D01*
X278D02*
X440D01*
X460D02*
X471D01*
X233Y606D02*
X252D01*
X278D02*
X278D01*
X278D02*
X440D01*
X460D02*
X471D01*
X233Y606D02*
X253D01*
X278D02*
X278D01*
X278D02*
X440D01*
X460D02*
X471D01*
X233Y605D02*
X253D01*
X278D02*
X440D01*
X460D02*
X471D01*
X233Y605D02*
X253D01*
X278D02*
X440D01*
X460D02*
X471D01*
X233Y605D02*
X255D01*
X278D02*
X440D01*
X460D02*
X474D01*
X233Y604D02*
X254D01*
X254D02*
X255D01*
X255D02*
X255D01*
X278D02*
X440D01*
X460D02*
X474D01*
X233Y604D02*
X255D01*
X278D02*
X440D01*
X460D02*
X474D01*
X233Y604D02*
X255D01*
X255D02*
X255D01*
X278D02*
X440D01*
X460D02*
X461D01*
X462D02*
X474D01*
X233Y603D02*
X255D01*
X255D02*
X255D01*
X278D02*
X440D01*
X460D02*
X461D01*
X462D02*
X474D01*
X233Y603D02*
X255D01*
X278D02*
X440D01*
X460D02*
X461D01*
X461D02*
X474D01*
X233Y603D02*
X255D01*
X278D02*
X440D01*
X460D02*
X474D01*
X233Y602D02*
X255D01*
X278D02*
X440D01*
X460D02*
X474D01*
X233Y602D02*
X255D01*
X275D02*
X277D01*
X278D02*
X440D01*
X441D02*
X443D01*
X460D02*
X477D01*
X233Y602D02*
X255D01*
X275D02*
X441D01*
X442D02*
X443D01*
X460D02*
X477D01*
X233Y601D02*
X255D01*
X275D02*
X443D01*
X460D02*
X477D01*
X233Y601D02*
X255D01*
X275D02*
X443D01*
X460D02*
X475D01*
X475D02*
X477D01*
X233Y601D02*
X255D01*
X275D02*
X443D01*
X460D02*
X477D01*
X233Y600D02*
X255D01*
X275D02*
X443D01*
X460D02*
X477D01*
X233Y600D02*
X255D01*
X275D02*
X443D01*
X460D02*
X477D01*
X233Y600D02*
X255D01*
X275D02*
X276D01*
X277D02*
X443D01*
X460D02*
X477D01*
X233Y599D02*
X258D01*
X275D02*
X443D01*
X460D02*
X479D01*
X233Y599D02*
X258D01*
X275D02*
X443D01*
X460D02*
X479D01*
X479D02*
X479D01*
X233Y598D02*
X257D01*
X258D02*
X258D01*
X275D02*
X443D01*
X460D02*
X479D01*
X233Y598D02*
X258D01*
X275D02*
X443D01*
X460D02*
X477D01*
X477D02*
X479D01*
X233Y598D02*
X258D01*
X275D02*
X443D01*
X460D02*
X479D01*
X233Y597D02*
X258D01*
X275D02*
X443D01*
X460D02*
X479D01*
X233Y597D02*
X258D01*
X275D02*
X443D01*
X460D02*
X478D01*
X478D02*
X479D01*
X233Y597D02*
X258D01*
X275D02*
X441D01*
X442D02*
X443D01*
X460D02*
X479D01*
X233Y596D02*
X258D01*
X275D02*
X442D01*
X460D02*
X479D01*
X233Y596D02*
X258D01*
X275D02*
X442D01*
X460D02*
X461D01*
X461D02*
X479D01*
X233Y596D02*
X258D01*
X275D02*
X442D01*
X460D02*
X461D01*
X461D02*
X479D01*
X233Y595D02*
X258D01*
X275D02*
X442D01*
X460D02*
X479D01*
X233Y595D02*
X258D01*
X275D02*
X442D01*
X460D02*
X479D01*
X233Y595D02*
X258D01*
X275D02*
X442D01*
X460D02*
X479D01*
X233Y594D02*
X258D01*
X275D02*
X442D01*
X460D02*
X479D01*
X233Y594D02*
X258D01*
X275D02*
X442D01*
X460D02*
X479D01*
X233Y594D02*
X258D01*
X272D02*
X442D01*
X460D02*
X461D01*
X462D02*
X482D01*
X233Y593D02*
X258D01*
X272D02*
X442D01*
X460D02*
X482D01*
X233Y593D02*
X258D01*
X272D02*
X442D01*
X460D02*
X461D01*
X461D02*
X482D01*
X233Y592D02*
X258D01*
X272D02*
X442D01*
X460D02*
X461D01*
X462D02*
X462D01*
X463D02*
X482D01*
X233Y592D02*
X258D01*
X272D02*
X442D01*
X460D02*
X461D01*
X462D02*
X482D01*
X233Y592D02*
X258D01*
X272D02*
X273D01*
X273D02*
X442D01*
X460D02*
X460D01*
X461D02*
X462D01*
X462D02*
X482D01*
X233Y591D02*
X258D01*
X272D02*
X442D01*
X460D02*
X461D01*
X461D02*
X482D01*
X233Y591D02*
X258D01*
X272D02*
X442D01*
X460D02*
X482D01*
X236Y591D02*
X261D01*
X272D02*
X442D01*
X463D02*
X485D01*
X236Y590D02*
X258D01*
X259D02*
X261D01*
X272D02*
X442D01*
X463D02*
X485D01*
X236Y590D02*
X261D01*
X272D02*
X442D01*
X463D02*
X485D01*
X236Y590D02*
X261D01*
X272D02*
X442D01*
X463D02*
X485D01*
X236Y589D02*
X261D01*
X272D02*
X442D01*
X463D02*
X485D01*
X236Y589D02*
X260D01*
X260D02*
X261D01*
X272D02*
X442D01*
X463D02*
X485D01*
X236Y589D02*
X261D01*
X272D02*
X442D01*
X463D02*
X485D01*
X236Y588D02*
X261D01*
X272D02*
X442D01*
X463D02*
X485D01*
X236Y588D02*
X261D01*
X272D02*
X442D01*
X442D02*
X443D01*
X463D02*
X485D01*
X236Y588D02*
X261D01*
X272D02*
X443D01*
X463D02*
X485D01*
X236Y587D02*
X260D01*
X260D02*
X261D01*
X272D02*
X443D01*
X463D02*
X485D01*
X236Y587D02*
X261D01*
X272D02*
X443D01*
X463D02*
X485D01*
X236Y587D02*
X261D01*
X272D02*
X443D01*
X463D02*
X485D01*
X236Y586D02*
X261D01*
X272D02*
X443D01*
X463D02*
X485D01*
X236Y586D02*
X261D01*
X272D02*
X443D01*
X463D02*
X485D01*
X236Y586D02*
X261D01*
X272D02*
X443D01*
X463D02*
X485D01*
X236Y585D02*
X261D01*
X269D02*
X443D01*
X463D02*
X488D01*
X236Y585D02*
X236D01*
X236D02*
X261D01*
X269D02*
X443D01*
X463D02*
X488D01*
X236Y584D02*
X261D01*
X269D02*
X443D01*
X463D02*
X488D01*
X236Y584D02*
X261D01*
X269D02*
X443D01*
X463D02*
X488D01*
X236Y584D02*
X261D01*
X269D02*
X270D01*
X270D02*
X443D01*
X463D02*
X488D01*
X236Y583D02*
X261D01*
X269D02*
X443D01*
X463D02*
X488D01*
X236Y583D02*
X237D01*
X238D02*
X261D01*
X269D02*
X443D01*
X463D02*
X488D01*
X236Y583D02*
X261D01*
X269D02*
X443D01*
X463D02*
X488D01*
X236Y582D02*
X236D01*
X237D02*
X261D01*
X269D02*
X443D01*
X460D02*
X488D01*
X236Y582D02*
X261D01*
X269D02*
X443D01*
X460D02*
X488D01*
X236Y582D02*
X261D01*
X269D02*
X443D01*
X460D02*
X488D01*
X236Y581D02*
X261D01*
X269D02*
X443D01*
X460D02*
X461D01*
X461D02*
X488D01*
X236Y581D02*
X261D01*
X269D02*
X443D01*
X460D02*
X488D01*
X236Y581D02*
X261D01*
X269D02*
X443D01*
X460D02*
X488D01*
X236Y580D02*
X261D01*
X269D02*
X443D01*
X460D02*
X488D01*
X236Y580D02*
X236D01*
X237D02*
X261D01*
X269D02*
X443D01*
X460D02*
X488D01*
X239Y580D02*
X264D01*
X269D02*
X443D01*
X460D02*
X491D01*
X239Y579D02*
X263D01*
X263D02*
X264D01*
X269D02*
X443D01*
X460D02*
X490D01*
X239Y579D02*
X264D01*
X269D02*
X443D01*
X460D02*
X488D01*
X488D02*
X491D01*
X239Y578D02*
X263D01*
X263D02*
X264D01*
X269D02*
X443D01*
X460D02*
X491D01*
X239Y578D02*
X264D01*
X269D02*
X443D01*
X460D02*
X490D01*
X239Y578D02*
X264D01*
X269D02*
X443D01*
X460D02*
X491D01*
X239Y577D02*
X264D01*
X269D02*
X443D01*
X460D02*
X491D01*
X239Y577D02*
X264D01*
X269D02*
X443D01*
X460D02*
X491D01*
X239Y577D02*
X264D01*
X267D02*
X443D01*
X460D02*
X491D01*
X239Y576D02*
X264D01*
X267D02*
X443D01*
X460D02*
X491D01*
X239Y576D02*
X264D01*
X267D02*
X443D01*
X460D02*
X491D01*
X239Y576D02*
X264D01*
X267D02*
X443D01*
X460D02*
X491D01*
X239Y575D02*
X264D01*
X267D02*
X443D01*
X460D02*
X491D01*
X239Y575D02*
X264D01*
X267D02*
X443D01*
X460D02*
X491D01*
X239Y575D02*
X264D01*
X267D02*
X443D01*
X460D02*
X491D01*
X239Y574D02*
X264D01*
X267D02*
X268D01*
X268D02*
X443D01*
X460D02*
X461D01*
X461D02*
X491D01*
X239Y574D02*
X264D01*
X267D02*
X443D01*
X460D02*
X491D01*
X239Y574D02*
X264D01*
X267D02*
X443D01*
X460D02*
X491D01*
X239Y573D02*
X264D01*
X267D02*
X443D01*
X460D02*
X491D01*
X239Y573D02*
X263D01*
X267D02*
X443D01*
X460D02*
X491D01*
X239Y573D02*
X264D01*
X267D02*
X443D01*
X460D02*
X491D01*
X239Y572D02*
X264D01*
X267D02*
X443D01*
X460D02*
X491D01*
X239Y572D02*
X264D01*
X267D02*
X443D01*
X460D02*
X491D01*
X239Y572D02*
X264D01*
X267D02*
X443D01*
X460D02*
X460D01*
X461D02*
X491D01*
X239Y571D02*
X354D01*
X354D02*
X443D01*
X460D02*
X491D01*
X491D02*
X493D01*
X239Y571D02*
X264D01*
X264D02*
X354D01*
X354D02*
X443D01*
X460D02*
X491D01*
X492D02*
X493D01*
X239Y570D02*
X264D01*
X264D02*
X266D01*
X267D02*
X443D01*
X460D02*
X491D01*
X492D02*
X493D01*
X239Y570D02*
X354D01*
X355D02*
X356D01*
X356D02*
X443D01*
X460D02*
X491D01*
X492D02*
X493D01*
X239Y570D02*
X264D01*
X265D02*
X443D01*
X460D02*
X493D01*
X239Y569D02*
X443D01*
X460D02*
X493D01*
X239Y569D02*
X353D01*
X353D02*
X443D01*
X460D02*
X493D01*
X493D02*
X493D01*
X239Y569D02*
X443D01*
X460D02*
X492D01*
X492D02*
X493D01*
X239Y568D02*
X353D01*
X356D02*
X443D01*
X460D02*
X493D01*
X239Y568D02*
X353D01*
X356D02*
X443D01*
X460D02*
X493D01*
X239Y568D02*
X353D01*
X356D02*
X443D01*
X460D02*
X493D01*
X239Y567D02*
X353D01*
X356D02*
X443D01*
X460D02*
X493D01*
X239Y567D02*
X353D01*
X356D02*
X443D01*
X460D02*
X492D01*
X492D02*
X493D01*
X239Y567D02*
X353D01*
X356D02*
X443D01*
X460D02*
X493D01*
X239Y566D02*
X353D01*
X356D02*
X443D01*
X460D02*
X493D01*
X239Y566D02*
X353D01*
X356D02*
X359D01*
X359D02*
X443D01*
X460D02*
X493D01*
X239Y566D02*
X314D01*
X317D02*
X353D01*
X359D02*
X443D01*
X457D02*
X493D01*
X239Y565D02*
X314D01*
X317D02*
X353D01*
X359D02*
X443D01*
X457D02*
X493D01*
X239Y565D02*
X314D01*
X317D02*
X353D01*
X359D02*
X443D01*
X457D02*
X459D01*
X460D02*
X493D01*
X239Y564D02*
X314D01*
X317D02*
X353D01*
X359D02*
X443D01*
X457D02*
X458D01*
X458D02*
X493D01*
X239Y564D02*
X314D01*
X317D02*
X353D01*
X359D02*
X443D01*
X457D02*
X493D01*
X239Y564D02*
X314D01*
X317D02*
X353D01*
X359D02*
X443D01*
X457D02*
X493D01*
X239Y563D02*
X314D01*
X317D02*
X353D01*
X359D02*
X443D01*
X457D02*
X492D01*
X492D02*
X493D01*
X239Y563D02*
X314D01*
X317D02*
X353D01*
X359D02*
X443D01*
X457D02*
X493D01*
X239Y563D02*
X314D01*
X317D02*
X356D01*
X362D02*
X443D01*
X457D02*
X493D01*
X239Y562D02*
X314D01*
X317D02*
X356D01*
X362D02*
X443D01*
X457D02*
X493D01*
X239Y562D02*
X314D01*
X317D02*
X356D01*
X362D02*
X443D01*
X457D02*
X493D01*
X239Y562D02*
X314D01*
X317D02*
X356D01*
X362D02*
X442D01*
X443D02*
X443D01*
X457D02*
X493D01*
X239Y561D02*
X314D01*
X317D02*
X356D01*
X362D02*
X363D01*
X363D02*
X443D01*
X457D02*
X493D01*
X239Y561D02*
X314D01*
X317D02*
X356D01*
X362D02*
X443D01*
X457D02*
X493D01*
X239Y561D02*
X314D01*
X317D02*
X356D01*
X362D02*
X443D01*
X457D02*
X493D01*
X239Y560D02*
X314D01*
X317D02*
X356D01*
X362D02*
X443D01*
X457D02*
X493D01*
X239Y560D02*
X314D01*
X317D02*
X356D01*
X367D02*
X442D01*
X443D02*
X443D01*
X457D02*
X493D01*
X239Y560D02*
X314D01*
X317D02*
X356D01*
X367D02*
X443D01*
X457D02*
X493D01*
X239Y559D02*
X314D01*
X317D02*
X356D01*
X367D02*
X443D01*
X457D02*
X493D01*
X239Y559D02*
X314D01*
X317D02*
X356D01*
X367D02*
X443D01*
X457D02*
X493D01*
X239Y559D02*
X314D01*
X317D02*
X356D01*
X367D02*
X443D01*
X457D02*
X493D01*
X239Y558D02*
X314D01*
X317D02*
X356D01*
X367D02*
X442D01*
X442D02*
X443D01*
X457D02*
X458D01*
X458D02*
X493D01*
X239Y558D02*
X314D01*
X317D02*
X356D01*
X367D02*
X443D01*
X457D02*
X493D01*
X239Y558D02*
X314D01*
X317D02*
X356D01*
X367D02*
X443D01*
X457D02*
X493D01*
X239Y557D02*
X314D01*
X320D02*
X356D01*
X370D02*
X443D01*
X457D02*
X493D01*
X239Y557D02*
X314D01*
X320D02*
X356D01*
X370D02*
X443D01*
X457D02*
X493D01*
X239Y556D02*
X314D01*
X320D02*
X356D01*
X370D02*
X443D01*
X457D02*
X493D01*
X239Y556D02*
X314D01*
X320D02*
X356D01*
X370D02*
X443D01*
X457D02*
X493D01*
X239Y556D02*
X314D01*
X320D02*
X356D01*
X370D02*
X442D01*
X443D02*
X443D01*
X457D02*
X493D01*
X239Y555D02*
X314D01*
X320D02*
X356D01*
X370D02*
X443D01*
X457D02*
X493D01*
X239Y555D02*
X314D01*
X320D02*
X356D01*
X370D02*
X443D01*
X457D02*
X493D01*
X239Y555D02*
X314D01*
X320D02*
X356D01*
X370D02*
X443D01*
X457D02*
X493D01*
X239Y554D02*
X314D01*
X320D02*
X356D01*
X373D02*
X443D01*
X457D02*
X493D01*
X239Y554D02*
X314D01*
X320D02*
X356D01*
X373D02*
X443D01*
X457D02*
X493D01*
X239Y554D02*
X313D01*
X313D02*
X314D01*
X320D02*
X356D01*
X373D02*
X443D01*
X456D02*
X457D01*
X457D02*
X493D01*
X239Y553D02*
X314D01*
X320D02*
X356D01*
X373D02*
X443D01*
X456D02*
X456D01*
X457D02*
X493D01*
X239Y553D02*
X314D01*
X320D02*
X356D01*
X373D02*
X443D01*
X457D02*
X493D01*
X239Y553D02*
X314D01*
X320D02*
X356D01*
X373D02*
X443D01*
X455D02*
X456D01*
X457D02*
X493D01*
X239Y552D02*
X314D01*
X320D02*
X356D01*
X373D02*
X443D01*
X455D02*
X455D01*
X456D02*
X493D01*
X239Y552D02*
X314D01*
X320D02*
X356D01*
X373D02*
X443D01*
X456D02*
X493D01*
X239Y552D02*
X314D01*
X320D02*
X356D01*
X373D02*
X443D01*
X454D02*
X493D01*
X239Y551D02*
X314D01*
X320D02*
X356D01*
X373D02*
X443D01*
X454D02*
X493D01*
X239Y551D02*
X312D01*
X312D02*
X314D01*
X320D02*
X356D01*
X373D02*
X443D01*
X454D02*
X493D01*
X239Y550D02*
X314D01*
X320D02*
X356D01*
X373D02*
X375D01*
X375D02*
X443D01*
X454D02*
X493D01*
X239Y550D02*
X314D01*
X320D02*
X356D01*
X373D02*
X443D01*
X454D02*
X493D01*
X239Y550D02*
X314D01*
X320D02*
X356D01*
X373D02*
X443D01*
X454D02*
X493D01*
X239Y549D02*
X314D01*
X320D02*
X356D01*
X373D02*
X443D01*
X454D02*
X493D01*
X239Y549D02*
X314D01*
X320D02*
X356D01*
X373D02*
X442D01*
X442D02*
X443D01*
X454D02*
X493D01*
X239Y549D02*
X313D01*
X314D02*
X314D01*
X323D02*
X356D01*
X376D02*
X440D01*
X454D02*
X493D01*
X239Y548D02*
X313D01*
X314D02*
X314D01*
X323D02*
X356D01*
X376D02*
X440D01*
X454D02*
X493D01*
X239Y548D02*
X314D01*
X323D02*
X356D01*
X376D02*
X440D01*
X455D02*
X493D01*
X239Y548D02*
X314D01*
X323D02*
X356D01*
X376D02*
X440D01*
X454D02*
X493D01*
X239Y547D02*
X314D01*
X323D02*
X356D01*
X376D02*
X440D01*
X454D02*
X493D01*
X239Y547D02*
X313D01*
X314D02*
X314D01*
X323D02*
X356D01*
X376D02*
X440D01*
X454D02*
X493D01*
X239Y547D02*
X311D01*
X312D02*
X313D01*
X313D02*
X314D01*
X323D02*
X356D01*
X376D02*
X440D01*
X454D02*
X493D01*
X239Y546D02*
X314D01*
X323D02*
X356D01*
X376D02*
X440D01*
X454D02*
X493D01*
X239Y546D02*
X311D01*
X323D02*
X359D01*
X379D02*
X440D01*
X454D02*
X455D01*
X456D02*
X493D01*
X239Y546D02*
X311D01*
X323D02*
X359D01*
X379D02*
X440D01*
X454D02*
X493D01*
X239Y545D02*
X311D01*
X323D02*
X359D01*
X379D02*
X440D01*
X454D02*
X493D01*
X239Y545D02*
X311D01*
X323D02*
X359D01*
X379D02*
X440D01*
X454D02*
X493D01*
X239Y545D02*
X311D01*
X323D02*
X359D01*
X379D02*
X440D01*
X454D02*
X493D01*
X239Y544D02*
X311D01*
X323D02*
X359D01*
X379D02*
X440D01*
X454D02*
X493D01*
X239Y544D02*
X311D01*
X323D02*
X359D01*
X379D02*
X440D01*
X454D02*
X493D01*
X239Y544D02*
X311D01*
X323D02*
X359D01*
X379D02*
X440D01*
X454D02*
X493D01*
X236Y543D02*
X311D01*
X323D02*
X324D01*
X324D02*
X359D01*
X379D02*
X440D01*
X454D02*
X493D01*
X236Y543D02*
X311D01*
X323D02*
X359D01*
X379D02*
X440D01*
X454D02*
X493D01*
X236Y542D02*
X236D01*
X237D02*
X311D01*
X323D02*
X359D01*
X379D02*
X440D01*
X453D02*
X454D01*
X454D02*
X493D01*
X236Y542D02*
X311D01*
X323D02*
X359D01*
X379D02*
X440D01*
X453D02*
X454D01*
X454D02*
X493D01*
X236Y542D02*
X236D01*
X236D02*
X311D01*
X323D02*
X359D01*
X379D02*
X440D01*
X454D02*
X493D01*
X236Y541D02*
X311D01*
X323D02*
X323D01*
X323D02*
X359D01*
X379D02*
X440D01*
X452D02*
X453D01*
X454D02*
X493D01*
X236Y541D02*
X311D01*
X323D02*
X323D01*
X323D02*
X359D01*
X379D02*
X380D01*
X381D02*
X440D01*
X452D02*
X452D01*
X454D02*
X493D01*
X236Y541D02*
X311D01*
X323D02*
X359D01*
X379D02*
X380D01*
X381D02*
X440D01*
X454D02*
X493D01*
X236Y540D02*
X311D01*
X323D02*
X359D01*
X381D02*
X440D01*
X451D02*
X493D01*
X236Y540D02*
X311D01*
X323D02*
X324D01*
X324D02*
X359D01*
X381D02*
X440D01*
X451D02*
X493D01*
X236Y540D02*
X311D01*
X323D02*
X324D01*
X324D02*
X359D01*
X381D02*
X440D01*
X451D02*
X493D01*
X236Y539D02*
X311D01*
X323D02*
X359D01*
X381D02*
X440D01*
X451D02*
X493D01*
X236Y539D02*
X237D01*
X237D02*
X311D01*
X323D02*
X359D01*
X381D02*
X440D01*
X451D02*
X493D01*
X236Y539D02*
X311D01*
X323D02*
X359D01*
X381D02*
X440D01*
X451D02*
X493D01*
X236Y538D02*
X311D01*
X323D02*
X359D01*
X381D02*
X440D01*
X451D02*
X493D01*
X236Y538D02*
X311D01*
X323D02*
X323D01*
X324D02*
X359D01*
X381D02*
X440D01*
X451D02*
X493D01*
X236Y538D02*
X311D01*
X323D02*
X359D01*
X381D02*
X440D01*
X449D02*
X493D01*
X236Y537D02*
X311D01*
X323D02*
X359D01*
X381D02*
X440D01*
X449D02*
X493D01*
X236Y537D02*
X311D01*
X323D02*
X359D01*
X381D02*
X440D01*
X449D02*
X450D01*
X451D02*
X493D01*
X236Y536D02*
X311D01*
X323D02*
X359D01*
X381D02*
X440D01*
X440D02*
X440D01*
X449D02*
X493D01*
X236Y536D02*
X311D01*
X323D02*
X323D01*
X324D02*
X359D01*
X381D02*
X438D01*
X439D02*
X440D01*
X449D02*
X449D01*
X449D02*
X450D01*
X450D02*
X493D01*
X493D02*
X493D01*
X236Y536D02*
X310D01*
X311D02*
X311D01*
X323D02*
X359D01*
X382D02*
X440D01*
X449D02*
X449D01*
X449D02*
X493D01*
X236Y535D02*
X311D01*
X323D02*
X359D01*
X381D02*
X382D01*
X383D02*
X437D01*
X438D02*
X438D01*
X439D02*
X439D01*
X440D02*
X440D01*
X449D02*
X493D01*
X236Y535D02*
X311D01*
X323D02*
X359D01*
X381D02*
X383D01*
X383D02*
X440D01*
X449D02*
X493D01*
X236Y535D02*
X311D01*
X325D02*
X359D01*
X384D02*
X437D01*
X449D02*
X493D01*
X236Y534D02*
X311D01*
X325D02*
X359D01*
X384D02*
X437D01*
X449D02*
X493D01*
X236Y534D02*
X311D01*
X325D02*
X359D01*
X384D02*
X437D01*
X449D02*
X493D01*
X236Y534D02*
X311D01*
X325D02*
X359D01*
X384D02*
X437D01*
X449D02*
X493D01*
X236Y533D02*
X311D01*
X325D02*
X359D01*
X384D02*
X437D01*
X449D02*
X493D01*
X236Y533D02*
X311D01*
X325D02*
X359D01*
X384D02*
X437D01*
X449D02*
X493D01*
X236Y533D02*
X311D01*
X325D02*
X359D01*
X384D02*
X385D01*
X385D02*
X437D01*
X449D02*
X493D01*
X236Y532D02*
X311D01*
X325D02*
X359D01*
X384D02*
X437D01*
X449D02*
X493D01*
X236Y532D02*
X311D01*
X325D02*
X359D01*
X384D02*
X437D01*
X437D02*
X437D01*
X446D02*
X491D01*
X236Y532D02*
X311D01*
X325D02*
X359D01*
X385D02*
X437D01*
X446D02*
X491D01*
X236Y531D02*
X311D01*
X325D02*
X359D01*
X384D02*
X437D01*
X446D02*
X448D01*
X448D02*
X491D01*
X236Y531D02*
X309D01*
X309D02*
X311D01*
X325D02*
X359D01*
X384D02*
X437D01*
X446D02*
X491D01*
X236Y531D02*
X311D01*
X325D02*
X359D01*
X384D02*
X437D01*
X446D02*
X491D01*
X236Y530D02*
X310D01*
X311D02*
X311D01*
X325D02*
X359D01*
X384D02*
X437D01*
X446D02*
X491D01*
X236Y530D02*
X310D01*
X310D02*
X311D01*
X325D02*
X359D01*
X385D02*
X437D01*
X446D02*
X491D01*
X236Y530D02*
X309D01*
X309D02*
X311D01*
X325D02*
X359D01*
X384D02*
X437D01*
X446D02*
X491D01*
X205Y529D02*
X208D01*
X233D02*
X309D01*
X325D02*
X359D01*
X384D02*
X437D01*
X446D02*
X491D01*
X205Y529D02*
X207D01*
X233D02*
X309D01*
X325D02*
X359D01*
X384D02*
X437D01*
X446D02*
X491D01*
X205Y528D02*
X208D01*
X233D02*
X309D01*
X325D02*
X359D01*
X384D02*
X437D01*
X446D02*
X491D01*
X205Y528D02*
X207D01*
X207D02*
X208D01*
X233D02*
X234D01*
X234D02*
X309D01*
X325D02*
X359D01*
X384D02*
X437D01*
X446D02*
X491D01*
X205Y528D02*
X208D01*
X233D02*
X234D01*
X234D02*
X309D01*
X325D02*
X359D01*
X384D02*
X385D01*
X386D02*
X437D01*
X446D02*
X491D01*
X205Y527D02*
X208D01*
X233D02*
X234D01*
X234D02*
X309D01*
X325D02*
X359D01*
X384D02*
X437D01*
X446D02*
X491D01*
X205Y527D02*
X208D01*
X233D02*
X309D01*
X325D02*
X359D01*
X384D02*
X436D01*
X436D02*
X437D01*
X446D02*
X491D01*
X205Y527D02*
X208D01*
X233D02*
X309D01*
X325D02*
X359D01*
X384D02*
X386D01*
X386D02*
X436D01*
X437D02*
X437D01*
X446D02*
X491D01*
X205Y526D02*
X211D01*
X233D02*
X309D01*
X325D02*
X359D01*
X387D02*
X437D01*
X443D02*
X491D01*
X205Y526D02*
X211D01*
X233D02*
X309D01*
X325D02*
X359D01*
X387D02*
X437D01*
X443D02*
X491D01*
X205Y526D02*
X211D01*
X233D02*
X309D01*
X325D02*
X359D01*
X387D02*
X437D01*
X443D02*
X444D01*
X444D02*
X491D01*
X205Y525D02*
X211D01*
X233D02*
X309D01*
X325D02*
X359D01*
X387D02*
X437D01*
X443D02*
X491D01*
X205Y525D02*
X211D01*
X233D02*
X309D01*
X325D02*
X359D01*
X387D02*
X437D01*
X443D02*
X491D01*
X205Y525D02*
X211D01*
X233D02*
X309D01*
X325D02*
X326D01*
X326D02*
X359D01*
X387D02*
X437D01*
X443D02*
X491D01*
X205Y524D02*
X211D01*
X233D02*
X234D01*
X234D02*
X309D01*
X325D02*
X359D01*
X387D02*
X436D01*
X436D02*
X437D01*
X443D02*
X491D01*
X205Y524D02*
X211D01*
X233D02*
X309D01*
X325D02*
X359D01*
X387D02*
X437D01*
X443D02*
X491D01*
X205Y524D02*
X216D01*
X233D02*
X309D01*
X325D02*
X359D01*
X387D02*
X435D01*
X440D02*
X491D01*
X205Y523D02*
X216D01*
X233D02*
X308D01*
X308D02*
X309D01*
X325D02*
X359D01*
X387D02*
X435D01*
X440D02*
X491D01*
X205Y523D02*
X216D01*
X233D02*
X309D01*
X325D02*
X359D01*
X387D02*
X435D01*
X440D02*
X490D01*
X205Y522D02*
X215D01*
X216D02*
X216D01*
X233D02*
X309D01*
X325D02*
X359D01*
X387D02*
X435D01*
X440D02*
X490D01*
X205Y522D02*
X216D01*
X233D02*
X309D01*
X325D02*
X359D01*
X387D02*
X435D01*
X440D02*
X490D01*
X490D02*
X491D01*
X205Y522D02*
X215D01*
X215D02*
X216D01*
X233D02*
X309D01*
X325D02*
X359D01*
X387D02*
X435D01*
X440D02*
X491D01*
X205Y521D02*
X216D01*
X233D02*
X309D01*
X325D02*
X359D01*
X387D02*
X435D01*
X440D02*
X491D01*
X205Y521D02*
X216D01*
X233D02*
X309D01*
X325D02*
X359D01*
X387D02*
X435D01*
X440D02*
X491D01*
X205Y521D02*
X219D01*
X233D02*
X309D01*
X325D02*
X359D01*
X387D02*
X435D01*
X437D02*
X491D01*
X205Y520D02*
X219D01*
X233D02*
X309D01*
X325D02*
X359D01*
X387D02*
X435D01*
X437D02*
X438D01*
X438D02*
X491D01*
X205Y520D02*
X219D01*
X233D02*
X309D01*
X325D02*
X359D01*
X387D02*
X435D01*
X437D02*
X491D01*
X205Y520D02*
X219D01*
X233D02*
X306D01*
X306D02*
X309D01*
X325D02*
X359D01*
X387D02*
X435D01*
X437D02*
X491D01*
X205Y519D02*
X219D01*
X233D02*
X265D01*
X266D02*
X309D01*
X325D02*
X359D01*
X387D02*
X435D01*
X437D02*
X491D01*
X205Y519D02*
X219D01*
X233D02*
X265D01*
X266D02*
X308D01*
X308D02*
X308D01*
X325D02*
X327D01*
X327D02*
X359D01*
X387D02*
X435D01*
X437D02*
X491D01*
X205Y519D02*
X219D01*
X233D02*
X307D01*
X308D02*
X309D01*
X325D02*
X359D01*
X387D02*
X435D01*
X437D02*
X491D01*
X205Y518D02*
X219D01*
X233D02*
X306D01*
X306D02*
X309D01*
X325D02*
X359D01*
X387D02*
X435D01*
X437D02*
X491D01*
X205Y518D02*
X222D01*
X230D02*
X231D01*
X232D02*
X267D01*
X269D02*
X306D01*
X325D02*
X359D01*
X387D02*
X491D01*
X205Y518D02*
X222D01*
X230D02*
X267D01*
X269D02*
X306D01*
X325D02*
X359D01*
X387D02*
X491D01*
X205Y517D02*
X222D01*
X230D02*
X267D01*
X269D02*
X306D01*
X325D02*
X359D01*
X387D02*
X491D01*
X205Y517D02*
X222D01*
X230D02*
X231D01*
X231D02*
X267D01*
X269D02*
X306D01*
X325D02*
X359D01*
X387D02*
X491D01*
X205Y517D02*
X222D01*
X230D02*
X267D01*
X269D02*
X306D01*
X325D02*
X359D01*
X387D02*
X434D01*
X435D02*
X491D01*
X205Y516D02*
X222D01*
X230D02*
X267D01*
X269D02*
X271D01*
X271D02*
X306D01*
X325D02*
X327D01*
X328D02*
X359D01*
X388D02*
X434D01*
X435D02*
X491D01*
X205Y516D02*
X222D01*
X230D02*
X267D01*
X269D02*
X306D01*
X325D02*
X326D01*
X326D02*
X359D01*
X387D02*
X388D01*
X388D02*
X491D01*
X205Y516D02*
X222D01*
X230D02*
X267D01*
X269D02*
X306D01*
X325D02*
X359D01*
X387D02*
X388D01*
X389D02*
X491D01*
X205Y515D02*
X223D01*
X224D02*
X225D01*
X226D02*
X227D01*
X230D02*
X267D01*
X272D02*
X306D01*
X328D02*
X359D01*
X390D02*
X491D01*
X205Y515D02*
X227D01*
X230D02*
X267D01*
X272D02*
X306D01*
X328D02*
X359D01*
X390D02*
X491D01*
X205Y514D02*
X227D01*
X230D02*
X267D01*
X272D02*
X306D01*
X328D02*
X359D01*
X390D02*
X491D01*
X205Y514D02*
X225D01*
X225D02*
X227D01*
X230D02*
X267D01*
X272D02*
X306D01*
X328D02*
X359D01*
X390D02*
X491D01*
X205Y514D02*
X205D01*
X206D02*
X227D01*
X230D02*
X266D01*
X272D02*
X306D01*
X328D02*
X359D01*
X390D02*
X490D01*
X490D02*
X491D01*
X205Y513D02*
X227D01*
X230D02*
X267D01*
X272D02*
X306D01*
X328D02*
X359D01*
X390D02*
X491D01*
X205Y513D02*
X227D01*
X230D02*
X267D01*
X272D02*
X306D01*
X328D02*
X359D01*
X390D02*
X491D01*
X205Y513D02*
X227D01*
X230D02*
X267D01*
X272D02*
X306D01*
X328D02*
X359D01*
X390D02*
X491D01*
X205Y512D02*
X266D01*
X272D02*
X306D01*
X328D02*
X359D01*
X390D02*
X491D01*
X205Y512D02*
X266D01*
X272D02*
X305D01*
X305D02*
X306D01*
X328D02*
X329D01*
X329D02*
X359D01*
X390D02*
X491D01*
X205Y512D02*
X266D01*
X272D02*
X306D01*
X328D02*
X329D01*
X329D02*
X359D01*
X390D02*
X491D01*
X205Y511D02*
X266D01*
X272D02*
X306D01*
X328D02*
X359D01*
X390D02*
X491D01*
X205Y511D02*
X205D01*
X206D02*
X206D01*
X206D02*
X229D01*
X230D02*
X266D01*
X272D02*
X306D01*
X328D02*
X329D01*
X329D02*
X359D01*
X390D02*
X491D01*
X205Y511D02*
X230D01*
X231D02*
X266D01*
X272D02*
X306D01*
X328D02*
X329D01*
X329D02*
X358D01*
X358D02*
X359D01*
X390D02*
X491D01*
X205Y510D02*
X266D01*
X272D02*
X306D01*
X328D02*
X359D01*
X390D02*
X491D01*
X205Y510D02*
X266D01*
X272D02*
X306D01*
X328D02*
X359D01*
X390D02*
X491D01*
X205Y510D02*
X266D01*
X274D02*
X306D01*
X328D02*
X359D01*
X390D02*
X488D01*
X205Y509D02*
X266D01*
X273D02*
X273D01*
X274D02*
X306D01*
X328D02*
X359D01*
X390D02*
X488D01*
X205Y509D02*
X266D01*
X273D02*
X274D01*
X275D02*
X306D01*
X328D02*
X359D01*
X390D02*
X488D01*
X205Y508D02*
X266D01*
X275D02*
X303D01*
X304D02*
X306D01*
X328D02*
X359D01*
X390D02*
X488D01*
X205Y508D02*
X266D01*
X274D02*
X274D01*
X275D02*
X306D01*
X328D02*
X359D01*
X390D02*
X488D01*
X205Y508D02*
X266D01*
X274D02*
X275D01*
X275D02*
X305D01*
X305D02*
X305D01*
X328D02*
X358D01*
X390D02*
X488D01*
X205Y507D02*
X205D01*
X206D02*
X266D01*
X275D02*
X304D01*
X305D02*
X306D01*
X328D02*
X357D01*
X357D02*
X358D01*
X358D02*
X359D01*
X390D02*
X488D01*
X205Y507D02*
X205D01*
X206D02*
X266D01*
X275D02*
X303D01*
X303D02*
X306D01*
X328D02*
X359D01*
X390D02*
X488D01*
X205Y507D02*
X205D01*
X206D02*
X206D01*
X206D02*
X266D01*
X275D02*
X303D01*
X328D02*
X356D01*
X390D02*
X488D01*
X499D02*
X505D01*
X205Y506D02*
X206D01*
X206D02*
X266D01*
X275D02*
X303D01*
X328D02*
X356D01*
X390D02*
X488D01*
X499D02*
X505D01*
X205Y506D02*
X206D01*
X206D02*
X266D01*
X275D02*
X303D01*
X328D02*
X356D01*
X390D02*
X488D01*
X499D02*
X505D01*
X205Y506D02*
X266D01*
X275D02*
X303D01*
X328D02*
X356D01*
X390D02*
X488D01*
X499D02*
X505D01*
X205Y505D02*
X266D01*
X275D02*
X303D01*
X328D02*
X356D01*
X390D02*
X488D01*
X499D02*
X505D01*
X205Y505D02*
X266D01*
X275D02*
X303D01*
X328D02*
X356D01*
X390D02*
X488D01*
X499D02*
X505D01*
X205Y505D02*
X266D01*
X275D02*
X303D01*
X328D02*
X356D01*
X390D02*
X391D01*
X391D02*
X488D01*
X499D02*
X505D01*
X205Y504D02*
X266D01*
X275D02*
X303D01*
X328D02*
X356D01*
X390D02*
X488D01*
X499D02*
X505D01*
X208Y504D02*
X266D01*
X275D02*
X303D01*
X328D02*
X356D01*
X390D02*
X488D01*
X499D02*
X507D01*
X208Y504D02*
X266D01*
X275D02*
X303D01*
X328D02*
X356D01*
X390D02*
X488D01*
X499D02*
X507D01*
X208Y503D02*
X266D01*
X275D02*
X303D01*
X328D02*
X356D01*
X390D02*
X488D01*
X499D02*
X507D01*
X208Y503D02*
X266D01*
X275D02*
X303D01*
X328D02*
X356D01*
X390D02*
X392D01*
X392D02*
X488D01*
X499D02*
X507D01*
X208Y503D02*
X266D01*
X275D02*
X303D01*
X328D02*
X356D01*
X390D02*
X488D01*
X499D02*
X507D01*
X208Y502D02*
X266D01*
X275D02*
X303D01*
X328D02*
X356D01*
X390D02*
X488D01*
X499D02*
X507D01*
X208Y502D02*
X266D01*
X275D02*
X303D01*
X328D02*
X356D01*
X390D02*
X488D01*
X499D02*
X507D01*
X208Y502D02*
X266D01*
X275D02*
X303D01*
X328D02*
X356D01*
X390D02*
X488D01*
X499D02*
X507D01*
X208Y501D02*
X266D01*
X275D02*
X303D01*
X328D02*
X356D01*
X390D02*
X488D01*
X499D02*
X507D01*
X208Y501D02*
X266D01*
X275D02*
X302D01*
X302D02*
X303D01*
X328D02*
X356D01*
X390D02*
X488D01*
X499D02*
X506D01*
X507D02*
X507D01*
X208Y500D02*
X266D01*
X275D02*
X303D01*
X328D02*
X356D01*
X390D02*
X487D01*
X499D02*
X507D01*
X208Y500D02*
X266D01*
X275D02*
X303D01*
X328D02*
X356D01*
X390D02*
X487D01*
X487D02*
X488D01*
X499D02*
X507D01*
X208Y500D02*
X266D01*
X275D02*
X303D01*
X328D02*
X356D01*
X390D02*
X488D01*
X499D02*
X507D01*
X208Y499D02*
X266D01*
X275D02*
X303D01*
X328D02*
X356D01*
X390D02*
X390D01*
X391D02*
X448D01*
X448D02*
X488D01*
X499D02*
X507D01*
X208Y499D02*
X266D01*
X275D02*
X276D01*
X276D02*
X303D01*
X328D02*
X356D01*
X390D02*
X391D01*
X392D02*
X447D01*
X448D02*
X488D01*
X499D02*
X507D01*
X208Y499D02*
X266D01*
X275D02*
X303D01*
X328D02*
X356D01*
X390D02*
X392D01*
X392D02*
X488D01*
X499D02*
X507D01*
X208Y498D02*
X266D01*
X278D02*
X303D01*
X328D02*
X356D01*
X393D02*
X487D01*
X499D02*
X510D01*
X208Y498D02*
X266D01*
X278D02*
X303D01*
X328D02*
X356D01*
X393D02*
X487D01*
X499D02*
X510D01*
X208Y498D02*
X266D01*
X278D02*
X303D01*
X328D02*
X356D01*
X393D02*
X487D01*
X499D02*
X510D01*
X208Y497D02*
X266D01*
X278D02*
X301D01*
X301D02*
X303D01*
X328D02*
X356D01*
X393D02*
X488D01*
X499D02*
X510D01*
X208Y497D02*
X266D01*
X278D02*
X303D01*
X328D02*
X356D01*
X393D02*
X488D01*
X499D02*
X510D01*
X208Y497D02*
X266D01*
X278D02*
X302D01*
X302D02*
X303D01*
X328D02*
X356D01*
X393D02*
X488D01*
X499D02*
X510D01*
X208Y496D02*
X266D01*
X278D02*
X302D01*
X302D02*
X303D01*
X328D02*
X356D01*
X393D02*
X488D01*
X499D02*
X510D01*
X208Y496D02*
X266D01*
X278D02*
X300D01*
X301D02*
X303D01*
X328D02*
X356D01*
X393D02*
X488D01*
X499D02*
X510D01*
X208Y496D02*
X266D01*
X278D02*
X300D01*
X328D02*
X356D01*
X393D02*
X488D01*
X496D02*
X510D01*
X208Y495D02*
X266D01*
X278D02*
X300D01*
X328D02*
X356D01*
X393D02*
X488D01*
X496D02*
X498D01*
X498D02*
X510D01*
X208Y495D02*
X266D01*
X278D02*
X300D01*
X328D02*
X356D01*
X393D02*
X488D01*
X496D02*
X510D01*
X208Y495D02*
X266D01*
X278D02*
X300D01*
X328D02*
X356D01*
X393D02*
X486D01*
X487D02*
X488D01*
X496D02*
X510D01*
X208Y494D02*
X266D01*
X278D02*
X300D01*
X328D02*
X356D01*
X393D02*
X488D01*
X496D02*
X510D01*
X208Y494D02*
X266D01*
X278D02*
X300D01*
X328D02*
X356D01*
X393D02*
X488D01*
X496D02*
X510D01*
X208Y493D02*
X266D01*
X278D02*
X300D01*
X328D02*
X354D01*
X355D02*
X356D01*
X393D02*
X443D01*
X443D02*
X488D01*
X496D02*
X510D01*
X208Y493D02*
X266D01*
X278D02*
X300D01*
X328D02*
X356D01*
X393D02*
X486D01*
X486D02*
X488D01*
X496D02*
X510D01*
X208Y493D02*
X267D01*
X278D02*
X300D01*
X328D02*
X356D01*
X393D02*
X443D01*
X444D02*
X488D01*
X496D02*
X512D01*
X208Y492D02*
X267D01*
X278D02*
X300D01*
X328D02*
X354D01*
X354D02*
X356D01*
X393D02*
X488D01*
X496D02*
X512D01*
X208Y492D02*
X266D01*
X266D02*
X267D01*
X278D02*
X300D01*
X328D02*
X356D01*
X393D02*
X488D01*
X496D02*
X512D01*
X208Y492D02*
X267D01*
X278D02*
X300D01*
X328D02*
X356D01*
X393D02*
X487D01*
X487D02*
X488D01*
X496D02*
X512D01*
X208Y491D02*
X267D01*
X278D02*
X300D01*
X328D02*
X356D01*
X393D02*
X488D01*
X496D02*
X512D01*
X208Y491D02*
X267D01*
X278D02*
X300D01*
X328D02*
X355D01*
X355D02*
X356D01*
X393D02*
X488D01*
X496D02*
X512D01*
X208Y491D02*
X267D01*
X278D02*
X300D01*
X328D02*
X355D01*
X356D02*
X356D01*
X393D02*
X441D01*
X441D02*
X488D01*
X496D02*
X512D01*
X208Y490D02*
X267D01*
X278D02*
X300D01*
X328D02*
X356D01*
X393D02*
X488D01*
X496D02*
X512D01*
X208Y490D02*
X267D01*
X281D02*
X300D01*
X328D02*
X353D01*
X393D02*
X440D01*
X443D02*
X488D01*
X493D02*
X512D01*
X208Y490D02*
X267D01*
X281D02*
X300D01*
X328D02*
X329D01*
X330D02*
X353D01*
X393D02*
X440D01*
X443D02*
X444D01*
X444D02*
X488D01*
X493D02*
X495D01*
X495D02*
X512D01*
X208Y489D02*
X267D01*
X281D02*
X300D01*
X328D02*
X353D01*
X393D02*
X440D01*
X443D02*
X488D01*
X493D02*
X512D01*
X208Y489D02*
X267D01*
X281D02*
X300D01*
X328D02*
X353D01*
X393D02*
X440D01*
X443D02*
X488D01*
X493D02*
X512D01*
X208Y489D02*
X267D01*
X281D02*
X300D01*
X328D02*
X353D01*
X393D02*
X440D01*
X443D02*
X488D01*
X493D02*
X512D01*
X208Y488D02*
X267D01*
X281D02*
X300D01*
X328D02*
X353D01*
X393D02*
X440D01*
X443D02*
X488D01*
X493D02*
X512D01*
X208Y488D02*
X267D01*
X281D02*
X300D01*
X328D02*
X353D01*
X393D02*
X440D01*
X443D02*
X488D01*
X493D02*
X512D01*
X208Y488D02*
X267D01*
X281D02*
X300D01*
X328D02*
X353D01*
X393D02*
X440D01*
X443D02*
X488D01*
X493D02*
X512D01*
X208Y487D02*
X267D01*
X281D02*
X300D01*
X328D02*
X353D01*
X393D02*
X437D01*
X443D02*
X485D01*
X493D02*
X512D01*
X208Y487D02*
X267D01*
X281D02*
X300D01*
X328D02*
X353D01*
X393D02*
X437D01*
X443D02*
X485D01*
X493D02*
X512D01*
X208Y486D02*
X266D01*
X266D02*
X267D01*
X281D02*
X300D01*
X328D02*
X353D01*
X393D02*
X437D01*
X443D02*
X485D01*
X493D02*
X512D01*
X208Y486D02*
X267D01*
X281D02*
X300D01*
X328D02*
X353D01*
X393D02*
X437D01*
X443D02*
X485D01*
X493D02*
X512D01*
X208Y486D02*
X267D01*
X281D02*
X300D01*
X328D02*
X353D01*
X393D02*
X437D01*
X443D02*
X485D01*
X493D02*
X512D01*
X208Y485D02*
X266D01*
X281D02*
X300D01*
X328D02*
X352D01*
X353D02*
X353D01*
X393D02*
X437D01*
X443D02*
X485D01*
X493D02*
X512D01*
X208Y485D02*
X267D01*
X281D02*
X300D01*
X328D02*
X353D01*
X393D02*
X437D01*
X443D02*
X485D01*
X493D02*
X512D01*
X208Y485D02*
X267D01*
X281D02*
X300D01*
X328D02*
X353D01*
X393D02*
X437D01*
X443D02*
X485D01*
X493D02*
X512D01*
X208Y484D02*
X267D01*
X281D02*
X300D01*
X331D02*
X353D01*
X393D02*
X435D01*
X440D02*
X485D01*
X491D02*
X512D01*
X208Y484D02*
X267D01*
X281D02*
X300D01*
X331D02*
X353D01*
X393D02*
X435D01*
X440D02*
X484D01*
X485D02*
X485D01*
X491D02*
X492D01*
X492D02*
X512D01*
X208Y484D02*
X266D01*
X281D02*
X300D01*
X331D02*
X353D01*
X393D02*
X435D01*
X440D02*
X485D01*
X491D02*
X512D01*
X208Y483D02*
X267D01*
X281D02*
X300D01*
X331D02*
X353D01*
X393D02*
X434D01*
X434D02*
X435D01*
X440D02*
X485D01*
X491D02*
X512D01*
X208Y483D02*
X267D01*
X281D02*
X300D01*
X331D02*
X353D01*
X393D02*
X435D01*
X440D02*
X485D01*
X491D02*
X512D01*
X208Y483D02*
X267D01*
X281D02*
X300D01*
X331D02*
X353D01*
X393D02*
X435D01*
X440D02*
X485D01*
X491D02*
X512D01*
X208Y482D02*
X267D01*
X281D02*
X300D01*
X331D02*
X353D01*
X393D02*
X434D01*
X434D02*
X435D01*
X440D02*
X485D01*
X491D02*
X512D01*
X208Y482D02*
X267D01*
X281D02*
X300D01*
X331D02*
X353D01*
X393D02*
X435D01*
X440D02*
X485D01*
X491D02*
X512D01*
X208Y482D02*
X267D01*
X281D02*
X300D01*
X331D02*
X353D01*
X393D02*
X432D01*
X440D02*
X442D01*
X442D02*
X485D01*
X488D02*
X512D01*
X208Y481D02*
X267D01*
X281D02*
X300D01*
X331D02*
X353D01*
X393D02*
X432D01*
X440D02*
X485D01*
X488D02*
X512D01*
X208Y481D02*
X267D01*
X281D02*
X300D01*
X331D02*
X353D01*
X393D02*
X432D01*
X440D02*
X485D01*
X488D02*
X488D01*
X489D02*
X512D01*
X208Y481D02*
X265D01*
X265D02*
X267D01*
X281D02*
X300D01*
X331D02*
X353D01*
X393D02*
X432D01*
X440D02*
X485D01*
X488D02*
X512D01*
X208Y480D02*
X267D01*
X281D02*
X300D01*
X331D02*
X353D01*
X393D02*
X432D01*
X440D02*
X485D01*
X488D02*
X512D01*
X208Y480D02*
X267D01*
X281D02*
X300D01*
X331D02*
X353D01*
X393D02*
X432D01*
X440D02*
X485D01*
X488D02*
X512D01*
X208Y479D02*
X267D01*
X281D02*
X300D01*
X331D02*
X353D01*
X393D02*
X432D01*
X440D02*
X485D01*
X488D02*
X512D01*
X208Y479D02*
X267D01*
X281D02*
X300D01*
X331D02*
X353D01*
X393D02*
X432D01*
X440D02*
X485D01*
X488D02*
X512D01*
X208Y479D02*
X267D01*
X283D02*
X300D01*
X331D02*
X351D01*
X393D02*
X432D01*
X440D02*
X512D01*
X208Y478D02*
X266D01*
X266D02*
X267D01*
X283D02*
X300D01*
X331D02*
X351D01*
X393D02*
X432D01*
X440D02*
X486D01*
X486D02*
X512D01*
X208Y478D02*
X266D01*
X266D02*
X267D01*
X283D02*
X300D01*
X331D02*
X351D01*
X393D02*
X432D01*
X440D02*
X485D01*
X486D02*
X487D01*
X487D02*
X512D01*
X208Y478D02*
X267D01*
X283D02*
X300D01*
X331D02*
X351D01*
X393D02*
X432D01*
X440D02*
X486D01*
X487D02*
X512D01*
X208Y477D02*
X267D01*
X283D02*
X300D01*
X331D02*
X351D01*
X393D02*
X430D01*
X431D02*
X432D01*
X440D02*
X486D01*
X487D02*
X487D01*
X488D02*
X512D01*
X208Y477D02*
X267D01*
X283D02*
X300D01*
X331D02*
X351D01*
X393D02*
X432D01*
X440D02*
X486D01*
X486D02*
X512D01*
X208Y477D02*
X267D01*
X283D02*
X300D01*
X331D02*
X351D01*
X393D02*
X432D01*
X440D02*
X512D01*
X208Y476D02*
X267D01*
X283D02*
X300D01*
X331D02*
X351D01*
X393D02*
X432D01*
X440D02*
X483D01*
X483D02*
X486D01*
X487D02*
X512D01*
X208Y476D02*
X267D01*
X283D02*
X300D01*
X331D02*
X351D01*
X393D02*
X429D01*
X440D02*
X482D01*
X485D02*
X512D01*
X208Y476D02*
X265D01*
X265D02*
X267D01*
X283D02*
X300D01*
X331D02*
X351D01*
X393D02*
X429D01*
X440D02*
X482D01*
X485D02*
X512D01*
X208Y475D02*
X265D01*
X265D02*
X267D01*
X283D02*
X300D01*
X331D02*
X351D01*
X393D02*
X429D01*
X440D02*
X482D01*
X485D02*
X512D01*
X208Y475D02*
X267D01*
X283D02*
X300D01*
X331D02*
X351D01*
X393D02*
X429D01*
X440D02*
X482D01*
X485D02*
X512D01*
X208Y475D02*
X266D01*
X266D02*
X267D01*
X283D02*
X300D01*
X331D02*
X351D01*
X393D02*
X429D01*
X440D02*
X482D01*
X485D02*
X512D01*
X208Y474D02*
X266D01*
X266D02*
X267D01*
X283D02*
X300D01*
X331D02*
X351D01*
X393D02*
X429D01*
X440D02*
X482D01*
X485D02*
X512D01*
X208Y474D02*
X266D01*
X266D02*
X267D01*
X283D02*
X300D01*
X331D02*
X351D01*
X393D02*
X429D01*
X440D02*
X482D01*
X485D02*
X512D01*
X208Y474D02*
X267D01*
X283D02*
X300D01*
X331D02*
X351D01*
X393D02*
X427D01*
X428D02*
X429D01*
X440D02*
X482D01*
X485D02*
X512D01*
X208Y473D02*
X267D01*
X283D02*
X300D01*
X334D02*
X334D01*
X335D02*
X351D01*
X393D02*
X426D01*
X437D02*
X482D01*
X482D02*
X512D01*
X208Y473D02*
X267D01*
X283D02*
X300D01*
X334D02*
X351D01*
X393D02*
X426D01*
X437D02*
X438D01*
X438D02*
X512D01*
X208Y472D02*
X267D01*
X283D02*
X300D01*
X334D02*
X351D01*
X393D02*
X426D01*
X437D02*
X512D01*
X208Y472D02*
X267D01*
X283D02*
X300D01*
X334D02*
X351D01*
X393D02*
X426D01*
X437D02*
X512D01*
X208Y472D02*
X267D01*
X283D02*
X300D01*
X334D02*
X351D01*
X393D02*
X426D01*
X437D02*
X438D01*
X438D02*
X512D01*
X208Y471D02*
X267D01*
X283D02*
X300D01*
X334D02*
X351D01*
X393D02*
X426D01*
X437D02*
X512D01*
X208Y471D02*
X267D01*
X283D02*
X284D01*
X284D02*
X300D01*
X334D02*
X351D01*
X393D02*
X426D01*
X437D02*
X512D01*
X208Y471D02*
X267D01*
X283D02*
X300D01*
X334D02*
X351D01*
X393D02*
X426D01*
X437D02*
X512D01*
X208Y470D02*
X267D01*
X283D02*
X300D01*
X334D02*
X351D01*
X393D02*
X423D01*
X437D02*
X512D01*
X208Y470D02*
X267D01*
X283D02*
X300D01*
X334D02*
X351D01*
X393D02*
X423D01*
X437D02*
X512D01*
X208Y470D02*
X267D01*
X283D02*
X300D01*
X334D02*
X351D01*
X393D02*
X423D01*
X437D02*
X512D01*
X208Y469D02*
X267D01*
X283D02*
X285D01*
X285D02*
X300D01*
X334D02*
X334D01*
X335D02*
X351D01*
X393D02*
X423D01*
X437D02*
X512D01*
X208Y469D02*
X267D01*
X283D02*
X285D01*
X285D02*
X300D01*
X334D02*
X351D01*
X393D02*
X423D01*
X437D02*
X512D01*
X208Y469D02*
X265D01*
X265D02*
X266D01*
X266D02*
X267D01*
X283D02*
X300D01*
X334D02*
X351D01*
X393D02*
X423D01*
X437D02*
X512D01*
X208Y468D02*
X264D01*
X265D02*
X267D01*
X283D02*
X300D01*
X334D02*
X334D01*
X335D02*
X335D01*
X336D02*
X351D01*
X393D02*
X423D01*
X437D02*
X512D01*
X208Y468D02*
X264D01*
X265D02*
X267D01*
X283D02*
X300D01*
X334D02*
X351D01*
X393D02*
X423D01*
X437D02*
X512D01*
X208Y468D02*
X264D01*
X283D02*
X300D01*
X337D02*
X351D01*
X393D02*
X421D01*
X437D02*
X512D01*
X208Y467D02*
X264D01*
X283D02*
X300D01*
X337D02*
X351D01*
X393D02*
X421D01*
X437D02*
X512D01*
X208Y467D02*
X264D01*
X283D02*
X300D01*
X337D02*
X351D01*
X393D02*
X421D01*
X437D02*
X438D01*
X438D02*
X512D01*
X208Y467D02*
X264D01*
X283D02*
X300D01*
X337D02*
X351D01*
X393D02*
X421D01*
X437D02*
X512D01*
X208Y466D02*
X264D01*
X283D02*
X300D01*
X337D02*
X351D01*
X393D02*
X421D01*
X437D02*
X512D01*
X208Y466D02*
X264D01*
X283D02*
X300D01*
X337D02*
X338D01*
X338D02*
X351D01*
X393D02*
X421D01*
X437D02*
X512D01*
X208Y465D02*
X264D01*
X283D02*
X300D01*
X337D02*
X351D01*
X393D02*
X421D01*
X437D02*
X512D01*
X208Y465D02*
X264D01*
X283D02*
X300D01*
X337D02*
X351D01*
X393D02*
X421D01*
X437D02*
X512D01*
X208Y465D02*
X264D01*
X286D02*
X303D01*
X337D02*
X351D01*
X393D02*
X421D01*
X437D02*
X512D01*
X208Y464D02*
X264D01*
X286D02*
X303D01*
X337D02*
X351D01*
X393D02*
X421D01*
X437D02*
X512D01*
X208Y464D02*
X209D01*
X209D02*
X264D01*
X286D02*
X303D01*
X337D02*
X351D01*
X393D02*
X421D01*
X437D02*
X512D01*
X208Y464D02*
X264D01*
X286D02*
X302D01*
X302D02*
X303D01*
X337D02*
X351D01*
X393D02*
X421D01*
X437D02*
X512D01*
X208Y463D02*
X264D01*
X286D02*
X303D01*
X337D02*
X338D01*
X338D02*
X351D01*
X393D02*
X419D01*
X420D02*
X421D01*
X437D02*
X512D01*
X208Y463D02*
X263D01*
X286D02*
X303D01*
X337D02*
X351D01*
X393D02*
X421D01*
X437D02*
X511D01*
X208Y463D02*
X264D01*
X286D02*
X303D01*
X337D02*
X351D01*
X393D02*
X421D01*
X437D02*
X511D01*
X208Y462D02*
X264D01*
X286D02*
X303D01*
X337D02*
X351D01*
X393D02*
X421D01*
X437D02*
X512D01*
X208Y462D02*
X264D01*
X286D02*
X302D01*
X302D02*
X303D01*
X339D02*
X351D01*
X390D02*
X418D01*
X437D02*
X512D01*
X208Y462D02*
X264D01*
X286D02*
X303D01*
X339D02*
X351D01*
X390D02*
X418D01*
X437D02*
X512D01*
X208Y461D02*
X264D01*
X286D02*
X303D01*
X339D02*
X351D01*
X390D02*
X418D01*
X437D02*
X512D01*
X208Y461D02*
X264D01*
X286D02*
X303D01*
X339D02*
X340D01*
X341D02*
X351D01*
X390D02*
X418D01*
X437D02*
X512D01*
X208Y461D02*
X208D01*
X209D02*
X264D01*
X286D02*
X303D01*
X339D02*
X341D01*
X341D02*
X351D01*
X390D02*
X418D01*
X437D02*
X512D01*
X208Y460D02*
X264D01*
X286D02*
X303D01*
X339D02*
X351D01*
X390D02*
X417D01*
X417D02*
X418D01*
X437D02*
X512D01*
X208Y460D02*
X264D01*
X287D02*
X303D01*
X339D02*
X351D01*
X390D02*
X418D01*
X437D02*
X512D01*
X208Y460D02*
X264D01*
X287D02*
X303D01*
X339D02*
X351D01*
X390D02*
X418D01*
X437D02*
X512D01*
X211Y459D02*
X264D01*
X289D02*
X303D01*
X342D02*
X351D01*
X390D02*
X415D01*
X435D02*
X435D01*
X435D02*
X512D01*
X211Y459D02*
X264D01*
X289D02*
X303D01*
X342D02*
X351D01*
X390D02*
X415D01*
X435D02*
X436D01*
X436D02*
X512D01*
X211Y458D02*
X264D01*
X289D02*
X303D01*
X342D02*
X351D01*
X390D02*
X391D01*
X391D02*
X415D01*
X435D02*
X512D01*
X211Y458D02*
X264D01*
X289D02*
X303D01*
X342D02*
X343D01*
X344D02*
X351D01*
X390D02*
X415D01*
X435D02*
X512D01*
X211Y458D02*
X264D01*
X289D02*
X303D01*
X342D02*
X344D01*
X344D02*
X351D01*
X390D02*
X415D01*
X435D02*
X511D01*
X211Y457D02*
X264D01*
X289D02*
X290D01*
X291D02*
X303D01*
X342D02*
X351D01*
X390D02*
X391D01*
X391D02*
X415D01*
X435D02*
X511D01*
X511D02*
X512D01*
X211Y457D02*
X263D01*
X263D02*
X264D01*
X289D02*
X303D01*
X342D02*
X351D01*
X390D02*
X415D01*
X435D02*
X512D01*
X211Y457D02*
X263D01*
X289D02*
X303D01*
X342D02*
X351D01*
X390D02*
X415D01*
X435D02*
X512D01*
X211Y456D02*
X264D01*
X292D02*
X306D01*
X345D02*
X353D01*
X390D02*
X412D01*
X435D02*
X512D01*
X211Y456D02*
X264D01*
X292D02*
X306D01*
X345D02*
X351D01*
X351D02*
X353D01*
X390D02*
X390D01*
X391D02*
X412D01*
X435D02*
X512D01*
X211Y456D02*
X264D01*
X292D02*
X306D01*
X345D02*
X353D01*
X390D02*
X412D01*
X435D02*
X512D01*
X211Y455D02*
X264D01*
X292D02*
X306D01*
X345D02*
X346D01*
X346D02*
X353D01*
X390D02*
X412D01*
X435D02*
X512D01*
X211Y455D02*
X264D01*
X292D02*
X306D01*
X345D02*
X346D01*
X347D02*
X353D01*
X390D02*
X412D01*
X435D02*
X512D01*
X211Y455D02*
X264D01*
X292D02*
X306D01*
X345D02*
X353D01*
X390D02*
X412D01*
X435D02*
X511D01*
X511D02*
X512D01*
X211Y454D02*
X264D01*
X292D02*
X306D01*
X345D02*
X353D01*
X390D02*
X412D01*
X435D02*
X512D01*
X211Y454D02*
X264D01*
X292D02*
X293D01*
X293D02*
X306D01*
X345D02*
X348D01*
X348D02*
X353D01*
X390D02*
X412D01*
X435D02*
X512D01*
X211Y454D02*
X264D01*
X292D02*
X306D01*
X348D02*
X353D01*
X390D02*
X409D01*
X435D02*
X510D01*
X211Y453D02*
X264D01*
X292D02*
X306D01*
X348D02*
X353D01*
X390D02*
X409D01*
X435D02*
X510D01*
X211Y453D02*
X264D01*
X292D02*
X306D01*
X348D02*
X353D01*
X390D02*
X409D01*
X435D02*
X510D01*
X211Y452D02*
X264D01*
X292D02*
X306D01*
X348D02*
X353D01*
X390D02*
X409D01*
X435D02*
X510D01*
X211Y452D02*
X264D01*
X292D02*
X306D01*
X348D02*
X351D01*
X352D02*
X353D01*
X390D02*
X409D01*
X435D02*
X510D01*
X211Y452D02*
X264D01*
X292D02*
X306D01*
X348D02*
X353D01*
X390D02*
X409D01*
X435D02*
X510D01*
X211Y451D02*
X264D01*
X292D02*
X306D01*
X348D02*
X353D01*
X390D02*
X409D01*
X435D02*
X510D01*
X211Y451D02*
X264D01*
X292D02*
X306D01*
X348D02*
X353D01*
X390D02*
X409D01*
X435D02*
X510D01*
X211Y451D02*
X264D01*
X295D02*
X306D01*
X390D02*
X409D01*
X435D02*
X510D01*
X211Y450D02*
X264D01*
X295D02*
X306D01*
X390D02*
X409D01*
X435D02*
X510D01*
X211Y450D02*
X264D01*
X295D02*
X306D01*
X390D02*
X409D01*
X435D02*
X510D01*
X211Y450D02*
X264D01*
X295D02*
X306D01*
X390D02*
X407D01*
X407D02*
X409D01*
X435D02*
X510D01*
X211Y449D02*
X264D01*
X295D02*
X305D01*
X305D02*
X306D01*
X390D02*
X409D01*
X435D02*
X510D01*
X211Y449D02*
X264D01*
X295D02*
X306D01*
X390D02*
X409D01*
X409D02*
X409D01*
X435D02*
X510D01*
X211Y449D02*
X264D01*
X295D02*
X306D01*
X390D02*
X409D01*
X435D02*
X510D01*
X211Y448D02*
X264D01*
X295D02*
X306D01*
X390D02*
X409D01*
X409D02*
X409D01*
X435D02*
X510D01*
X211Y448D02*
X266D01*
X266D02*
X267D01*
X295D02*
X306D01*
X390D02*
X407D01*
X432D02*
X510D01*
X211Y448D02*
X265D01*
X265D02*
X266D01*
X266D02*
X267D01*
X295D02*
X306D01*
X390D02*
X407D01*
X432D02*
X509D01*
X509D02*
X510D01*
X211Y447D02*
X266D01*
X266D02*
X267D01*
X295D02*
X306D01*
X390D02*
X407D01*
X432D02*
X510D01*
X211Y447D02*
X267D01*
X295D02*
X306D01*
X390D02*
X407D01*
X432D02*
X510D01*
X211Y447D02*
X267D01*
X295D02*
X295D01*
X295D02*
X306D01*
X390D02*
X407D01*
X432D02*
X510D01*
X211Y446D02*
X267D01*
X295D02*
X296D01*
X296D02*
X306D01*
X390D02*
X407D01*
X432D02*
X510D01*
X211Y446D02*
X267D01*
X295D02*
X296D01*
X296D02*
X306D01*
X390D02*
X407D01*
X432D02*
X508D01*
X509D02*
X510D01*
X211Y445D02*
X267D01*
X295D02*
X306D01*
X390D02*
X407D01*
X432D02*
X510D01*
X211Y445D02*
X267D01*
X297D02*
X306D01*
X390D02*
X404D01*
X432D02*
X510D01*
X211Y445D02*
X267D01*
X297D02*
X306D01*
X390D02*
X404D01*
X432D02*
X433D01*
X433D02*
X510D01*
X211Y444D02*
X267D01*
X297D02*
X306D01*
X390D02*
X404D01*
X432D02*
X509D01*
X510D02*
X510D01*
X211Y444D02*
X267D01*
X297D02*
X306D01*
X390D02*
X390D01*
X391D02*
X404D01*
X432D02*
X510D01*
X211Y444D02*
X267D01*
X297D02*
X306D01*
X390D02*
X404D01*
X432D02*
X510D01*
X211Y443D02*
X267D01*
X297D02*
X306D01*
X390D02*
X404D01*
X432D02*
X510D01*
X211Y443D02*
X267D01*
X297D02*
X306D01*
X390D02*
X404D01*
X432D02*
X433D01*
X433D02*
X510D01*
X211Y443D02*
X267D01*
X297D02*
X306D01*
X390D02*
X404D01*
X432D02*
X510D01*
X510D02*
X510D01*
X211Y442D02*
X267D01*
X297D02*
X299D01*
X299D02*
X308D01*
X308D02*
X309D01*
X390D02*
X401D01*
X432D02*
X507D01*
X211Y442D02*
X267D01*
X297D02*
X308D01*
X308D02*
X309D01*
X390D02*
X401D01*
X432D02*
X507D01*
X211Y442D02*
X267D01*
X297D02*
X298D01*
X299D02*
X309D01*
X390D02*
X401D01*
X432D02*
X507D01*
X211Y441D02*
X267D01*
X297D02*
X298D01*
X299D02*
X300D01*
X300D02*
X309D01*
X390D02*
X401D01*
X432D02*
X507D01*
X211Y441D02*
X267D01*
X297D02*
X299D01*
X299D02*
X308D01*
X308D02*
X309D01*
X390D02*
X400D01*
X400D02*
X401D01*
X432D02*
X507D01*
X211Y441D02*
X267D01*
X297D02*
X298D01*
X298D02*
X299D01*
X299D02*
X309D01*
X390D02*
X401D01*
X432D02*
X507D01*
X211Y440D02*
X267D01*
X297D02*
X298D01*
X298D02*
X309D01*
X390D02*
X401D01*
X432D02*
X507D01*
X211Y440D02*
X267D01*
X297D02*
X309D01*
X390D02*
X400D01*
X400D02*
X401D01*
X432D02*
X507D01*
X211Y440D02*
X267D01*
X300D02*
X309D01*
X387D02*
X401D01*
X429D02*
X507D01*
X211Y439D02*
X267D01*
X300D02*
X309D01*
X387D02*
X388D01*
X388D02*
X401D01*
X429D02*
X429D01*
X430D02*
X430D01*
X431D02*
X431D01*
X432D02*
X507D01*
X211Y439D02*
X267D01*
X300D02*
X309D01*
X387D02*
X401D01*
X429D02*
X507D01*
X211Y438D02*
X267D01*
X300D02*
X309D01*
X387D02*
X401D01*
X429D02*
X430D01*
X431D02*
X507D01*
X211Y438D02*
X267D01*
X300D02*
X309D01*
X387D02*
X387D01*
X388D02*
X401D01*
X429D02*
X429D01*
X430D02*
X507D01*
X507D02*
X507D01*
X211Y438D02*
X267D01*
X300D02*
X309D01*
X387D02*
X401D01*
X429D02*
X507D01*
X211Y437D02*
X267D01*
X300D02*
X309D01*
X387D02*
X401D01*
X429D02*
X507D01*
X211Y437D02*
X267D01*
X300D02*
X309D01*
X387D02*
X401D01*
X429D02*
X507D01*
X211Y437D02*
X267D01*
X303D02*
X309D01*
X387D02*
X398D01*
X429D02*
X507D01*
X211Y436D02*
X267D01*
X303D02*
X309D01*
X387D02*
X398D01*
X429D02*
X507D01*
X211Y436D02*
X267D01*
X303D02*
X309D01*
X387D02*
X398D01*
X429D02*
X507D01*
X211Y436D02*
X267D01*
X303D02*
X309D01*
X387D02*
X398D01*
X429D02*
X507D01*
X211Y435D02*
X267D01*
X303D02*
X309D01*
X387D02*
X398D01*
X429D02*
X507D01*
X211Y435D02*
X267D01*
X303D02*
X309D01*
X387D02*
X398D01*
X429D02*
X507D01*
X211Y435D02*
X267D01*
X303D02*
X307D01*
X308D02*
X309D01*
X387D02*
X396D01*
X396D02*
X398D01*
X429D02*
X430D01*
X431D02*
X507D01*
X211Y434D02*
X267D01*
X303D02*
X303D01*
X304D02*
X309D01*
X387D02*
X398D01*
X429D02*
X507D01*
X211Y434D02*
X267D01*
X387D02*
X395D01*
X429D02*
X505D01*
X211Y434D02*
X267D01*
X387D02*
X395D01*
X429D02*
X505D01*
X211Y433D02*
X267D01*
X387D02*
X395D01*
X429D02*
X505D01*
X211Y433D02*
X267D01*
X387D02*
X395D01*
X429D02*
X505D01*
X211Y433D02*
X267D01*
X387D02*
X395D01*
X429D02*
X505D01*
X211Y432D02*
X267D01*
X387D02*
X395D01*
X429D02*
X505D01*
X211Y432D02*
X267D01*
X387D02*
X395D01*
X429D02*
X505D01*
X211Y431D02*
X267D01*
X387D02*
X394D01*
X394D02*
X395D01*
X429D02*
X505D01*
X211Y431D02*
X264D01*
X265D02*
X267D01*
X384D02*
X386D01*
X386D02*
X393D01*
X429D02*
X505D01*
X211Y431D02*
X267D01*
X384D02*
X393D01*
X429D02*
X505D01*
X211Y430D02*
X267D01*
X384D02*
X385D01*
X385D02*
X393D01*
X429D02*
X505D01*
X211Y430D02*
X267D01*
X384D02*
X393D01*
X429D02*
X505D01*
X211Y430D02*
X267D01*
X384D02*
X393D01*
X429D02*
X505D01*
X211Y429D02*
X267D01*
X384D02*
X392D01*
X392D02*
X393D01*
X429D02*
X505D01*
X211Y429D02*
X267D01*
X384D02*
X393D01*
X429D02*
X505D01*
X211Y429D02*
X267D01*
X384D02*
X393D01*
X429D02*
X505D01*
X211Y428D02*
X267D01*
X384D02*
X393D01*
X426D02*
X505D01*
X211Y428D02*
X267D01*
X384D02*
X391D01*
X392D02*
X393D01*
X426D02*
X505D01*
X211Y428D02*
X267D01*
X384D02*
X393D01*
X426D02*
X505D01*
X211Y427D02*
X267D01*
X384D02*
X393D01*
X426D02*
X505D01*
X211Y427D02*
X267D01*
X384D02*
X390D01*
X391D02*
X393D01*
X426D02*
X505D01*
X211Y427D02*
X266D01*
X266D02*
X267D01*
X384D02*
X393D01*
X426D02*
X505D01*
X211Y426D02*
X267D01*
X384D02*
X385D01*
X386D02*
X392D01*
X392D02*
X393D01*
X426D02*
X505D01*
X211Y426D02*
X267D01*
X384D02*
X393D01*
X426D02*
X505D01*
X211Y426D02*
X267D01*
X384D02*
X389D01*
X389D02*
X390D01*
X426D02*
X505D01*
X211Y425D02*
X267D01*
X384D02*
X390D01*
X426D02*
X505D01*
X211Y425D02*
X267D01*
X384D02*
X390D01*
X426D02*
X427D01*
X427D02*
X505D01*
X211Y424D02*
X267D01*
X384D02*
X390D01*
X426D02*
X505D01*
X211Y424D02*
X266D01*
X384D02*
X388D01*
X388D02*
X390D01*
X426D02*
X505D01*
X211Y424D02*
X267D01*
X384D02*
X390D01*
X426D02*
X504D01*
X504D02*
X505D01*
X211Y423D02*
X267D01*
X384D02*
X390D01*
X426D02*
X505D01*
X211Y423D02*
X267D01*
X384D02*
X390D01*
X426D02*
X505D01*
X211Y423D02*
X212D01*
X212D02*
X267D01*
X424D02*
X502D01*
X211Y422D02*
X267D01*
X423D02*
X424D01*
X424D02*
X502D01*
X211Y422D02*
X267D01*
X423D02*
X502D01*
X211Y422D02*
X267D01*
X423D02*
X502D01*
X211Y421D02*
X267D01*
X423D02*
X502D01*
X211Y421D02*
X267D01*
X423D02*
X502D01*
X211Y421D02*
X267D01*
X423D02*
X500D01*
X501D02*
X502D01*
X211Y420D02*
X267D01*
X423D02*
X502D01*
X213Y420D02*
X269D01*
X423D02*
X500D01*
X213Y420D02*
X268D01*
X269D02*
X269D01*
X423D02*
X500D01*
X501D02*
X501D01*
X213Y419D02*
X269D01*
X423D02*
X499D01*
X500D02*
X501D01*
X213Y419D02*
X268D01*
X269D02*
X269D01*
X423D02*
X499D01*
X213Y419D02*
X269D01*
X423D02*
X499D01*
X500D02*
X500D01*
X213Y418D02*
X267D01*
X268D02*
X269D01*
X423D02*
X499D01*
X499D02*
X500D01*
X213Y418D02*
X269D01*
X423D02*
X499D01*
X213Y417D02*
X269D01*
X423D02*
X499D01*
X213Y417D02*
X269D01*
X421D02*
X499D01*
X213Y417D02*
X268D01*
X268D02*
X269D01*
X421D02*
X499D01*
X213Y416D02*
X269D01*
X421D02*
X499D01*
X213Y416D02*
X269D01*
X421D02*
X499D01*
X213Y416D02*
X269D01*
X421D02*
X499D01*
X213Y415D02*
X269D01*
X421D02*
X499D01*
X213Y415D02*
X269D01*
X421D02*
X499D01*
X213Y415D02*
X269D01*
X421D02*
X499D01*
X213Y414D02*
X214D01*
X214D02*
X269D01*
X418D02*
X418D01*
X419D02*
X496D01*
X213Y414D02*
X214D01*
X214D02*
X269D01*
X418D02*
X496D01*
X213Y414D02*
X269D01*
X418D02*
X419D01*
X420D02*
X421D01*
X421D02*
X496D01*
X213Y413D02*
X269D01*
X418D02*
X419D01*
X420D02*
X420D01*
X421D02*
X496D01*
X213Y413D02*
X269D01*
X418D02*
X419D01*
X420D02*
X496D01*
X213Y413D02*
X214D01*
X214D02*
X269D01*
X418D02*
X496D01*
X213Y412D02*
X214D01*
X214D02*
X215D01*
X216D02*
X269D01*
X418D02*
X496D01*
X213Y412D02*
X269D01*
X418D02*
X419D01*
X419D02*
X496D01*
X216Y412D02*
X271D01*
X272D02*
X272D01*
X418D02*
X493D01*
X216Y411D02*
X272D01*
X418D02*
X493D01*
X216Y411D02*
X272D01*
X418D02*
X493D01*
X216Y410D02*
X271D01*
X272D02*
X272D01*
X418D02*
X493D01*
X216Y410D02*
X271D01*
X272D02*
X272D01*
X418D02*
X493D01*
X216Y410D02*
X272D01*
X418D02*
X493D01*
X216Y409D02*
X272D01*
X418D02*
X493D01*
X216Y409D02*
X272D01*
X418D02*
X493D01*
X216Y409D02*
X272D01*
X415D02*
X493D01*
X216Y408D02*
X272D01*
X415D02*
X493D01*
X216Y408D02*
X272D01*
X415D02*
X493D01*
X216Y408D02*
X272D01*
X415D02*
X415D01*
X416D02*
X493D01*
X216Y407D02*
X217D01*
X218D02*
X218D01*
X219D02*
X272D01*
X415D02*
X417D01*
X417D02*
X493D01*
X216Y407D02*
X217D01*
X218D02*
X272D01*
X415D02*
X416D01*
X416D02*
X493D01*
X216Y407D02*
X272D01*
X415D02*
X492D01*
X493D02*
X493D01*
X216Y406D02*
X218D01*
X219D02*
X272D01*
X415D02*
X490D01*
X490D02*
X491D01*
X491D02*
X493D01*
X219Y406D02*
X272D01*
X415D02*
X491D01*
X219Y406D02*
X272D01*
X415D02*
X491D01*
X219Y405D02*
X272D01*
X415D02*
X489D01*
X490D02*
X491D01*
X219Y405D02*
X272D01*
X415D02*
X491D01*
X219Y405D02*
X272D01*
X415D02*
X491D01*
X219Y404D02*
X272D01*
X415D02*
X490D01*
X490D02*
X491D01*
X219Y404D02*
X272D01*
X415D02*
X491D01*
X219Y403D02*
X272D01*
X415D02*
X491D01*
X219Y403D02*
X272D01*
X412D02*
X488D01*
X219Y403D02*
X272D01*
X412D02*
X488D01*
X219Y402D02*
X272D01*
X412D02*
X488D01*
X219Y402D02*
X272D01*
X412D02*
X488D01*
X219Y402D02*
X272D01*
X412D02*
X488D01*
X219Y401D02*
X272D01*
X412D02*
X488D01*
X219Y401D02*
X272D01*
X412D02*
X488D01*
X219Y401D02*
X272D01*
X412D02*
X488D01*
X222Y400D02*
X275D01*
X409D02*
X412D01*
X412D02*
X485D01*
X222Y400D02*
X275D01*
X409D02*
X410D01*
X410D02*
X485D01*
X222Y400D02*
X275D01*
X409D02*
X485D01*
X222Y399D02*
X275D01*
X409D02*
X485D01*
X222Y399D02*
X275D01*
X409D02*
X485D01*
X222Y399D02*
X275D01*
X409D02*
X485D01*
X222Y398D02*
X274D01*
X275D02*
X275D01*
X409D02*
X485D01*
X222Y398D02*
X275D01*
X409D02*
X485D01*
X222Y398D02*
X275D01*
X407D02*
X485D01*
X222Y397D02*
X274D01*
X274D02*
X275D01*
X407D02*
X485D01*
X222Y397D02*
X275D01*
X407D02*
X485D01*
X222Y396D02*
X275D01*
X407D02*
X485D01*
X222Y396D02*
X275D01*
X407D02*
X485D01*
X222Y396D02*
X275D01*
X407D02*
X485D01*
X222Y395D02*
X275D01*
X407D02*
X485D01*
X222Y395D02*
X275D01*
X407D02*
X485D01*
X225Y395D02*
X275D01*
X404D02*
X482D01*
X225Y394D02*
X275D01*
X404D02*
X482D01*
X225Y394D02*
X275D01*
X404D02*
X482D01*
X225Y394D02*
X275D01*
X404D02*
X482D01*
X225Y393D02*
X275D01*
X404D02*
X481D01*
X482D02*
X482D01*
X225Y393D02*
X275D01*
X404D02*
X480D01*
X481D02*
X482D01*
X225Y393D02*
X275D01*
X404D02*
X482D01*
X225Y392D02*
X275D01*
X404D02*
X482D01*
X227Y392D02*
X278D01*
X401D02*
X479D01*
X227Y392D02*
X278D01*
X401D02*
X479D01*
X227Y391D02*
X278D01*
X401D02*
X479D01*
X227Y391D02*
X278D01*
X401D02*
X479D01*
X227Y391D02*
X278D01*
X401D02*
X476D01*
X477D02*
X479D01*
X227Y390D02*
X278D01*
X401D02*
X479D01*
X227Y390D02*
X278D01*
X401D02*
X479D01*
X227Y389D02*
X278D01*
X401D02*
X476D01*
X476D02*
X479D01*
X227Y389D02*
X278D01*
X398D02*
X477D01*
X227Y389D02*
X278D01*
X398D02*
X477D01*
X227Y388D02*
X278D01*
X398D02*
X477D01*
X227Y388D02*
X278D01*
X398D02*
X477D01*
X227Y388D02*
X278D01*
X398D02*
X477D01*
X227Y387D02*
X278D01*
X398D02*
X473D01*
X474D02*
X477D01*
X227Y387D02*
X278D01*
X398D02*
X472D01*
X472D02*
X477D01*
X227Y387D02*
X278D01*
X398D02*
X477D01*
X230Y386D02*
X281D01*
X395D02*
X472D01*
X230Y386D02*
X281D01*
X395D02*
X472D01*
X473D02*
X473D01*
X230Y386D02*
X231D01*
X232D02*
X281D01*
X395D02*
X471D01*
X472D02*
X473D01*
X230Y385D02*
X281D01*
X395D02*
X471D01*
X230Y385D02*
X281D01*
X395D02*
X471D01*
X472D02*
X472D01*
X230Y385D02*
X231D01*
X232D02*
X281D01*
X395D02*
X470D01*
X470D02*
X471D01*
X471D02*
X472D01*
X230Y384D02*
X281D01*
X395D02*
X471D01*
X230Y384D02*
X281D01*
X395D02*
X470D01*
X470D02*
X471D01*
X233Y384D02*
X283D01*
X393D02*
X468D01*
X233Y383D02*
X281D01*
X282D02*
X283D01*
X393D02*
X468D01*
X233Y383D02*
X283D01*
X393D02*
X468D01*
X233Y382D02*
X283D01*
X283D02*
X283D01*
X393D02*
X468D01*
X233Y382D02*
X280D01*
X281D02*
X282D01*
X282D02*
X283D01*
X283D02*
X283D01*
X393D02*
X468D01*
X233Y382D02*
X283D01*
X283D02*
X283D01*
X393D02*
X468D01*
X233Y381D02*
X283D01*
X393D02*
X468D01*
X233Y381D02*
X283D01*
X393D02*
X468D01*
X235Y381D02*
X283D01*
X390D02*
X465D01*
X234Y380D02*
X234D01*
X235D02*
X283D01*
X390D02*
X464D01*
X465D02*
X465D01*
X234Y380D02*
X234D01*
X236D02*
X283D01*
X390D02*
X465D01*
X236Y380D02*
X283D01*
X390D02*
X465D01*
X235Y379D02*
X235D01*
X236D02*
X283D01*
X390D02*
X465D01*
X235Y379D02*
X235D01*
X236D02*
X283D01*
X390D02*
X465D01*
X236Y379D02*
X283D01*
X390D02*
X465D01*
X236Y378D02*
X283D01*
X390D02*
X465D01*
X236Y378D02*
X286D01*
X384D02*
X460D01*
X236Y378D02*
X286D01*
X384D02*
X460D01*
X236Y377D02*
X286D01*
X384D02*
X460D01*
X236Y377D02*
X286D01*
X384D02*
X459D01*
X459D02*
X460D01*
X236Y377D02*
X237D01*
X238D02*
X286D01*
X384D02*
X385D01*
X385D02*
X460D01*
X236Y376D02*
X286D01*
X384D02*
X460D01*
X236Y376D02*
X286D01*
X384D02*
X460D01*
X236Y375D02*
X237D01*
X237D02*
X286D01*
X384D02*
X460D01*
X239Y375D02*
X289D01*
X381D02*
X384D01*
X384D02*
X457D01*
X239Y375D02*
X288D01*
X289D02*
X289D01*
X381D02*
X457D01*
X239Y374D02*
X289D01*
X381D02*
X457D01*
X239Y374D02*
X289D01*
X381D02*
X456D01*
X457D02*
X457D01*
X239Y374D02*
X289D01*
X381D02*
X457D01*
X239Y373D02*
X239D01*
X239D02*
X289D01*
X381D02*
X457D01*
X239Y373D02*
X289D01*
X381D02*
X457D01*
X239Y373D02*
X289D01*
X381D02*
X455D01*
X455D02*
X457D01*
X241Y372D02*
X292D01*
X376D02*
X376D01*
X377D02*
X451D01*
X241Y372D02*
X292D01*
X376D02*
X451D01*
X241Y372D02*
X292D01*
X376D02*
X451D01*
X241Y371D02*
X292D01*
X376D02*
X451D01*
X241Y371D02*
X292D01*
X376D02*
X451D01*
X241Y371D02*
X292D01*
X376D02*
X451D01*
X241Y370D02*
X292D01*
X376D02*
X450D01*
X451D02*
X451D01*
X241Y370D02*
X292D01*
X376D02*
X451D01*
X247Y370D02*
X295D01*
X370D02*
X446D01*
X247Y369D02*
X295D01*
X370D02*
X371D01*
X371D02*
X446D01*
X247Y369D02*
X295D01*
X295D02*
X296D01*
X370D02*
X371D01*
X371D02*
X372D01*
X372D02*
X446D01*
X247Y368D02*
X248D01*
X248D02*
X295D01*
X295D02*
X296D01*
X370D02*
X372D01*
X372D02*
X446D01*
X247Y368D02*
X295D01*
X370D02*
X371D01*
X372D02*
X373D01*
X373D02*
X446D01*
X247Y368D02*
X295D01*
X296D02*
X297D01*
X370D02*
X371D01*
X372D02*
X446D01*
X247Y367D02*
X295D01*
X296D02*
X297D01*
X370D02*
X446D01*
X247Y367D02*
X295D01*
X370D02*
X372D01*
X372D02*
X443D01*
X444D02*
X446D01*
X253Y367D02*
X300D01*
X367D02*
X443D01*
X253Y366D02*
X300D01*
X367D02*
X443D01*
X253Y366D02*
X300D01*
X367D02*
X443D01*
X253Y366D02*
X300D01*
X367D02*
X439D01*
X439D02*
X442D01*
X443D02*
X443D01*
X253Y365D02*
X300D01*
X367D02*
X443D01*
X253Y365D02*
X300D01*
X367D02*
X443D01*
X253Y365D02*
X300D01*
X367D02*
X443D01*
X253Y364D02*
X300D01*
X367D02*
X443D01*
X258Y364D02*
X303D01*
X362D02*
X363D01*
X364D02*
X364D01*
X365D02*
X435D01*
X258Y364D02*
X299D01*
X299D02*
X303D01*
X362D02*
X363D01*
X363D02*
X435D01*
X258Y363D02*
X259D01*
X259D02*
X303D01*
X362D02*
X435D01*
X258Y363D02*
X303D01*
X362D02*
X435D01*
X258Y363D02*
X303D01*
X362D02*
X435D01*
X258Y362D02*
X303D01*
X362D02*
X432D01*
X433D02*
X435D01*
X258Y362D02*
X303D01*
X362D02*
X362D01*
X363D02*
X435D01*
X258Y361D02*
X303D01*
X362D02*
X429D01*
X429D02*
X431D01*
X432D02*
X435D01*
X264Y361D02*
X306D01*
X359D02*
X429D01*
X264Y361D02*
X306D01*
X359D02*
X360D01*
X360D02*
X429D01*
X264Y360D02*
X306D01*
X359D02*
X429D01*
X264Y360D02*
X264D01*
X264D02*
X267D01*
X267D02*
X306D01*
X359D02*
X429D01*
X264Y360D02*
X306D01*
X359D02*
X429D01*
X264Y359D02*
X306D01*
X359D02*
X429D01*
X264Y359D02*
X306D01*
X359D02*
X424D01*
X424D02*
X429D01*
X264Y359D02*
X276D01*
X276D02*
X304D01*
X305D02*
X305D01*
X359D02*
X424D01*
X424D02*
X428D01*
X428D02*
X429D01*
X281Y358D02*
X309D01*
X359D02*
X418D01*
X281Y358D02*
X309D01*
X359D02*
X418D01*
X281Y358D02*
X282D01*
X283D02*
X309D01*
X359D02*
X364D01*
X364D02*
X418D01*
X281Y357D02*
X309D01*
X359D02*
X359D01*
X360D02*
X418D01*
X281Y357D02*
X284D01*
X284D02*
X309D01*
X359D02*
X359D01*
X360D02*
X362D01*
X363D02*
X366D01*
X367D02*
X418D01*
X281Y357D02*
X281D01*
X282D02*
X309D01*
X359D02*
X413D01*
X413D02*
X418D01*
X281Y356D02*
X309D01*
X359D02*
X360D01*
X361D02*
X369D01*
X370D02*
X417D01*
X417D02*
X418D01*
X281Y356D02*
X309D01*
X359D02*
X411D01*
X413D02*
X418D01*
X289Y356D02*
X290D01*
X291D02*
X311D01*
X376D02*
X402D01*
X402D02*
X404D01*
X289Y355D02*
X311D01*
X376D02*
X377D01*
X377D02*
X400D01*
X400D02*
X404D01*
X289Y355D02*
X290D01*
X290D02*
X311D01*
X376D02*
X378D01*
X378D02*
X402D01*
X403D02*
X404D01*
X289Y354D02*
X290D01*
X291D02*
X291D01*
X292D02*
X311D01*
X376D02*
X393D01*
X393D02*
X401D01*
X401D02*
X402D01*
X403D02*
X404D01*
X289Y354D02*
X290D01*
X291D02*
X311D01*
X376D02*
X397D01*
X397D02*
X402D01*
X402D02*
X404D01*
X289Y354D02*
X289D01*
X290D02*
X291D01*
X291D02*
X311D01*
X376D02*
X377D01*
X377D02*
X381D01*
X393D02*
X393D01*
X394D02*
X402D01*
X402D02*
X403D01*
X403D02*
X404D01*
X289Y353D02*
X290D01*
X290D02*
X293D01*
X294D02*
X311D01*
X376D02*
X400D01*
X400D02*
X403D01*
X403D02*
X404D01*
X289Y353D02*
X311D01*
X376D02*
X381D01*
X381D02*
X400D01*
X400D02*
X404D01*
X213Y347D02*
X468D01*
X213Y347D02*
X215D01*
X216D02*
X468D01*
X213Y346D02*
X468D01*
X213Y346D02*
X468D01*
X213Y346D02*
X468D01*
X213Y345D02*
X468D01*
X213Y345D02*
X468D01*
X213Y345D02*
X468D01*
X213Y344D02*
X468D01*
X213Y344D02*
X468D01*
X213Y344D02*
X468D01*
X213Y343D02*
X468D01*
X213Y343D02*
X468D01*
X213Y343D02*
X468D01*
X213Y342D02*
X468D01*
X213Y342D02*
X468D01*
X213Y342D02*
X468D01*
X213Y341D02*
X468D01*
X213Y341D02*
X468D01*
X213Y340D02*
X468D01*
X213Y340D02*
X468D01*
X213Y340D02*
X468D01*
X213Y339D02*
X468D01*
X213Y339D02*
X468D01*
X213Y339D02*
X468D01*
X213Y338D02*
X468D01*
X213Y338D02*
X468D01*
X213Y338D02*
X468D01*
X213Y337D02*
X468D01*
X213Y337D02*
X468D01*
X213Y337D02*
X468D01*
X213Y336D02*
X468D01*
X213Y336D02*
X468D01*
X213Y336D02*
X468D01*
X213Y335D02*
X468D01*
X213Y335D02*
X468D01*
X213Y335D02*
X468D01*
X213Y334D02*
X468D01*
X213Y334D02*
X468D01*
X213Y333D02*
X468D01*
X213Y333D02*
X468D01*
X213Y333D02*
X468D01*
X213Y332D02*
X468D01*
X213Y332D02*
X468D01*
X213Y332D02*
X468D01*
X213Y331D02*
X468D01*
X213Y331D02*
X468D01*
X213Y331D02*
X468D01*
D36*
X1013Y625D02*
D03*
D37*
X1247Y627D02*
D03*
M02*
