M48
;Layer_Color=9474304
;FILE_FORMAT=2:3
INCH,TZ
;TYPE=PLATED
T1F00S00C0.020
T2F00S00C0.039
T3F00S00C0.059
T4F00S00C0.118
%
T01
X1460Y76
X1523Y102
X1549Y165
X1523Y228
X1460Y254
X1397Y228
X1371Y165
X1397Y102
X223
X160Y76
X97Y102
X71Y165
X97Y228
X160Y254
X223Y228
X249Y165
X223Y847
X249Y910
X223Y973
X160Y999
X97Y973
X71Y910
X97Y847
X160Y821
X1392Y847
X1366Y910
X1392Y973
X1455Y999
X1518Y973
X1544Y910
X1518Y847
X1455Y821
T02
X766Y350
X907Y678
X623Y685
T03
X616Y409
X909Y410
X767Y735
T04
X1460Y165
X160
Y910
X1455
M30
