%FSLAX23Y23*%
%MOIN*%
G70*
G01*
G75*
G04 Layer_Color=16711935*
%ADD10R,0.035X0.031*%
%ADD11R,0.079X0.079*%
%ADD12R,0.051X0.079*%
%ADD13R,0.118X0.039*%
%ADD14R,0.118X0.059*%
%ADD15C,0.010*%
%ADD16C,0.079*%
%ADD17C,0.060*%
%ADD18C,0.039*%
%ADD19C,0.236*%
%ADD20C,0.004*%
%ADD21C,0.000*%
%ADD22C,0.000*%
%ADD23C,0.059*%
%ADD24C,0.020*%
%ADD25R,0.043X0.039*%
%ADD26R,0.087X0.087*%
%ADD27R,0.059X0.087*%
%ADD28R,0.126X0.047*%
%ADD29R,0.126X0.067*%
%ADD30C,0.087*%
%ADD31C,0.068*%
D18*
X1397Y228D02*
D03*
X1523D02*
D03*
X1460Y254D02*
D03*
X1371Y165D02*
D03*
X1397Y102D02*
D03*
X1460Y76D02*
D03*
X1523Y102D02*
D03*
X1549Y165D02*
D03*
X1544Y910D02*
D03*
X1518Y847D02*
D03*
X1455Y821D02*
D03*
X1392Y847D02*
D03*
X1366Y910D02*
D03*
X1455Y999D02*
D03*
X1518Y973D02*
D03*
X1392D02*
D03*
X97Y228D02*
D03*
X223D02*
D03*
X160Y254D02*
D03*
X71Y165D02*
D03*
X97Y102D02*
D03*
X160Y76D02*
D03*
X223Y102D02*
D03*
X249Y165D02*
D03*
Y910D02*
D03*
X223Y847D02*
D03*
X160Y821D02*
D03*
X97Y847D02*
D03*
X71Y910D02*
D03*
X160Y999D02*
D03*
X223Y973D02*
D03*
X97D02*
D03*
D19*
X1460Y165D02*
D03*
X1455Y910D02*
D03*
X160Y165D02*
D03*
Y910D02*
D03*
D23*
X1549Y165D02*
G03*
X1549Y165I-89J0D01*
G01*
X1544Y910D02*
G03*
X1544Y910I-89J0D01*
G01*
X249Y165D02*
G03*
X249Y165I-89J0D01*
G01*
Y910D02*
G03*
X249Y910I-89J0D01*
G01*
D30*
X909Y410D02*
D03*
X616Y409D02*
D03*
X767Y735D02*
D03*
D31*
X766Y350D02*
D03*
X907Y678D02*
D03*
X623Y685D02*
D03*
M02*
