%FSLAX23Y23*%
%MOIN*%
G70*
G01*
G75*
G04 Layer_Color=2752767*
%ADD10C,0.004*%
%ADD11C,0.005*%
%ADD12C,0.007*%
D10*
X1256Y741D02*
X1294D01*
X1256Y809D02*
X1294D01*
X1256Y741D02*
Y809D01*
X1294Y741D02*
Y809D01*
X1253Y728D02*
X1297D01*
X1253Y822D02*
X1297D01*
X1253Y728D02*
Y822D01*
X1297Y728D02*
Y822D01*
X1275Y756D02*
Y794D01*
X1256Y775D02*
X1294D01*
D11*
X889Y390D02*
Y430D01*
X929D01*
Y390D01*
X889D01*
X596Y389D02*
Y429D01*
X636D01*
Y389D01*
X596D01*
X747Y715D02*
Y755D01*
X787D01*
Y715D01*
X747D01*
X1397Y208D02*
X1377Y248D01*
X1417D01*
X1397Y208D01*
X1523D02*
X1503Y248D01*
X1543D01*
X1523Y208D01*
X1460Y234D02*
X1440Y274D01*
X1480D01*
X1460Y234D01*
X1371Y145D02*
X1351Y185D01*
X1391D01*
X1371Y145D01*
X1397Y82D02*
X1377Y122D01*
X1417D01*
X1397Y82D01*
X1460Y56D02*
X1440Y96D01*
X1480D01*
X1460Y56D01*
X1523Y82D02*
X1503Y122D01*
X1543D01*
X1523Y82D01*
X1549Y145D02*
X1529Y185D01*
X1569D01*
X1549Y145D01*
X1460D02*
X1470Y155D01*
X1480D01*
X1470Y165D01*
X1480Y175D01*
X1470D01*
X1460Y185D01*
X1450Y175D01*
X1440D01*
X1450Y165D01*
X1440Y155D01*
X1450D01*
X1460Y145D01*
X1455Y890D02*
X1465Y900D01*
X1475D01*
X1465Y910D01*
X1475Y920D01*
X1465D01*
X1455Y930D01*
X1445Y920D01*
X1435D01*
X1445Y910D01*
X1435Y900D01*
X1445D01*
X1455Y890D01*
X1544D02*
X1524Y930D01*
X1564D01*
X1544Y890D01*
X1518Y827D02*
X1498Y867D01*
X1538D01*
X1518Y827D01*
X1455Y801D02*
X1435Y841D01*
X1475D01*
X1455Y801D01*
X1392Y827D02*
X1372Y867D01*
X1412D01*
X1392Y827D01*
X1366Y890D02*
X1346Y930D01*
X1386D01*
X1366Y890D01*
X1455Y979D02*
X1435Y1019D01*
X1475D01*
X1455Y979D01*
X1518Y953D02*
X1498Y993D01*
X1538D01*
X1518Y953D01*
X1392D02*
X1372Y993D01*
X1412D01*
X1392Y953D01*
X97Y208D02*
X77Y248D01*
X117D01*
X97Y208D01*
X223D02*
X203Y248D01*
X243D01*
X223Y208D01*
X160Y234D02*
X140Y274D01*
X180D01*
X160Y234D01*
X71Y145D02*
X51Y185D01*
X91D01*
X71Y145D01*
X97Y82D02*
X77Y122D01*
X117D01*
X97Y82D01*
X160Y56D02*
X140Y96D01*
X180D01*
X160Y56D01*
X223Y82D02*
X203Y122D01*
X243D01*
X223Y82D01*
X249Y145D02*
X229Y185D01*
X269D01*
X249Y145D01*
X160D02*
X170Y155D01*
X180D01*
X170Y165D01*
X180Y175D01*
X170D01*
X160Y185D01*
X150Y175D01*
X140D01*
X150Y165D01*
X140Y155D01*
X150D01*
X160Y145D01*
Y890D02*
X170Y900D01*
X180D01*
X170Y910D01*
X180Y920D01*
X170D01*
X160Y930D01*
X150Y920D01*
X140D01*
X150Y910D01*
X140Y900D01*
X150D01*
X160Y890D01*
X249D02*
X229Y930D01*
X269D01*
X249Y890D01*
X223Y827D02*
X203Y867D01*
X243D01*
X223Y827D01*
X160Y801D02*
X140Y841D01*
X180D01*
X160Y801D01*
X97Y827D02*
X77Y867D01*
X117D01*
X97Y827D01*
X71Y890D02*
X51Y930D01*
X91D01*
X71Y890D01*
X160Y979D02*
X140Y1019D01*
X180D01*
X160Y979D01*
X223Y953D02*
X203Y993D01*
X243D01*
X223Y953D01*
X97D02*
X77Y993D01*
X117D01*
X97Y953D01*
D12*
X786Y350D02*
G03*
X786Y350I-20J0D01*
G01*
X927Y678D02*
G03*
X927Y678I-20J0D01*
G01*
X643Y685D02*
G03*
X643Y685I-20J0D01*
G01*
M02*
