%FSLAX23Y23*%
%MOIN*%
G70*
G01*
G75*
%ADD10C,0.004*%
%ADD11C,0.005*%
%ADD12C,0.007*%
D10*
X1256Y741D02*
X1294D01*
X1256Y809D02*
X1294D01*
X1256Y741D02*
Y809D01*
X1294Y741D02*
Y809D01*
X1253Y728D02*
X1297D01*
X1253Y822D02*
X1297D01*
X1253Y728D02*
Y822D01*
X1297Y728D02*
Y822D01*
X1275Y756D02*
Y794D01*
X1256Y775D02*
X1294D01*
D11*
X879Y410D02*
X939D01*
X909Y380D02*
Y440D01*
X586Y409D02*
X646D01*
X616Y379D02*
Y439D01*
X746Y350D02*
X786D01*
X766Y330D02*
Y370D01*
X887Y678D02*
X927D01*
X907Y658D02*
Y698D01*
X603Y685D02*
X643D01*
X623Y665D02*
Y705D01*
X737Y735D02*
X797D01*
X767Y705D02*
Y765D01*
X1388Y228D02*
X1407D01*
X1397Y218D02*
Y237D01*
X1513Y228D02*
X1532D01*
X1523Y218D02*
Y237D01*
X1450Y254D02*
X1470D01*
X1460Y244D02*
Y263D01*
X1362Y165D02*
X1381D01*
X1371Y155D02*
Y175D01*
X1388Y102D02*
X1407D01*
X1397Y93D02*
Y112D01*
X1450Y76D02*
X1470D01*
X1460Y67D02*
Y86D01*
X1513Y102D02*
X1532D01*
X1523Y93D02*
Y112D01*
X1539Y165D02*
X1558D01*
X1549Y155D02*
Y175D01*
X1401Y165D02*
X1519D01*
X1460Y106D02*
Y224D01*
X1396Y910D02*
X1514D01*
X1455Y851D02*
Y969D01*
X1534Y910D02*
X1553D01*
X1544Y900D02*
Y920D01*
X1508Y847D02*
X1527D01*
X1518Y838D02*
Y857D01*
X1445Y821D02*
X1465D01*
X1455Y812D02*
Y831D01*
X1383Y847D02*
X1402D01*
X1392Y838D02*
Y857D01*
X1357Y910D02*
X1376D01*
X1366Y900D02*
Y920D01*
X1445Y999D02*
X1465D01*
X1455Y989D02*
Y1008D01*
X1508Y973D02*
X1527D01*
X1518Y963D02*
Y982D01*
X1383Y973D02*
X1402D01*
X1392Y963D02*
Y982D01*
X88Y228D02*
X107D01*
X97Y218D02*
Y237D01*
X213Y228D02*
X232D01*
X223Y218D02*
Y237D01*
X150Y254D02*
X170D01*
X160Y244D02*
Y263D01*
X62Y165D02*
X81D01*
X71Y155D02*
Y175D01*
X88Y102D02*
X107D01*
X97Y93D02*
Y112D01*
X150Y76D02*
X170D01*
X160Y67D02*
Y86D01*
X213Y102D02*
X232D01*
X223Y93D02*
Y112D01*
X239Y165D02*
X258D01*
X249Y155D02*
Y175D01*
X101Y165D02*
X219D01*
X160Y106D02*
Y224D01*
X101Y910D02*
X219D01*
X160Y851D02*
Y969D01*
X239Y910D02*
X258D01*
X249Y900D02*
Y920D01*
X213Y847D02*
X232D01*
X223Y838D02*
Y857D01*
X150Y821D02*
X170D01*
X160Y812D02*
Y831D01*
X88Y847D02*
X107D01*
X97Y838D02*
Y857D01*
X62Y910D02*
X81D01*
X71Y900D02*
Y920D01*
X150Y999D02*
X170D01*
X160Y989D02*
Y1008D01*
X213Y973D02*
X232D01*
X223Y963D02*
Y982D01*
X88Y973D02*
X107D01*
X97Y963D02*
Y982D01*
M02*
